<?xml version="1.0" encoding="utf-8"?>
<!-- Generator: Adobe Illustrator 24.0.2, SVG Export Plug-In . SVG Version: 6.00 Build 0)  -->
<svg version="1.1" id="Layer_1" xmlns="http://www.w3.org/2000/svg" xmlns:xlink="http://www.w3.org/1999/xlink" x="0px" y="0px"
	 viewBox="0 0 30 30" style="enable-background:new 0 0 30 30;" xml:space="preserve">
<style type="text/css">
	.st0{fill:#F1F2F2;}
	.st1{fill:#CCCCCC;}
	.st2{fill:#A385FF;}
	.st3{fill:#7738EC;}
	.st4{fill:#545D68;}
	.st5{fill:#3B454F;}
</style>
<path class="st0" d="M1,29h21.5V6.9l-5.6-5.6H1V29z"/>
<path class="st1" d="M22.5,6.9h-5.6V1.3"/>
<path class="st2" d="M28.6,11.7l-4.9,11.9l-2.9,2.7l-0.2-4l4.9-11.9c0.1-0.3,0.5-0.5,0.9-0.4l1.9,0.8C28.5,11,28.7,11.4,28.6,11.7z"
	/>
<path class="st3" d="M27.3,10.5l-6.5,15.9l-0.2-4l4.9-11.9c0.1-0.3,0.5-0.5,0.9-0.4L27.3,10.5z"/>
<path class="st4" d="M23.7,23.6l-2.9,2.7l0-0.3l-0.2-3.7L23.7,23.6z"/>
<path class="st4" d="M28.6,11.7L27.6,14l-3.1-1.3l0.9-2.3c0.1-0.3,0.5-0.5,0.9-0.4l1.9,0.8C28.5,11,28.7,11.4,28.6,11.7z"/>
<path class="st5" d="M27.1,10.4l-1.2,2.9l-1.4-0.6l0.9-2.3c0.1-0.3,0.5-0.5,0.9-0.4L27.1,10.4z"/>
<path class="st5" d="M20.6,22.4L22,23L20.7,26L20.6,22.4z"/>
<g>
	<path class="st4" d="M14.7,6.4H9.4C9.2,6.4,9,6.2,9,6s0.2-0.4,0.4-0.4h5.3c0.2,0,0.4,0.2,0.4,0.4S14.9,6.4,14.7,6.4z"/>
	<path class="st4" d="M7.2,14.8H3.8c-0.2,0-0.4-0.2-0.4-0.4v-3.3c0-0.2,0.2-0.4,0.4-0.4h3.3c0.2,0,0.4,0.2,0.4,0.4v3.3
		C7.6,14.6,7.4,14.8,7.2,14.8z M4.3,14h2.5v-2.5H4.3V14z"/>
	<path class="st4" d="M19.2,12.1h-9.1c-0.2,0-0.4-0.2-0.4-0.4c0-0.2,0.2-0.4,0.4-0.4h9.1c0.2,0,0.4,0.2,0.4,0.4
		C19.6,12,19.4,12.1,19.2,12.1z"/>
	<path class="st4" d="M17.4,14.2h-7.3c-0.2,0-0.4-0.2-0.4-0.4s0.2-0.4,0.4-0.4h7.3c0.2,0,0.4,0.2,0.4,0.4S17.6,14.2,17.4,14.2z"/>
</g>
<path class="st3" d="M5.8,13.4c-0.1,0-0.2,0-0.3-0.1l-0.8-0.8c-0.2-0.2-0.2-0.4,0-0.6c0.2-0.2,0.4-0.2,0.6,0l0.5,0.5l1.8-2.3
	C7.7,9.9,8,9.9,8.2,10c0.2,0.1,0.2,0.4,0.1,0.6l-2.1,2.6C6.1,13.3,6,13.4,5.8,13.4C5.9,13.4,5.8,13.4,5.8,13.4z"/>
<path class="st4" d="M7.2,20.4H3.8c-0.2,0-0.4-0.2-0.4-0.4v-3.3c0-0.2,0.2-0.4,0.4-0.4h3.3c0.2,0,0.4,0.2,0.4,0.4V20
	C7.6,20.2,7.4,20.4,7.2,20.4z M4.3,19.5h2.5V17H4.3V19.5z"/>
<path class="st4" d="M19.2,17.7h-9.1c-0.2,0-0.4-0.2-0.4-0.4s0.2-0.4,0.4-0.4h9.1c0.2,0,0.4,0.2,0.4,0.4S19.4,17.7,19.2,17.7z"/>
<path class="st4" d="M12.8,19.7h-2.7c-0.2,0-0.4-0.2-0.4-0.4s0.2-0.4,0.4-0.4h2.7c0.2,0,0.4,0.2,0.4,0.4S13.1,19.7,12.8,19.7z"/>
<path class="st3" d="M5.8,19c-0.1,0-0.2,0-0.3-0.1L4.7,18c-0.2-0.2-0.2-0.4,0-0.6c0.2-0.2,0.4-0.2,0.6,0l0.5,0.5l1.8-2.3
	c0.1-0.2,0.4-0.2,0.6-0.1c0.2,0.1,0.2,0.4,0.1,0.6l-2.1,2.6C6.1,18.9,6,19,5.8,19C5.9,19,5.8,19,5.8,19z"/>
<path class="st4" d="M7.2,26H3.8c-0.2,0-0.4-0.2-0.4-0.4v-3.3c0-0.2,0.2-0.4,0.4-0.4h3.3c0.2,0,0.4,0.2,0.4,0.4v3.3
	C7.6,25.8,7.4,26,7.2,26z M4.3,25.1h2.5v-2.5H4.3V25.1z"/>
<path class="st4" d="M19.2,23.3h-9.1c-0.2,0-0.4-0.2-0.4-0.4c0-0.2,0.2-0.4,0.4-0.4h9.1c0.2,0,0.4,0.2,0.4,0.4
	C19.6,23.1,19.4,23.3,19.2,23.3z"/>
<path class="st4" d="M17.8,25.3h-7.7c-0.2,0-0.4-0.2-0.4-0.4c0-0.2,0.2-0.4,0.4-0.4h7.7c0.2,0,0.4,0.2,0.4,0.4
	C18.2,25.1,18.1,25.3,17.8,25.3z"/>
</svg>
