<?xml version="1.0" encoding="utf-8"?>
<!-- Generator: Adobe Illustrator 24.0.2, SVG Export Plug-In . SVG Version: 6.00 Build 0)  -->
<svg version="1.1" id="Capa_1" xmlns="http://www.w3.org/2000/svg" xmlns:xlink="http://www.w3.org/1999/xlink" x="0px" y="0px"
	 viewBox="0 0 512 512" style="enable-background:new 0 0 512 512;" xml:space="preserve">
<style type="text/css">
	.st0{fill:#384949;}
	.st1{fill:#293939;}
	.st2{fill:#8341FF;}
	.st3{fill:#612BE2;}
	.st4{fill:#9BFCFF;}
</style>
<g>
	<g>
		<g>
			<path class="st0" d="M31,137h450v60H31V137z"/>
		</g>
	</g>
	<path class="st1" d="M256,137h225v60H256V137z"/>
	<g>
		<g>
			<path class="st0" d="M31,317h450v60H31V317z"/>
		</g>
	</g>
	<path class="st1" d="M256,317h225v60H256V317z"/>
	<g>
		<g>
			<path class="st2" d="M0,0v152h512V0H0z"/>
		</g>
	</g>
	<path class="st3" d="M256,0h256v152H256V0z"/>
	<g>
		<g>
			<g>
				<path class="st4" d="M61,62h30v30H61V62z"/>
			</g>
		</g>
	</g>
	<g>
		<g>
			<path class="st4" d="M121,62h30v30h-30V62z"/>
		</g>
	</g>
	<g>
		<g>
			<g>
				<path class="st4" d="M181,62h30v30h-30V62z"/>
			</g>
		</g>
	</g>
	<g>
		<g>
			<path class="st1" d="M301,62h150v30H301V62z"/>
		</g>
	</g>
	<g>
		<path class="st2" d="M0,182v150h512V182H0z"/>
	</g>
	<path class="st3" d="M256,182h256v150H256V182z"/>
	<g>
		<g>
			<g>
				<path class="st4" d="M61,242h30v30H61V242z"/>
			</g>
		</g>
	</g>
	<g>
		<g>
			<path class="st4" d="M121,242h30v30h-30V242z"/>
		</g>
	</g>
	<g>
		<g>
			<g>
				<path class="st4" d="M181,242h30v30h-30V242z"/>
			</g>
		</g>
	</g>
	<g>
		<g>
			<path class="st1" d="M301,242h150v30H301V242z"/>
		</g>
	</g>
	<g>
		<path class="st2" d="M0,362v150h512V362H0z"/>
	</g>
	<path class="st3" d="M256,362h256v150H256V362z"/>
	<g>
		<g>
			<g>
				<path class="st4" d="M61,422h30v30H61V422z"/>
			</g>
		</g>
	</g>
	<g>
		<g>
			<g>
				<path class="st4" d="M121,422h30v30h-30V422z"/>
			</g>
		</g>
	</g>
	<g>
		<g>
			<g>
				<path class="st4" d="M181,422h30v30h-30V422z"/>
			</g>
		</g>
	</g>
	<g>
		<path class="st1" d="M301,422h150v30H301V422z"/>
	</g>
</g>
</svg>
