<?xml version="1.0" encoding="utf-8"?>
<!-- Generator: Adobe Illustrator 24.0.2, SVG Export Plug-In . SVG Version: 6.00 Build 0)  -->
<svg version="1.1" id="Capa_1" xmlns="http://www.w3.org/2000/svg" xmlns:xlink="http://www.w3.org/1999/xlink" x="0px" y="0px"
	 viewBox="0 0 25.9 25.9" style="enable-background:new 0 0 25.9 25.9;" xml:space="preserve">
<style type="text/css">
	.st0{fill:#A7A9AC;}
	.st1{fill:#808285;}
	.st2{fill:#7738EC;}
	.st3{fill:#FFCD00;}
	.st4{fill:#EBBF00;}
	.st5{fill:#CCA400;}
	.st6{fill:#A385FF;}
	.st7{fill:#F1F2F2;}
	.st8{fill:#D80027;}
	.st9{fill:#5EAC24;}
</style>
<g id="Data_backup">
	<path class="st0" d="M3.1,13.3h9.2v1.1H3.1V13.3z"/>
	<path class="st0" d="M3.1,9.1h9.2v1.1H3.1V9.1z"/>
	<path class="st0" d="M3.1,4.9h9.2V6H3.1V4.9z"/>
	<path class="st1" d="M3.1,9.1h9.2v0.4H3.1V9.1z"/>
	<path class="st1" d="M3.1,13.3h9.2v0.4H3.1V13.3z"/>
	<path class="st2" d="M13.1,1.8H2.3c-0.4,0-0.8,0.3-0.8,0.8v1.5c0,0.4,0.3,0.8,0.8,0.8h10.7c0.4,0,0.8-0.3,0.8-0.8V2.6
		C13.8,2.2,13.5,1.8,13.1,1.8z"/>
	<path class="st2" d="M13.1,6H2.3C1.9,6,1.6,6.4,1.6,6.8v1.5c0,0.4,0.3,0.8,0.8,0.8h10.7c0.4,0,0.8-0.3,0.8-0.8V6.8
		C13.8,6.4,13.5,6,13.1,6z"/>
	<path class="st2" d="M13.1,10.3H2.3c-0.4,0-0.8,0.3-0.8,0.8v1.5c0,0.4,0.3,0.8,0.8,0.8h10.7c0.4,0,0.8-0.3,0.8-0.8V11
		C13.8,10.6,13.5,10.3,13.1,10.3z"/>
	<path class="st3" d="M12.8,17.1c-0.2,0-0.4,0.2-0.4,0.4c0,0,0,0.1,0,0.1l1.3,5.8c0.1,0.3,0.4,0.6,0.7,0.6h7.2
		c0.4,0,0.7-0.2,0.7-0.6l1.3-5.8c0-0.2-0.1-0.4-0.3-0.5c0,0-0.1,0-0.1,0H12.8z"/>
	<path class="st4" d="M23.3,17.1h-0.4c0,0,0,0.1,0,0.1L21.6,23c-0.1,0.3-0.4,0.6-0.7,0.6h-7.1c0.1,0.2,0.4,0.4,0.7,0.4h7.2
		c0.4,0,0.7-0.2,0.7-0.6l1.3-5.8C23.7,17.4,23.6,17.2,23.3,17.1C23.3,17.1,23.3,17.1,23.3,17.1z"/>
	<path class="st5" d="M15.4,15.2h-0.8c-0.4,0-0.8,0.3-0.8,0.8v1.1h8.8V16c0-0.4-0.3-0.8-0.8-0.8h-3.4v-0.4c0-0.4-0.3-0.8-0.8-0.8
		h-1.5c-0.4,0-0.8,0.3-0.8,0.8V15.2z"/>
	<path class="st6" d="M20.3,6.8h-5v1.5h4.6c0.2,0,0.4,0.2,0.4,0.4V11h-1.1l1.9,2.7L23,11h-1.1V8.3C21.9,7.5,21.2,6.8,20.3,6.8z"/>
	<path class="st6" d="M5.8,22.9h5.7v-1.5H6.2c-0.2,0-0.4-0.2-0.4-0.4v-2.3h1.1L5,16l-1.9,2.7h1.1v2.7C4.3,22.2,4.9,22.9,5.8,22.9z"
		/>
	<path class="st1" d="M3.1,4.9h9.2v0.4H3.1V4.9z"/>
	<g>
		<path class="st7" d="M2.7,2.6h0.8v1.5H2.7V2.6z"/>
		<path class="st7" d="M4.3,2.6H5v1.5H4.3V2.6z"/>
		<path class="st7" d="M5.8,2.6h0.8v1.5H5.8V2.6z"/>
		<path class="st7" d="M7.3,2.6h0.8v1.5H7.3V2.6z"/>
		<path class="st7" d="M2.7,6.8h0.8v1.5H2.7V6.8z"/>
		<path class="st7" d="M4.3,6.8H5v1.5H4.3V6.8z"/>
		<path class="st7" d="M5.8,6.8h0.8v1.5H5.8V6.8z"/>
		<path class="st7" d="M7.3,6.8h0.8v1.5H7.3V6.8z"/>
		<path class="st7" d="M2.7,11h0.8v1.5H2.7V11z"/>
		<path class="st7" d="M4.3,11H5v1.5H4.3V11z"/>
		<path class="st7" d="M5.8,11h0.8v1.5H5.8V11z"/>
		<path class="st7" d="M7.3,11h0.8v1.5H7.3V11z"/>
	</g>
	<path class="st8" d="M10.4,3h0.8v0.8h-0.8V3z"/>
	<path class="st9" d="M11.9,3h0.8v0.8h-0.8V3z"/>
	<path class="st8" d="M10.4,7.2h0.8V8h-0.8V7.2z"/>
	<path class="st9" d="M11.9,7.2h0.8V8h-0.8V7.2z"/>
	<path class="st8" d="M10.4,11.4h0.8v0.8h-0.8V11.4z"/>
	<path class="st9" d="M11.9,11.4h0.8v0.8h-0.8V11.4z"/>
</g>
</svg>
