<?xml version="1.0" encoding="utf-8"?>
<!-- Generator: Adobe Illustrator 24.0.2, SVG Export Plug-In . SVG Version: 6.00 Build 0)  -->
<svg version="1.1" id="Capa_1" xmlns="http://www.w3.org/2000/svg" xmlns:xlink="http://www.w3.org/1999/xlink" x="0px" y="0px"
	 viewBox="0 0 512 512" style="enable-background:new 0 0 512 512;" xml:space="preserve">
<style type="text/css">
	.st0{fill:#E9EFF4;}
	.st1{fill:#D3DCE2;}
	.st2{fill:#F9AC8A;}
	.st3{fill:#F79B77;}
	.st4{fill:#5B3E3E;}
	.st5{fill:#6D5050;}
</style>
<path class="st0" d="M394.2,0.1C375-0.8,355,9.9,343.9,25.5c-46,57.8-57.2,151-60,192.5c-0.2,3-2.8,5.1-5.8,4.8
	c-8.1-1-16.5-1.6-25-1.6c-6.6,0-13.2,0.3-19.6,1c-2.9,0.3-5.5-1.9-5.6-4.8c-2.8-41.8-14.1-134.3-59.9-191.9
	C157,9.9,137-0.8,117.8,0.1C87.1,1.5,74.1,34.2,75.9,61.2c4.7,70.7,55.1,143.9,82.1,178.4c1.9,2.5,1.2,6-1.4,7.6
	C112.7,273.5,84,317.2,84,366.6C84,446.9,159.8,512,253.2,512s169.2-65.1,169.2-145.4c0-48.1-27.1-90.7-68.9-117.1
	c-2.6-1.6-3.2-5.1-1.3-7.5c26.5-33.5,79-108.4,83.9-180.7C437.9,34.2,424.9,1.5,394.2,0.1z"/>
<path class="st1" d="M352.2,241.9c-1.9,2.4-1.3,5.9,1.3,7.6c41.8,26.5,68.9,69.1,68.9,117.1c0,80.3-75.8,145.4-169.2,145.4
	c-9.4,0-18.7-0.7-27.7-1.9c80.3-11.4,141.6-71.3,141.6-143.5c0-19.8-4.7-39.3-13.5-57c-9-18.1-23-30.8-37.4-44.2
	c-14.9-13.8-10.5-34.7-0.3-49.8c11.9-17.7,23.4-34.7,33.2-53.7c16.2-31.2,29.2-65.3,31.6-100.6c1.3-18.8-4.7-40.5-18.8-52.3
	c9.8-6,21.2-9.4,32.3-8.8c30.7,1.4,43.7,34.2,41.9,61.2C431.2,133.5,378.7,208.4,352.2,241.9z"/>
<path class="st2" d="M352,73.8c5.7-8.4,15.6-14.5,24.9-14.4c14.9,0.2,20.6,17.2,19.2,31.4c-4.1,42.5-37,87.7-48.1,102
	c-2.1,2.7-5.8,3.8-9.1,2.5l-7.4-2.9l-0.3-0.1l-7.4-2.9c-3.2-1.3-5.3-4.5-5-8C320.1,163.5,326.4,107.9,352,73.8z"/>
<path class="st3" d="M396,90.8c-4.1,42.5-37,87.7-48.1,102c-2.1,2.8-5.8,3.8-9.1,2.5l-7.4-2.9l-1.6-0.6
	c11.8-15.3,43.3-59.5,47.4-101.1c1.1-11.2-2.2-24.1-10.8-29.2c3.4-1.5,7-2.3,10.4-2.3C391.7,59.6,397.4,76.6,396,90.8z"/>
<path class="st2" d="M159.7,73.8c-5.7-8.4-15.6-14.5-24.9-14.4c-14.9,0.2-20.6,17.2-19.2,31.4c4.1,42.5,37,87.7,48.1,102
	c2.1,2.7,5.8,3.8,9.1,2.5l7.4-2.9l0.3-0.1l7.4-2.9c3.2-1.3,5.3-4.5,5-8C191.5,163.5,185.3,107.9,159.7,73.8z"/>
<path class="st3" d="M192.9,181.6c0.3,3.5-1.8,6.7-5,8l-7.4,2.9l-0.3,0.1l-2.2,0.9c0-0.3,0-0.6,0-1c-1.4-18.1-7.6-73.6-33.2-107.8
	c-5.7-8.4-15.6-14.5-24.9-14.4c-0.3,0-0.6,0-1,0c3.1-6.3,8.3-10.8,15.9-10.9c9.3-0.1,19.2,5.9,24.9,14.4
	C185.3,107.9,191.5,163.5,192.9,181.6z"/>
<g>
	<circle class="st4" cx="184.2" cy="353" r="16.4"/>
	<circle class="st4" cx="322.3" cy="353" r="16.4"/>
	<path class="st4" d="M281.7,433.7c-6.5,0-11.6-1.7-15-5.2c-5.6-5.6-5.8-14.5-5.8-14.8c0,0,0,0,0,0c0-0.1,0-0.1,0-0.2
		c0-0.1,0-0.2,0-0.2c0-0.2,0-0.3,0-0.5c0-0.1,0-0.2,0-0.3c0-0.1,0-0.3-0.1-0.4c0-0.1-0.1-0.2-0.1-0.3c0-0.1-0.1-0.3-0.1-0.4
		c0-0.1-0.1-0.2-0.1-0.4c0-0.1-0.1-0.2-0.1-0.3c-0.1-0.1-0.1-0.3-0.2-0.4c0-0.1-0.1-0.2-0.1-0.2c-0.1-0.2-0.2-0.3-0.3-0.5
		c0,0-0.1-0.1-0.1-0.1c-0.1-0.2-0.3-0.4-0.4-0.5c0,0,0,0,0,0c-1.4-1.8-3.6-2.9-6-2.9c0,0-0.1,0-0.1,0c-4.2,0.1-7.5,3.4-7.6,7.5
		c0,0,0,0.1,0,0.1c0,0,0,0.1,0,0.2c0,0,0,0,0,0c0,0.1-0.1,9.1-5.8,14.8c-3.4,3.4-8.5,5.2-15,5.2c-4.3,0-7.7,3.5-7.7,7.7
		s3.5,7.7,7.7,7.7c10.9,0,19.7-3.3,26.1-9.8c0.9-0.9,1.7-1.8,2.4-2.7c0.7,0.9,1.5,1.8,2.4,2.7c6.4,6.5,15.2,9.8,26.1,9.8
		c4.3,0,7.7-3.5,7.7-7.7C289.4,437.1,286,433.7,281.7,433.7z"/>
</g>
<path class="st5" d="M255.5,411.9c7.8-1,14.5-8.2,18.7-14.4c2.1-3.2,5.4-7.2,5.2-11.2c-0.2-3.5-4.4-4.4-7.1-4.9
	c-5.5-0.9-11.3-1.5-17-1.5h-4.1c-5.7,0-11.5,0.6-17,1.5c-2.8,0.5-7,1.4-7.1,4.9c-0.2,4,3.1,8.1,5.2,11.2c4,6,9.6,11.2,16.4,13.7
	C251,412,253.3,412.2,255.5,411.9z"/>
<path class="st4" d="M279.4,386.3c0.2,4-3.1,8.1-5.2,11.2c-4.2,6.2-10.9,13.4-18.7,14.4c-2.2,0.3-4.5,0.1-6.8-0.7
	c-0.4-0.1-0.7-0.3-1-0.4c6-2.5,11.2-8.2,14.6-13.3c2.1-3.2,5.4-7.2,5.2-11.2c-0.2-3.5-4.4-4.4-7.1-4.9c-4.3-0.7-8.7-1.2-13.1-1.4
	c1.3-0.1,2.6-0.1,3.9-0.1h4.1c5.7,0,11.5,0.6,17,1.5C275.1,381.9,279.3,382.8,279.4,386.3z"/>
</svg>
