<?xml version="1.0" encoding="utf-8"?>
<!-- Generator: Adobe Illustrator 24.0.2, SVG Export Plug-In . SVG Version: 6.00 Build 0)  -->
<svg version="1.1" id="Layer_1" xmlns="http://www.w3.org/2000/svg" xmlns:xlink="http://www.w3.org/1999/xlink" x="0px" y="0px"
	 viewBox="0 0 512 512" style="enable-background:new 0 0 512 512;" xml:space="preserve">
<style type="text/css">
	.st0{fill:#D2DCF0;}
	.st1{fill:#FFFFFF;}
	.st2{fill:#FF6469;}
	.st3{fill:#FFE169;}
	.st4{fill:#87E1AA;}
	.st5{fill:#E4EAF6;}
	.st6{fill:#8341FF;}
	.st7{fill:#AEAEFF;}
	.st8{fill:#DEE3ED;}
	.st9{fill:#FF7BC7;}
	.st10{fill:#C0DAFF;}
	.st11{fill:#91E6BE;}
	.st12{fill:#E9F9FF;}
	.st13{fill:#F3DC17;}
	.st14{fill:#D5F1FE;}
	.st15{fill:#E24E9B;}
	.st16{fill:#94D544;}
</style>
<path class="st0" d="M485.5,61.8h-459C11.9,61.8,0,73.7,0,88.3v335.4c0,14.6,11.9,26.5,26.5,26.5h459c14.6,0,26.5-11.9,26.5-26.5
	V88.3C512,73.7,500.1,61.8,485.5,61.8z M441.4,79.4h8.8c4.9,0,8.8,4,8.8,8.8s-4,8.8-8.8,8.8h-8.8c-4.9,0-8.8-4-8.8-8.8
	C432.6,83.4,436.5,79.4,441.4,79.4z M194.2,79.4h211.9c4.9,0,8.8,4,8.8,8.8s-4,8.8-8.8,8.8H194.2c-4.9,0-8.8-4-8.8-8.8
	S189.3,79.4,194.2,79.4z M150.1,79.4h8.8c4.9,0,8.8,4,8.8,8.8s-4,8.8-8.8,8.8h-8.8c-4.9,0-8.8-4-8.8-8.8S145.2,79.4,150.1,79.4z
	 M114.8,79.4h8.8c4.9,0,8.8,4,8.8,8.8s-4,8.8-8.8,8.8h-8.8c-4.9,0-8.8-4-8.8-8.8S109.9,79.4,114.8,79.4z M79.4,79.4
	c4.9,0,8.8,4,8.8,8.8s-4,8.8-8.8,8.8s-8.8-4-8.8-8.8C70.6,83.4,74.6,79.4,79.4,79.4z M53,79.4c4.9,0,8.8,4,8.8,8.8s-4,8.8-8.8,8.8
	s-8.8-4-8.8-8.8S48.1,79.4,53,79.4z M26.5,79.4c4.9,0,8.8,4,8.8,8.8s-4,8.8-8.8,8.8s-8.8-4-8.8-8.8C17.7,83.4,21.6,79.4,26.5,79.4z
	 M494.3,167.7v256c0,4.9-4,8.8-8.8,8.8H256H26.5c-4.9,0-8.8-4-8.8-8.8v-256v-44.1c0-4.9,4-8.8,8.8-8.8H256h229.5
	c4.9,0,8.8,4,8.8,8.8V167.7z M485.5,97.1h-8.8c-4.9,0-8.8-4-8.8-8.8s4-8.8,8.8-8.8h8.8c4.9,0,8.8,4,8.8,8.8
	C494.3,93.2,490.4,97.1,485.5,97.1z"/>
<path class="st1" d="M256,432.6h229.5c4.9,0,8.8-4,8.8-8.8v-256H256V432.6z M388.4,211.9V203c0-4.9,4-8.8,8.8-8.8H459
	c4.9,0,8.8,4,8.8,8.8v8.8v70.6c0,4.9-4,8.8-8.8,8.8h-61.8c-4.9,0-8.8-4-8.8-8.8V211.9z M282.5,211.9V203c0-4.9,4-8.8,8.8-8.8h61.8
	c4.9,0,8.8,4,8.8,8.8v8.8v70.6c0,4.9-4,8.8-8.8,8.8h-61.8c-4.9,0-8.8-4-8.8-8.8L282.5,211.9L282.5,211.9z M291.3,317.8h8.8H459
	c4.9,0,8.8,4,8.8,8.8v70.6c0,4.9-4,8.8-8.8,8.8H300.1h-8.8c-4.9,0-8.8-4-8.8-8.8v-70.6C282.5,321.7,286.4,317.8,291.3,317.8z"/>
<circle class="st2" cx="26.5" cy="88.3" r="8.8"/>
<circle class="st3" cx="53" cy="88.3" r="8.8"/>
<circle class="st4" cx="79.4" cy="88.3" r="8.8"/>
<g>
	<path class="st5" d="M114.8,97.1h8.8c4.9,0,8.8-4,8.8-8.8s-4-8.8-8.8-8.8h-8.8c-4.9,0-8.8,4-8.8,8.8
		C105.9,93.2,109.9,97.1,114.8,97.1z"/>
	<path class="st5" d="M150.1,97.1h8.8c4.9,0,8.8-4,8.8-8.8s-4-8.8-8.8-8.8h-8.8c-4.9,0-8.8,4-8.8,8.8
		C141.2,93.2,145.2,97.1,150.1,97.1z"/>
	<path class="st5" d="M441.4,97.1h8.8c4.9,0,8.8-4,8.8-8.8s-4-8.8-8.8-8.8h-8.8c-4.9,0-8.8,4-8.8,8.8
		C432.6,93.2,436.5,97.1,441.4,97.1z"/>
	<path class="st5" d="M485.5,79.4h-8.8c-4.9,0-8.8,4-8.8,8.8s4,8.8,8.8,8.8h8.8c4.9,0,8.8-4,8.8-8.8S490.4,79.4,485.5,79.4z"/>
	<path class="st5" d="M194.2,97.1h211.9c4.9,0,8.8-4,8.8-8.8s-4-8.8-8.8-8.8H194.2c-4.9,0-8.8,4-8.8,8.8
		C185.4,93.2,189.3,97.1,194.2,97.1z"/>
</g>
<path class="st6" d="M485.5,114.8H256v53h238.3v-44.1C494.3,118.7,490.4,114.8,485.5,114.8z M317.8,150.1h-35.3
	c-4.9,0-8.8-4-8.8-8.8s4-8.8,8.8-8.8h35.3c4.9,0,8.8,4,8.8,8.8S322.7,150.1,317.8,150.1z M388.4,150.1h-35.3c-4.9,0-8.8-4-8.8-8.8
	s4-8.8,8.8-8.8h35.3c4.9,0,8.8,4,8.8,8.8S393.3,150.1,388.4,150.1z M459,150.1h-35.3c-4.9,0-8.8-4-8.8-8.8s4-8.8,8.8-8.8H459
	c4.9,0,8.8,4,8.8,8.8S463.9,150.1,459,150.1z"/>
<g>
	<path class="st7" d="M317.8,132.4h-35.3c-4.9,0-8.8,4-8.8,8.8s4,8.8,8.8,8.8h35.3c4.9,0,8.8-4,8.8-8.8S322.7,132.4,317.8,132.4z"/>
	<path class="st7" d="M388.4,132.4h-35.3c-4.9,0-8.8,4-8.8,8.8s4,8.8,8.8,8.8h35.3c4.9,0,8.8-4,8.8-8.8S393.3,132.4,388.4,132.4z"/>
	<path class="st7" d="M459,132.4h-35.3c-4.9,0-8.8,4-8.8,8.8s4,8.8,8.8,8.8H459c4.9,0,8.8-4,8.8-8.8S463.9,132.4,459,132.4z"/>
</g>
<g>
	<path class="st8" d="M291.3,291.3h61.8c4.9,0,8.8-4,8.8-8.8v-70.6c0,4.9-4,8.8-8.8,8.8h-61.8c-4.9,0-8.8-4-8.8-8.8v70.6
		C282.5,287.4,286.4,291.3,291.3,291.3z"/>
	<path class="st8" d="M397.2,291.3H459c4.9,0,8.8-4,8.8-8.8v-70.6c0,4.9-4,8.8-8.8,8.8h-61.8c-4.9,0-8.8-4-8.8-8.8v70.6
		C388.4,287.4,392.4,291.3,397.2,291.3z"/>
</g>
<path class="st9" d="M291.3,220.7h61.8c4.9,0,8.8-4,8.8-8.8V203c0-4.9-4-8.8-8.8-8.8h-61.8c-4.9,0-8.8,4-8.8,8.8v8.8
	C282.5,216.7,286.4,220.7,291.3,220.7z"/>
<path class="st10" d="M397.2,220.7H459c4.9,0,8.8-4,8.8-8.8V203c0-4.9-4-8.8-8.8-8.8h-61.8c-4.9,0-8.8,4-8.8,8.8v8.8
	C388.4,216.7,392.4,220.7,397.2,220.7z"/>
<path class="st8" d="M309,326.6v70.6c0,4.9-4,8.8-8.8,8.8H459c4.9,0,8.8-4,8.8-8.8v-70.6c0-4.9-4-8.8-8.8-8.8H300.1
	C305,317.8,309,321.7,309,326.6z"/>
<path class="st11" d="M291.3,406.1h8.8c4.9,0,8.8-4,8.8-8.8v-70.6c0-4.9-4-8.8-8.8-8.8h-8.8c-4.9,0-8.8,4-8.8,8.8v70.6
	C282.5,402.1,286.4,406.1,291.3,406.1z"/>
<path class="st12" d="M256,114.8H26.5c-4.9,0-8.8,4-8.8,8.8v44.1v256c0,4.9,4,8.8,8.8,8.8H256V167.7V114.8z M88.3,141.2h141.2
	c4.9,0,8.8,4,8.8,8.8s-4,8.8-8.8,8.8H88.3c-4.9,0-8.8-4-8.8-8.8S83.4,141.2,88.3,141.2z M44.1,141.2H53c4.9,0,8.8,4,8.8,8.8
	s-4,8.8-8.8,8.8h-8.8c-4.9,0-8.8-4-8.8-8.8S39.3,141.2,44.1,141.2z M132.4,194.2h-26.5c-4.9,0-8.8-4-8.8-8.8s4-8.8,8.8-8.8h26.5
	c4.9,0,8.8,4,8.8,8.8C141.2,190.3,137.3,194.2,132.4,194.2z M141.2,220.7c0,4.9-4,8.8-8.8,8.8h-26.5c-4.9,0-8.8-4-8.8-8.8
	s4-8.8,8.8-8.8h26.5C137.3,211.9,141.2,215.8,141.2,220.7z M44.1,282.5H53c4.9,0,8.8,4,8.8,8.8s-4,8.8-8.8,8.8h-8.8
	c-4.9,0-8.8-4-8.8-8.8S39.3,282.5,44.1,282.5z M35.3,256c0-4.9,4-8.8,8.8-8.8H53c4.9,0,8.8,4,8.8,8.8s-4,8.8-8.8,8.8h-8.8
	C39.3,264.8,35.3,260.9,35.3,256z M61.8,317.8h8.8c4.9,0,8.8,4,8.8,8.8s-4,8.8-8.8,8.8h-8.8c-4.9,0-8.8-4-8.8-8.8
	S56.9,317.8,61.8,317.8z M70.6,229.5h-8.8c-4.9,0-8.8-4-8.8-8.8s4-8.8,8.8-8.8h8.8c4.9,0,8.8,4,8.8,8.8S75.5,229.5,70.6,229.5z
	 M70.6,194.2h-8.8c-4.9,0-8.8-4-8.8-8.8s4-8.8,8.8-8.8h8.8c4.9,0,8.8,4,8.8,8.8C79.4,190.3,75.5,194.2,70.6,194.2z M53,406.1h-8.8
	c-4.9,0-8.8-4-8.8-8.8s4-8.8,8.8-8.8H53c4.9,0,8.8,4,8.8,8.8C61.8,402.1,57.8,406.1,53,406.1z M70.6,370.8h-8.8
	c-4.9,0-8.8-4-8.8-8.8s4-8.8,8.8-8.8h8.8c4.9,0,8.8,4,8.8,8.8S75.5,370.8,70.6,370.8z M229.5,406.1H88.3c-4.9,0-8.8-4-8.8-8.8
	s4-8.8,8.8-8.8h141.2c4.9,0,8.8,4,8.8,8.8S234.4,406.1,229.5,406.1z M105.9,353.1h26.5c4.9,0,8.8,4,8.8,8.8s-4,8.8-8.8,8.8h-26.5
	c-4.9,0-8.8-4-8.8-8.8S101.1,353.1,105.9,353.1z M97.1,326.6c0-4.9,4-8.8,8.8-8.8h26.5c4.9,0,8.8,4,8.8,8.8s-4,8.8-8.8,8.8h-26.5
	C101.1,335.4,97.1,331.5,97.1,326.6z M229.5,370.8h-61.8c-4.9,0-8.8-4-8.8-8.8s4-8.8,8.8-8.8h61.8c4.9,0,8.8,4,8.8,8.8
	S234.4,370.8,229.5,370.8z M229.5,335.4h-61.8c-4.9,0-8.8-4-8.8-8.8s4-8.8,8.8-8.8h61.8c4.9,0,8.8,4,8.8,8.8
	S234.4,335.4,229.5,335.4z M229.5,300.1H88.3c-4.9,0-8.8-4-8.8-8.8s4-8.8,8.8-8.8h141.2c4.9,0,8.8,4,8.8,8.8
	S234.4,300.1,229.5,300.1z M229.5,264.8H88.3c-4.9,0-8.8-4-8.8-8.8s4-8.8,8.8-8.8h141.2c4.9,0,8.8,4,8.8,8.8
	S234.4,264.8,229.5,264.8z M229.5,229.5h-61.8c-4.9,0-8.8-4-8.8-8.8s4-8.8,8.8-8.8h61.8c4.9,0,8.8,4,8.8,8.8
	S234.4,229.5,229.5,229.5z M229.5,194.2h-61.8c-4.9,0-8.8-4-8.8-8.8s4-8.8,8.8-8.8h61.8c4.9,0,8.8,4,8.8,8.8
	S234.4,194.2,229.5,194.2z"/>
<path class="st13" d="M88.3,158.9h141.2c4.9,0,8.8-4,8.8-8.8s-4-8.8-8.8-8.8H88.3c-4.9,0-8.8,4-8.8,8.8S83.4,158.9,88.3,158.9z"/>
<g>
	<path class="st14" d="M132.4,176.6h-26.5c-4.9,0-8.8,4-8.8,8.8s4,8.8,8.8,8.8h26.5c4.9,0,8.8-4,8.8-8.8
		C141.2,180.5,137.3,176.6,132.4,176.6z"/>
	<path class="st14" d="M132.4,211.9h-26.5c-4.9,0-8.8,4-8.8,8.8s4,8.8,8.8,8.8h26.5c4.9,0,8.8-4,8.8-8.8S137.3,211.9,132.4,211.9z"
		/>
</g>
<path class="st13" d="M229.5,247.2H88.3c-4.9,0-8.8,4-8.8,8.8s4,8.8,8.8,8.8h141.2c4.9,0,8.8-4,8.8-8.8S234.4,247.2,229.5,247.2z"/>
<g>
	<path class="st15" d="M229.5,282.5H88.3c-4.9,0-8.8,4-8.8,8.8s4,8.8,8.8,8.8h141.2c4.9,0,8.8-4,8.8-8.8S234.4,282.5,229.5,282.5z"
		/>
	<path class="st15" d="M229.5,176.6h-61.8c-4.9,0-8.8,4-8.8,8.8s4,8.8,8.8,8.8h61.8c4.9,0,8.8-4,8.8-8.8
		C238.3,180.5,234.4,176.6,229.5,176.6z"/>
	<path class="st15" d="M229.5,211.9h-61.8c-4.9,0-8.8,4-8.8,8.8s4,8.8,8.8,8.8h61.8c4.9,0,8.8-4,8.8-8.8S234.4,211.9,229.5,211.9z"
		/>
	<path class="st15" d="M229.5,317.8h-61.8c-4.9,0-8.8,4-8.8,8.8s4,8.8,8.8,8.8h61.8c4.9,0,8.8-4,8.8-8.8S234.4,317.8,229.5,317.8z"
		/>
	<path class="st15" d="M229.5,353.1h-61.8c-4.9,0-8.8,4-8.8,8.8s4,8.8,8.8,8.8h61.8c4.9,0,8.8-4,8.8-8.8S234.4,353.1,229.5,353.1z"
		/>
</g>
<g>
	<path class="st6" d="M105.9,335.4h26.5c4.9,0,8.8-4,8.8-8.8s-4-8.8-8.8-8.8h-26.5c-4.9,0-8.8,4-8.8,8.8S101.1,335.4,105.9,335.4z"
		/>
	<path class="st6" d="M105.9,370.8h26.5c4.9,0,8.8-4,8.8-8.8s-4-8.8-8.8-8.8h-26.5c-4.9,0-8.8,4-8.8,8.8S101.1,370.8,105.9,370.8z"
		/>
</g>
<path class="st13" d="M229.5,388.4H88.3c-4.9,0-8.8,4-8.8,8.8s4,8.8,8.8,8.8h141.2c4.9,0,8.8-4,8.8-8.8
	C238.3,392.4,234.4,388.4,229.5,388.4z"/>
<g>
	<path class="st16" d="M44.1,158.9H53c4.9,0,8.8-4,8.8-8.8s-4-8.8-8.8-8.8h-8.8c-4.9,0-8.8,4-8.8,8.8S39.3,158.9,44.1,158.9z"/>
	<path class="st16" d="M70.6,176.6h-8.8c-4.9,0-8.8,4-8.8,8.8s4,8.8,8.8,8.8h8.8c4.9,0,8.8-4,8.8-8.8
		C79.4,180.5,75.5,176.6,70.6,176.6z"/>
	<path class="st16" d="M70.6,211.9h-8.8c-4.9,0-8.8,4-8.8,8.8s4,8.8,8.8,8.8h8.8c4.9,0,8.8-4,8.8-8.8S75.5,211.9,70.6,211.9z"/>
	<path class="st16" d="M44.1,264.8H53c4.9,0,8.8-4,8.8-8.8s-4-8.8-8.8-8.8h-8.8c-4.9,0-8.8,4-8.8,8.8S39.3,264.8,44.1,264.8z"/>
	<path class="st16" d="M44.1,300.1H53c4.9,0,8.8-4,8.8-8.8s-4-8.8-8.8-8.8h-8.8c-4.9,0-8.8,4-8.8,8.8S39.3,300.1,44.1,300.1z"/>
	<path class="st16" d="M61.8,335.4h8.8c4.9,0,8.8-4,8.8-8.8s-4-8.8-8.8-8.8h-8.8c-4.9,0-8.8,4-8.8,8.8S56.9,335.4,61.8,335.4z"/>
	<path class="st16" d="M70.6,353.1h-8.8c-4.9,0-8.8,4-8.8,8.8s4,8.8,8.8,8.8h8.8c4.9,0,8.8-4,8.8-8.8S75.5,353.1,70.6,353.1z"/>
	<path class="st16" d="M53,388.4h-8.8c-4.9,0-8.8,4-8.8,8.8s4,8.8,8.8,8.8H53c4.9,0,8.8-4,8.8-8.8C61.8,392.4,57.8,388.4,53,388.4z"
		/>
</g>
</svg>
