<?xml version="1.0" encoding="utf-8"?>
<!-- Generator: Adobe Illustrator 24.0.2, SVG Export Plug-In . SVG Version: 6.00 Build 0)  -->
<svg version="1.1" id="Layer_1" xmlns="http://www.w3.org/2000/svg" xmlns:xlink="http://www.w3.org/1999/xlink" x="0px" y="0px"
	 viewBox="0 0 263.2 149.8" style="enable-background:new 0 0 263.2 149.8;" xml:space="preserve">
<style type="text/css">
	.st0{fill:#FFFFFF;}
	.st1{fill:#E24E9B;}
	.st2{fill:#F49D43;}
	.st3{fill:#F3DC17;}
	.st4{fill:#94D544;}
	.st5{fill:#2666D2;}
	.st6{fill:#8341FF;}
</style>
<g>
	<path class="st0" d="M153.1,146.8c-28,0-54.5-7.1-74.5-20C57.6,113.3,46,94.9,46,75.2s11.6-38.1,32.6-51.6c20-12.9,46.4-20,74.5-20
		s54.5,7.1,74.5,20c21,13.5,32.6,31.9,32.6,51.6s-11.6,38.1-32.6,51.6C207.5,139.7,181.1,146.8,153.1,146.8z M153.1,18.8
		c-25.1,0-48.7,6.2-66.2,17.5C70.3,46.9,61.2,60.8,61.2,75.2s9.1,28.2,25.7,38.9c17.6,11.3,41.1,17.5,66.2,17.5s48.7-6.2,66.2-17.5
		c16.5-10.6,25.7-24.5,25.7-38.9s-9.1-28.2-25.7-38.9C201.7,25,178.2,18.8,153.1,18.8z"/>
</g>
<g>
	<path class="st1" d="M171.7,43.5c-11,1.8-18.4,11.8-16.7,22.5c0,0.2,0.1,0.4,0.1,0.6c3.5-3.2,8.2-5.5,13.6-6.4
		c10.6-1.7,20.4,2.7,24.5,10.3c1.5-3.3,2.1-7.1,1.5-11C192.9,49,182.6,41.8,171.7,43.5z"/>
	<path class="st2" d="M134.8,46.6c-2.9,10.7,3.3,21.7,13.7,24.5c0.2,0.1,0.4,0.1,0.6,0.1c-1.5-4.5-1.6-9.7-0.2-15
		c2.8-10.3,10.9-17.5,19.5-18.1c-2.4-2.7-5.6-4.8-9.4-5.8C148.5,29.5,137.7,35.9,134.8,46.6z"/>
	<path class="st3" d="M119.5,77.4c7.7,8,20.3,8.3,28,0.8c0.1-0.1,0.3-0.3,0.4-0.4c-4.6-1.1-9.2-3.6-13-7.5c-7.4-7.7-9.5-18.3-5.6-26
		c-3.6,0.7-7,2.4-9.8,5.1C111.8,56.9,111.8,69.5,119.5,77.4z"/>
	<path class="st4" d="M134.9,106.5c10.9-1.9,18.3-12,16.5-22.7c0-0.2-0.1-0.4-0.1-0.6c-3.5,3.2-8.1,5.6-13.5,6.5
		c-10.5,1.8-20.4-2.5-24.6-10.1c-1.5,3.4-2,7.1-1.4,11C113.6,101.3,124,108.4,134.9,106.5z"/>
	<path class="st5" d="M172.1,100.7c1.7-11-5.5-21.2-16.2-22.9c-0.2,0-0.4-0.1-0.6-0.1c1.9,4.3,2.7,9.5,1.8,14.9
		c-1.7,10.6-8.9,18.6-17.4,20.1c2.7,2.5,6.1,4.2,10,4.8C160.4,119.1,170.4,111.6,172.1,100.7z"/>
	<path class="st6" d="M187,72.4c-7.7-8-20.3-8.3-28-0.8c-0.1,0.1-0.3,0.3-0.4,0.4c4.6,1.1,9.2,3.6,13,7.5c7.4,7.7,9.4,18.3,5.6,26
		c3.6-0.7,7-2.4,9.8-5.1C194.7,92.9,194.8,80.4,187,72.4z"/>
</g>
<path class="st0" d="M17.7,146.8L17.7,146.8c-7.8,0-14.2-6.4-14.2-14.2V18.9c0-7.8,6.4-14.2,14.2-14.2h0c7.8,0,14.2,6.4,14.2,14.2
	v113.6C31.9,140.4,25.5,146.8,17.7,146.8z"/>
</svg>
