<?xml version="1.0" encoding="utf-8"?>
<!-- Generator: Adobe Illustrator 24.0.2, SVG Export Plug-In . SVG Version: 6.00 Build 0)  -->
<svg version="1.1" id="Layer_1" xmlns="http://www.w3.org/2000/svg" xmlns:xlink="http://www.w3.org/1999/xlink" x="0px" y="0px"
	 viewBox="0 0 30 30" style="enable-background:new 0 0 30 30;" xml:space="preserve">
<style type="text/css">
	.st0{fill:#7738EC;}
	.st1{fill:#E53935;}
	.st2{fill:#F1F2F2;}
</style>
<circle class="st0" cx="15.2" cy="14.8" r="14.1"/>
<path class="st1" d="M26.4,1.9c-0.7,0-1.3,0.2-1.8,0.6c-0.5-0.4-1.1-0.6-1.8-0.6c-1.6,0-2.9,1.2-2.9,2.7c0,2.4,3.5,4.9,4.2,5.4
	c0.2,0.1,0.3,0.2,0.5,0.2s0.4-0.1,0.5-0.2c0.7-0.5,4.2-3.1,4.2-5.4C29.3,3.1,28,1.9,26.4,1.9z"/>
<path class="st1" d="M7.6,20.7c-0.7,0-1.3,0.2-1.8,0.6c-0.5-0.4-1.1-0.6-1.8-0.6c-1.6,0-2.9,1.2-2.9,2.7c0,2.4,3.5,4.9,4.2,5.4
	C5.4,29,5.6,29,5.7,29c0.2,0,0.4-0.1,0.5-0.2c0.7-0.5,4.2-3.1,4.2-5.4C10.5,21.9,9.2,20.7,7.6,20.7L7.6,20.7z"/>
<g>
	<path class="st2" d="M11.9,14c-0.5,0-0.9-0.4-0.9-0.9c0-0.6-0.5-1.2-1.2-1.2s-1.2,0.5-1.2,1.2c0,0.5-0.4,0.9-0.9,0.9
		s-0.9-0.4-0.9-0.9c0-1.6,1.3-2.9,2.9-2.9s2.9,1.3,2.9,2.9C12.8,13.6,12.4,14,11.9,14z"/>
	<path class="st2" d="M22.5,14c-0.5,0-0.9-0.4-0.9-0.9c0-0.6-0.5-1.2-1.2-1.2s-1.2,0.5-1.2,1.2c0,0.5-0.4,0.9-0.9,0.9
		c-0.5,0-0.9-0.4-0.9-0.9c0-1.6,1.3-2.9,2.9-2.9c1.6,0,2.9,1.3,2.9,2.9C23.4,13.6,23,14,22.5,14z"/>
	<path class="st2" d="M15.2,21.9c-2.6,0-5-1-6.8-2.8c-0.3-0.3-0.3-0.9,0-1.2s0.9-0.3,1.2,0c1.5,1.5,3.5,2.3,5.6,2.3s4.1-0.8,5.6-2.3
		c0.3-0.3,0.9-0.3,1.2,0s0.3,0.9,0,1.2C20.1,20.9,17.7,21.9,15.2,21.9z"/>
</g>
</svg>
