<?xml version="1.0" encoding="utf-8"?>
<!-- Generator: Adobe Illustrator 24.0.2, SVG Export Plug-In . SVG Version: 6.00 Build 0)  -->
<svg version="1.1" id="Layer_1" xmlns="http://www.w3.org/2000/svg" xmlns:xlink="http://www.w3.org/1999/xlink" x="0px" y="0px"
	 viewBox="0 0 512 512" style="enable-background:new 0 0 512 512;" xml:space="preserve">
<style type="text/css">
	.st0{fill:#FF507D;}
	.st1{fill:#D23C69;}
	.st2{fill:#FFC850;}
	.st3{fill:#E1A546;}
	.st4{fill:#FFDC64;}
	.st5{fill:#FFFFFF;}
	.st6{fill:#FFFAB4;}
</style>
<path class="st0" d="M154.5,315.1L84.7,470.5c-2.4,5.4,2,11.3,7.8,10.6l39.1-4.7l22.5,32.3c3.4,4.8,10.7,4.1,13.1-1.2l70.6-157.4
	L154.5,315.1z"/>
<path class="st1" d="M357.5,315.1l69.8,155.5c2.4,5.4-2,11.3-7.8,10.6l-39.1-4.7l-22.5,32.3c-3.4,4.8-10.7,4.1-13.1-1.2l-70.6-157.4
	L357.5,315.1z"/>
<path class="st0" d="M427.3,470.5l-49.1-109.4l-1.6-3.6c0,0-9.7,3.6-17.1,17.2c-3.5,6.5-9,11.3-12.6,14c-2.1,1.6-2.9,4.4-1.8,6.9
	l36.3,81l38.1,4.6C425.3,481.8,429.7,475.9,427.3,470.5z"/>
<path class="st1" d="M154.5,315.1L84.7,470.5c-2.4,5.4,2,11.3,7.8,10.6l38.1-4.6l35.2-78.5c1.9-4.2,6.6-5.9,10.9-4.4
	c3.9,1.3,8,2,12.2,2c2,0,4-0.2,6-0.5l21.1-3.3c0.1,0,0.1,0,0.2,0c0.6,0,1,0.1,1.3,0.3l1.1,0.6l19.2-42.7L154.5,315.1z"/>
<path class="st2" d="M448.5,206.1l-11.2,18.3c-2.5,4.1-3.5,9-2.7,13.8l3.3,21.1c1.2,7.6-2,15.2-8.2,19.7l-17.3,12.6
	c-3.9,2.8-6.7,7-7.8,11.7l-5,20.8c-1.8,7.4-7.6,13.2-15,15l-20.8,5c-4.7,1.1-8.9,3.9-11.7,7.8l-12.6,17.3
	c-4.5,6.2-12.1,9.3-19.7,8.2l-21.1-3.3c-4.8-0.8-9.7,0.2-13.8,2.7L266.6,388c-6.5,4-14.7,4-21.2,0l-18.3-11.2
	c-4.1-2.5-9-3.5-13.8-2.7l-21.1,3.3c-7.6,1.2-15.2-2-19.7-8.2l-12.6-17.3c-2.8-3.9-7-6.7-11.7-7.8l-20.8-5c-7.4-1.8-13.2-7.6-15-15
	l-5-20.8c-1.1-4.7-3.9-8.9-7.8-11.7L82.2,279c-6.2-4.5-9.3-12.1-8.2-19.7l3.3-21.1c0.8-4.8-0.2-9.7-2.7-13.8l-11.2-18.3
	c-4-6.5-4-14.7,0-21.2l11.2-18.3c2.5-4.1,3.5-9,2.7-13.8l-3.3-21.1c-1.2-7.6,2-15.2,8.2-19.7l17.3-12.6c3.9-2.8,6.7-7,7.8-11.7
	l5-20.8c1.8-7.4,7.6-13.2,15-15l20.8-5c4.7-1.1,8.9-3.9,11.7-7.8l12.6-17.3c4.5-6.2,12.1-9.3,19.7-8.2l21.1,3.3
	c4.8,0.8,9.7-0.2,13.8-2.7L245.4,3c6.5-4,14.7-4,21.2,0l18.3,11.2c4.1,2.5,9,3.5,13.8,2.7l21.1-3.3c7.6-1.2,15.2,2,19.7,8.2
	L352.1,39c2.8,3.9,7,6.7,11.7,7.8l20.8,5c7.4,1.8,13.2,7.6,15,15l5,20.8c1.1,4.7,3.9,8.9,7.8,11.7l17.3,12.6
	c6.2,4.5,9.3,12.1,8.2,19.7l-3.3,21.1c-0.8,4.8,0.2,9.7,2.7,13.8l11.2,18.3C452.5,191.4,452.5,199.6,448.5,206.1z"/>
<path class="st3" d="M138.4,154.8c0-54.2,20.3-103.7,53.8-141.2l0,0c-7.6-1.2-15.2,2-19.7,8.2L159.9,39c-2.8,3.9-7,6.7-11.7,7.8
	l-20.8,5c-7.4,1.8-13.2,7.6-15,15l-5,20.8c-1.1,4.7-3.9,8.9-7.8,11.7L82.2,112c-6.2,4.5-9.3,12.1-8.2,19.7l3.3,21.1
	c0.8,4.8-0.2,9.7-2.7,13.8l-11.2,18.3c-4,6.5-4,14.7,0,21.2l11.2,18.3c2.5,4.1,3.5,9,2.7,13.8l-3.3,21.1c-1.2,7.6,2,15.2,8.2,19.7
	l17.3,12.6c3.9,2.8,6.7,7,7.8,11.7l5,20.8c1.8,7.4,7.6,13.2,15,15l20.8,5c4.7,1.1,8.9,3.9,11.7,7.8l12.6,17.3
	c4.5,6.2,12.1,9.3,19.7,8.2l21.1-3.3c4.8-0.8,9.7,0.2,13.8,2.7l18.3,11.2c6.5,4,14.7,4,21.2,0l18.3-11.2c4.1-2.5,9-3.5,13.8-2.7
	l21.1,3.3c7.6,1.2,15.2-2,19.7-8.2l1.6-2.2C228.3,361.9,138.4,268.8,138.4,154.8z"/>
<circle class="st4" cx="256" cy="195.5" r="144.7"/>
<path class="st2" d="M289.8,266.2c-53.3-8.5-96-51.2-104.5-104.5c-3-18.8-1.8-36.9,2.8-53.6c2.3-8.2-7.6-14.6-14.1-9
	c-30.4,25.8-48.4,65.7-43.9,109.6c6,58.9,53.8,106.8,112.7,112.7c43.9,4.5,83.8-13.6,109.6-43.9c5.5-6.5-0.8-16.3-9-14.1
	C326.6,268,308.5,269.2,289.8,266.2z"/>
<path class="st5" d="M256,256.3l-52.6,29.5c-5.5,3.1-12-1.7-10.8-7.9l11.8-59.2l-44.3-41c-4.6-4.3-2.1-12,4.1-12.7l59.9-7.1
	l25.3-54.8c2.6-5.7,10.7-5.7,13.4,0l25.3,54.8l59.9,7.1c6.2,0.7,8.7,8.4,4.1,12.7l-44.3,41l11.8,59.2c1.2,6.2-5.3,10.9-10.8,7.9
	L256,256.3z"/>
<g>
	<path class="st6" d="M255.9,99c-2.6,0-5.3,1.4-6.5,4.2L224.1,158l-59.9,7.1c-6.2,0.7-8.7,8.4-4.1,12.7l44.3,41l-11.8,59.2
		c-1.2,6.2,5.3,10.9,10.8,7.9l8.3-4.7l14.1-64.6c0.6-2.9-0.1-6-2.1-8.3l-15-17.8c-2.5-3-1-7.6,2.8-8.6l23.9-6.1
		c3.6-0.9,6.4-3.9,7.1-7.6L255.9,99z"/>
	<path class="st6" d="M317.1,284.8L288,252.5c-4.8-5.3-12.6-6.7-18.9-3.3l-13.2,7.1l52.6,29.5C311.6,287.5,314.9,286.7,317.1,284.8z
		"/>
</g>
</svg>
