<?xml version="1.0" encoding="utf-8"?>
<!-- Generator: Adobe Illustrator 16.0.0, SVG Export Plug-In . SVG Version: 6.00 Build 0)  -->
<!DOCTYPE svg PUBLIC "-//W3C//DTD SVG 1.1//EN" "http://www.w3.org/Graphics/SVG/1.1/DTD/svg11.dtd">
<svg version="1.1" id="Layer_1" xmlns="http://www.w3.org/2000/svg" xmlns:xlink="http://www.w3.org/1999/xlink" x="0px" y="0px"
	 width="512px" height="512px" viewBox="0 0 512 512" enable-background="new 0 0 512 512" xml:space="preserve">
<g>
	<defs>
		<rect id="SVGID_1_" width="512" height="512"/>
	</defs>
	<clipPath id="SVGID_2_">
		<use xlink:href="#SVGID_1_"  overflow="visible"/>
	</clipPath>
	<path clip-path="url(#SVGID_2_)" fill="#FFFFFF" d="M255.989,0C114.623,0,0,114.623,0,255.989
		c0,141.367,114.623,256.012,255.989,256.012C397.356,512.001,512,397.355,512,255.989C512,114.623,397.356,0,255.989,0
		 M309.28,396.749c-13.177,5.201-23.666,9.145-31.532,11.876c-7.846,2.73-16.97,4.096-27.35,4.096
		c-15.951,0-28.369-3.901-37.211-11.681c-8.842-7.781-13.242-17.642-13.242-29.625c0-4.661,0.326-9.429,0.976-14.283
		c0.672-4.854,1.733-10.315,3.185-16.449l16.493-58.254c1.452-5.592,2.709-10.901,3.706-15.843
		c0.997-4.984,1.473-9.556,1.473-13.717c0-7.412-1.538-12.614-4.594-15.539c-3.099-2.926-8.929-4.356-17.619-4.356
		c-4.248,0-8.626,0.628-13.112,1.95c-4.443,1.366-8.3,2.601-11.464,3.814l4.356-17.944c10.792-4.399,21.13-8.17,30.99-11.291
		c9.861-3.164,19.18-4.725,27.958-4.725c15.842,0,28.064,3.858,36.669,11.487c8.561,7.65,12.873,17.597,12.873,29.82
		c0,2.536-0.304,7-0.889,13.372c-0.585,6.393-1.69,12.223-3.294,17.576l-16.406,58.081c-1.344,4.658-2.535,9.989-3.619,15.949
		c-1.062,5.96-1.582,10.512-1.582,13.566c0,7.716,1.712,12.981,5.18,15.778c3.424,2.796,9.428,4.205,17.924,4.205
		c4.008,0,8.494-0.717,13.565-2.104c5.028-1.386,8.669-2.622,10.966-3.684L309.28,396.749z M306.377,161.001
		c-7.65,7.108-16.861,10.663-27.632,10.663c-10.75,0-20.025-3.555-27.741-10.663c-7.671-7.108-11.55-15.755-11.55-25.854
		c0-10.078,3.901-18.747,11.55-25.92c7.716-7.195,16.991-10.771,27.741-10.771c10.771,0,20.003,3.576,27.632,10.771
		c7.649,7.173,11.485,15.842,11.485,25.92C317.862,145.267,314.026,153.893,306.377,161.001"/>
</g>
</svg>
