<?xml version="1.0" encoding="utf-8"?>
<!-- Generator: Adobe Illustrator 24.0.2, SVG Export Plug-In . SVG Version: 6.00 Build 0)  -->
<svg version="1.1" id="Capa_1" xmlns="http://www.w3.org/2000/svg" xmlns:xlink="http://www.w3.org/1999/xlink" x="0px" y="0px"
	 viewBox="0 0 512 512" style="enable-background:new 0 0 512 512;" xml:space="preserve">
<style type="text/css">
	.st0{fill:#FFFFFF;}
	.st1{fill:#E8E8E8;}
	.st2{fill:#8341FF;}
	.st3{fill:#976CFF;}
	.st4{fill:#AD92FF;}
	.st5{fill:#2666D2;}
</style>
<path class="st0" d="M450.2,512H61.8V0h220.7l167.7,167.7V512z"/>
<path class="st1" d="M282.5,0v167.7h167.7L282.5,0z"/>
<path class="st2" d="M157.9,260.7c-56,29.7-77.2,99.2-47.5,155.2s99.2,77.2,155.2,47.5c21.1-11.2,38.2-28.8,48.9-50.2l-102.6-51.3
	L157.9,260.7z"/>
<path class="st3" d="M321.4,327.7c-18.9-60.5-83.3-94.2-143.8-75.3c-6.8,2.1-13.5,4.9-19.8,8.3l54,101.2L321.4,327.7z"/>
<path class="st4" d="M321.4,327.7l-109.6,34.2l102.6,51.3C327.8,386.7,330.3,356,321.4,327.7L321.4,327.7z"/>
<g>
	<path class="st5" d="M88.3,26.5h141.2v17.7H88.3V26.5z"/>
	<path class="st5" d="M88.3,61.8h141.2v17.7H88.3V61.8z"/>
	<path class="st5" d="M88.3,97.1h141.2v17.7H88.3V97.1z"/>
	<path class="st5" d="M88.3,132.4h79.4v17.7H88.3V132.4z"/>
	<path class="st5" d="M88.3,167.7h79.4v17.7H88.3V167.7z"/>
	<path class="st5" d="M344.3,211.9h79.4v17.7h-79.4V211.9z"/>
	<path class="st5" d="M344.3,247.2h79.4v17.7h-79.4V247.2z"/>
	<path class="st5" d="M397.2,282.5h26.5v17.7h-26.5V282.5z"/>
	<path class="st5" d="M353.1,441.4h70.6V459h-70.6V441.4z"/>
</g>
</svg>
