<?xml version="1.0" encoding="utf-8"?>
<!-- Generator: Adobe Illustrator 24.0.2, SVG Export Plug-In . SVG Version: 6.00 Build 0)  -->
<svg version="1.1" id="Capa_1" xmlns="http://www.w3.org/2000/svg" xmlns:xlink="http://www.w3.org/1999/xlink" x="0px" y="0px"
	 viewBox="0 0 25.9 25.9" style="enable-background:new 0 0 25.9 25.9;" xml:space="preserve">
<style type="text/css">
	.st0{fill:#E24C4B;}
	.st1{fill:#D1403F;}
	.st2{fill:#FFFFFF;}
	.st3{opacity:0.2;}
</style>
<path class="st0" d="M5.1,5.4c-4.6,4.6-4.6,11.8,0,16.3c4.5,4.5,11.8,4.6,16.3,0c4.5-4.5,4.5-11.8,0-16.3C17,0.8,9.6,0.8,5.1,5.4z"
	/>
<path class="st1" d="M19.5,3.8c1.2,1.8,1.8,3.9,1.8,6.2c0,6.4-5.2,11.6-11.6,11.6c-2.3,0-4.4-0.7-6.2-1.8c2,3.2,5.6,5.3,9.8,5.3
	c6.4,0,11.6-5.2,11.6-11.6C24.9,9.4,22.7,5.8,19.5,3.8z"/>
<path class="st2" d="M19.3,13.5c0,0.9-0.7,1.6-1.6,1.6H8.9c-0.9,0-1.6-0.7-1.6-1.6S8,12,8.9,12h8.7C18.6,12,19.3,12.7,19.3,13.5z"/>
<g class="st3">
	<path class="st2" d="M9.2,9.3c-1.2,1.2-2.7,1.6-3.3,0.9C5.3,9.6,5.7,8.1,6.9,7S9.5,5.4,10.2,6C10.8,6.6,10.3,8.1,9.2,9.3z"/>
</g>
</svg>
