<?xml version="1.0" encoding="utf-8"?>
<!-- Generator: Adobe Illustrator 24.0.2, SVG Export Plug-In . SVG Version: 6.00 Build 0)  -->
<svg version="1.1" id="Capa_1" xmlns="http://www.w3.org/2000/svg" xmlns:xlink="http://www.w3.org/1999/xlink" x="0px" y="0px"
	 viewBox="0 0 25.9 25.9" style="enable-background:new 0 0 25.9 25.9;" xml:space="preserve">
<style type="text/css">
	.st0{fill:#7738EC;}
	.st1{fill:#A385FF;}
</style>
<path class="st0" d="M15,2.4c-2.5,0-4.5,2.1-4.5,4.6v3.4H7.5v2.3h3.1V20c0,1.3-1,2.3-2.3,2.3s-2.3-1-2.3-2.3H3.6
	c0,2.5,2.1,4.6,4.6,4.6s4.6-2.1,4.6-4.6v-7.3h3.1v-2.3h-3.1V7c0-1.3,0.9-2.3,2.2-2.3s2.4,1.1,2.4,2.3h2.3C19.7,4.5,17.5,2.4,15,2.4z
	"/>
<path class="st1" d="M20.9,18l-1.6,1.6L17.8,18c-0.4-0.4-1.1-0.4-1.6,0c-0.4,0.4-0.4,1.1,0,1.6l1.6,1.6l-1.6,1.6
	c-0.4,0.4-0.4,1.1,0,1.6c0.4,0.4,1.1,0.4,1.6,0l1.6-1.6l1.6,1.6c0.4,0.4,1.1,0.4,1.6,0s0.4-1.1,0-1.6l-1.6-1.6l1.6-1.6
	c0.4-0.4,0.4-1.1,0-1.6S21.3,17.6,20.9,18z"/>
</svg>
