<?xml version="1.0" encoding="utf-8"?>
<!-- Generator: Adobe Illustrator 24.0.2, SVG Export Plug-In . SVG Version: 6.00 Build 0)  -->
<svg version="1.1" id="Capa_1" xmlns="http://www.w3.org/2000/svg" xmlns:xlink="http://www.w3.org/1999/xlink" x="0px" y="0px"
	 viewBox="0 0 25.9 25.9" style="enable-background:new 0 0 25.9 25.9;" xml:space="preserve">
<style type="text/css">
	.st0{fill:#F1F2F2;}
	.st1{fill:#7738EC;}
</style>
<g id="surface1">
	<path class="st0" d="M13.1,9.4c-2.3,0-4.2,1.9-4.2,4.2c0,2.3,1.9,4.2,4.2,4.2c2.3,0,4.2-1.9,4.2-4.2C17.2,11.2,15.4,9.4,13.1,9.4z
		 M15.5,12.7l-3,3c-0.1,0.1-0.3,0.2-0.5,0.2c-0.2,0-0.3-0.1-0.5-0.2l-1.1-1.1c-0.3-0.3-0.3-0.7,0-0.9c0.3-0.3,0.7-0.3,0.9,0l0.7,0.7
		l2.5-2.5c0.3-0.3,0.7-0.3,0.9,0C15.8,12.1,15.8,12.5,15.5,12.7z"/>
	<path class="st1" d="M22.4,8.5L22.4,8.5c0-0.2,0-0.4,0-0.7c0-1.2-1-2.2-2.2-2.3c-2.5-0.1-4.5-1-6.1-2.6l0,0c-0.5-0.5-1.4-0.5-1.9,0
		l0,0C10.4,4.6,8.5,5.4,6,5.5C4.8,5.6,3.8,6.6,3.8,7.8c0,0.2,0,0.5,0,0.7l0,0c0,2.6-0.1,5.8,1,8.7c0.6,1.6,1.5,3,2.6,4.1
		c1.3,1.3,3.1,2.3,5.2,3.1c0.1,0,0.1,0,0.2,0.1c0.1,0,0.2,0,0.3,0c0.1,0,0.2,0,0.3,0c0.1,0,0.1,0,0.2-0.1c2.1-0.7,3.8-1.8,5.2-3.1
		c1.2-1.1,2.1-2.5,2.6-4.1C22.5,14.3,22.4,11.1,22.4,8.5z M13.1,19c-3,0-5.5-2.4-5.5-5.5s2.4-5.5,5.5-5.5c3,0,5.5,2.4,5.5,5.5
		S16.1,19,13.1,19z"/>
</g>
</svg>
