<?xml version="1.0" encoding="utf-8"?>
<!-- Generator: Adobe Illustrator 24.0.2, SVG Export Plug-In . SVG Version: 6.00 Build 0)  -->
<svg version="1.1" id="Layer_1" xmlns="http://www.w3.org/2000/svg" xmlns:xlink="http://www.w3.org/1999/xlink" x="0px" y="0px"
	 viewBox="0 0 30 30" style="enable-background:new 0 0 30 30;" xml:space="preserve">
<style type="text/css">
	.st0{fill:#FFFFFF;}
	.st1{fill:#7738EC;}
</style>
<circle class="st0" cx="7.7" cy="6.9" r="3.3"/>
<path class="st1" d="M28.8,29.1c0.3,0,0.5-0.1,0.7-0.3c0.2-0.2,0.3-0.4,0.3-0.7l0-4.9c0-0.1-0.1-0.3-0.2-0.4L18.7,12
	c1.2-4-0.4-8.4-4-10.6S6.5-0.2,3.5,2.8c-3,3-3.5,7.6-1.4,11.2s6.5,5.3,10.6,4l1.1,1.1c0.1,0.1,0.2,0.1,0.2,0.1l2.7-0.2
	c0.1,0,0.2,0,0.2,0.1s0.1,0.2,0.1,0.2l-0.2,2.4c0,0.1,0,0.2,0.1,0.2s0.2,0.1,0.2,0.1l2.4-0.2c0.1,0,0.2,0,0.2,0.1
	c0.1,0.1,0.1,0.2,0.1,0.2l-0.2,2.4c0,0.1,0,0.2,0.1,0.2s0.2,0.1,0.2,0.1l2.4-0.2c0.1,0,0.2,0,0.2,0.1c0.1,0.1,0.1,0.2,0.1,0.2
	l-0.2,2.7c0,0.1,0,0.2,0.1,0.2l1,1c0.1,0.1,0.2,0.1,0.3,0.1L28.8,29.1z M5.6,8.4C4.9,7.7,4.7,6.7,5.1,5.7c0.4-0.9,1.3-1.5,2.3-1.5
	s1.9,0.6,2.3,1.5c0.4,0.9,0.2,2-0.5,2.7C8.1,9.4,6.6,9.4,5.6,8.4z"/>
<path class="st1" d="M29.5,28.7L9.1,8.4c0.9-1,0.9-2.5,0-3.4C8.2,4,6.7,4,5.7,4.9L3.5,2.7C3.8,2.5,4,2.3,4.3,2.1
	c3.2-2.5,7.6-2.6,10.9-0.4s4.8,6.4,3.6,10.3l10.9,10.9c0.1,0.1,0.2,0.2,0.2,0.4l0,4.9C29.8,28.3,29.7,28.6,29.5,28.7z"/>
<g>
	<path class="st0" d="M16.8,14c0-0.2,0.1-0.4,0.3-0.5s0.4,0,0.5,0.1l7.8,7.8c0.1,0.1,0.2,0.3,0.1,0.5c0,0.2-0.2,0.3-0.4,0.4
		c-0.2,0-0.4,0-0.5-0.1l-7.8-7.8C16.9,14.3,16.8,14.2,16.8,14z"/>
	<path class="st0" d="M26.3,23.6c0.3,0,0.5-0.2,0.5-0.5c0-0.3-0.2-0.5-0.5-0.5c-0.3,0-0.5,0.2-0.5,0.5C25.8,23.4,26,23.6,26.3,23.6z
		"/>
</g>
</svg>
