<?xml version="1.0" encoding="utf-8"?>
<!-- Generator: Adobe Illustrator 24.0.2, SVG Export Plug-In . SVG Version: 6.00 Build 0)  -->
<svg version="1.1" id="Capa_1" xmlns="http://www.w3.org/2000/svg" xmlns:xlink="http://www.w3.org/1999/xlink" x="0px" y="0px"
	 viewBox="0 0 25.9 25.9" style="enable-background:new 0 0 25.9 25.9;" xml:space="preserve">
<style type="text/css">
	.st0{fill:#09213D;}
	.st1{fill:#7738EC;}
	.st2{fill:#FFB4B3;}
	.st3{fill:#FF9E90;}
	.st4{fill:#A385FF;}
	.st5{fill:#341E2E;}
</style>
<path class="st0" d="M24.5,22.9v-0.7c-0.5-0.9-1.4-1.4-2.4-1.4h-1.4l2.8,4.3h1.1c0.2,0,0.4-0.2,0.4-0.4v-1.1L24.5,22.9z"/>
<path class="st1" d="M23.1,22.9v-0.7c-0.5-0.9-1.4-1.4-2.4-1.4H4.5c-1,0-2,0.6-2.4,1.4v0.7l-0.4,0.7v1.1C1.7,24.9,1.8,25,2,25h21.5
	v-1.4L23.1,22.9z"/>
<path class="st2" d="M7.7,10.5c-0.9,0-1.6,0.7-1.6,1.6c0,0.9,0.7,1.6,1.6,1.6h5.6v-3.3H7.7z"/>
<path class="st3" d="M18.9,10.5h-5.6v3.3h5.6c0.9,0,1.6-0.7,1.6-1.6C20.5,11.2,19.8,10.5,18.9,10.5z"/>
<path class="st0" d="M13.3,19.3c3.1,0,5.6-2.5,5.6-5.6l-5.6-2.8V19.3z"/>
<path class="st1" d="M13.3,19.3c2.3,0,4.2-2.5,4.2-5.6l-4.2-2.8l-5.6,2.8C7.7,16.8,10.2,19.3,13.3,19.3z"/>
<path class="st3" d="M13.3,9.5h5.6v4.2h-5.6V9.5z"/>
<path class="st2" d="M7.7,9.5h9.8v4.2H7.7V9.5z"/>
<path class="st4" d="M23.1,22.2H2c-0.2,0.4-0.4,0.9-0.4,1.4v0.1h21.8v-0.1C23.5,23.1,23.3,22.6,23.1,22.2L23.1,22.2z"/>
<path class="st1" d="M13.3,2v7h5.6V7.7C18.9,4.6,16.4,2,13.3,2z"/>
<path class="st1" d="M13.3,2c-3.1,0-5.6,2.5-5.6,5.6v1.4h9.8V7.7C17.5,4.6,15.6,2,13.3,2z"/>
<path class="st4" d="M13.3,2c-1,0-1.9,2.5-1.9,5.6v1.4h3.7V7.7C15.1,4.6,14.3,2,13.3,2z"/>
<path class="st1" d="M18.9,7.7h-1.4v2.8h1.4c0.4,0,0.7-0.3,0.7-0.7V8.4C19.6,8,19.3,7.7,18.9,7.7z"/>
<path class="st1" d="M18.2,9.8V8.4c0-0.4-0.3-0.7-0.7-0.7H7.7C7.3,7.7,7,8,7,8.4v1.4c0,0.4,0.3,0.7,0.7,0.7h9.8
	C17.9,10.5,18.2,10.1,18.2,9.8z"/>
<g>
	<path class="st5" d="M11.4,12.8c-0.2,0-0.4-0.2-0.4-0.4h-0.9c-0.2,0-0.4-0.2-0.4-0.4c0-0.2,0.2-0.4,0.4-0.4h1.3
		c0.2,0,0.4,0.2,0.4,0.4v0.4C11.7,12.6,11.6,12.8,11.4,12.8z"/>
	<path class="st5" d="M15.1,12.8c-0.2,0-0.4-0.2-0.4-0.4v-0.4c0-0.2,0.2-0.4,0.4-0.4h1.3c0.2,0,0.4,0.2,0.4,0.4
		c0,0.2-0.2,0.4-0.4,0.4h-0.9C15.5,12.6,15.3,12.8,15.1,12.8z"/>
</g>
</svg>
