<?xml version="1.0" encoding="utf-8"?>
<!-- Generator: Adobe Illustrator 24.0.2, SVG Export Plug-In . SVG Version: 6.00 Build 0)  -->
<svg version="1.1" id="Capa_1" xmlns="http://www.w3.org/2000/svg" xmlns:xlink="http://www.w3.org/1999/xlink" x="0px" y="0px"
	 viewBox="0 0 25.9 25.9" style="enable-background:new 0 0 25.9 25.9;" xml:space="preserve">
<style type="text/css">
	.st0{fill:#7738EC;}
	.st1{fill:#F1F2F2;}
	.st2{fill:#A385FF;}
	.st3{fill:#95A5A5;}
	.st4{fill:#7F8C8D;}
</style>
<g id="_x30_01---System-Prefs">
	<path id="Shape" class="st0" d="M16.4,19.3l1.8,1.8c-0.8,0.5-1.7,0.9-2.7,1.2c-0.3,0.1-0.5,0.3-0.6,0.6l-0.4,1.8
		c0,0.2-0.2,0.3-0.4,0.3h-1.8c-0.2,0-0.4-0.1-0.4-0.3l-0.4-1.8c-0.1-0.3-0.3-0.5-0.6-0.6C10,22,9.2,21.7,8.4,21.2
		c-0.3-0.1-0.6-0.1-0.8,0l-1.5,1c-0.2,0.1-0.4,0.1-0.5-0.1l-1.3-1.3c-0.1-0.1-0.2-0.3-0.1-0.5l1-1.5c0.2-0.2,0.2-0.6,0-0.8
		c-0.5-0.8-0.8-1.6-1.1-2.5c-0.1-0.3-0.3-0.5-0.6-0.6l-1.8-0.4c-0.2,0-0.3-0.2-0.3-0.4v-1.8c0-0.2,0.1-0.3,0.3-0.4l1.8-0.4
		c0.3-0.1,0.5-0.3,0.6-0.6c0.2-0.9,0.6-1.7,1.1-2.5c0.1-0.3,0.1-0.6,0-0.8l-1-1.5C4.1,5.9,4.2,5.7,4.3,5.6l1.3-1.3
		C5.7,4.2,5.9,4.2,6,4.3l1.5,1c0.2,0.2,0.6,0.2,0.8,0c0.8-0.5,1.6-0.8,2.5-1.1c0.3-0.1,0.5-0.3,0.6-0.6l0.4-1.8
		c0-0.2,0.2-0.3,0.4-0.3h1.8c0.2,0,0.3,0.1,0.4,0.3l0.4,1.8c0.1,0.3,0.3,0.5,0.6,0.6c0.9,0.2,1.7,0.6,2.5,1.1c0.3,0.1,0.6,0.1,0.8,0
		l1.5-1c0.2-0.1,0.4-0.1,0.5,0.1l1.3,1.3c0.1,0.1,0.2,0.3,0.1,0.5l-1,1.5c-0.2,0.2-0.2,0.6,0,0.8c0.5,0.8,0.8,1.6,1.1,2.5
		c0.1,0.3,0.3,0.5,0.6,0.6l1.8,0.4c0.2,0,0.3,0.2,0.3,0.4v1.8c0,0.2-0.1,0.3-0.3,0.4l-1.8,0.4c-0.3,0.1-0.5,0.3-0.6,0.6
		c-0.2,1-0.6,1.9-1.2,2.7l-1.8-1.8"/>
	<path id="Shape_1_" class="st1" d="M19.2,16.4c1.6-3,0.8-6.7-2-8.7S10.8,6,8.3,8.4s-2.7,6.2-0.7,8.9s5.7,3.6,8.7,2"/>
	<path id="Shape_2_" class="st2" d="M5.9,13.2c0-3,1.9-5.7,4.7-6.8s6-0.3,8,2s2.4,5.5,1,8.2c-0.1,0.2-0.3,0.3-0.5,0.2
		c-0.2-0.1-0.3-0.3-0.2-0.5c1.5-2.8,0.7-6.3-1.9-8.2s-6.1-1.6-8.4,0.6S6.1,14.5,8,17.1s5.4,3.4,8.2,1.9c0.1-0.1,0.3-0.1,0.4,0
		c0.1,0.1,0.2,0.2,0.2,0.4c0,0.1-0.1,0.3-0.2,0.3c-2.2,1.2-5,1.1-7.1-0.2S5.9,15.8,5.9,13.2L5.9,13.2z"/>
	<path id="Shape_3_" class="st3" d="M23.5,20.7l-6.1-6.1c0.5-1.5,0.1-3.2-1-4.4c-1.1-1.2-2.7-1.7-4.3-1.3C12.1,8.9,12,9,12,9.1
		c0,0.1,0,0.1,0.1,0.2l2.4,2.4c0,0,0.1,0.1,0.1,0.2L14.1,14c0,0.1-0.1,0.1-0.2,0.2l-2.1,0.5c-0.1,0-0.1,0-0.2-0.1l-2.4-2.4
		C9.2,12.1,9.1,12,9,12.1c-0.1,0-0.1,0.1-0.1,0.2c-0.4,1.6,0.1,3.2,1.3,4.3s2.8,1.5,4.4,1c4.6,4.6,0.6,0.6,6.1,6.1
		c0.8,0.7,2,0.7,2.8-0.1C24.2,22.7,24.2,21.5,23.5,20.7L23.5,20.7z M22.1,22.9c-0.4,0-0.8-0.4-0.8-0.8s0.4-0.8,0.8-0.8
		s0.8,0.4,0.8,0.8C22.9,22.5,22.5,22.9,22.1,22.9z"/>
	<g>
		<path id="Shape_4_" class="st1" d="M13.6,4.8h-0.8c-0.2,0-0.4-0.2-0.4-0.4S12.6,4,12.8,4h0.8C13.8,4,14,4.1,14,4.4
			S13.8,4.8,13.6,4.8z"/>
		<path id="Shape_5_" class="st1" d="M13.6,22.5h-0.8c-0.2,0-0.4-0.2-0.4-0.4s0.2-0.4,0.4-0.4h0.8c0.2,0,0.4,0.2,0.4,0.4
			S13.8,22.5,13.6,22.5z"/>
		<path id="Shape_6_" class="st1" d="M6.6,7.7c-0.2,0-0.3-0.1-0.4-0.2C6.2,7.3,6.2,7.1,6.3,7l0.6-0.6c0.2-0.2,0.4-0.2,0.6,0
			s0.2,0.4,0,0.6C6.9,7.6,6.8,7.7,6.6,7.7z"/>
		<path id="Shape_7_" class="st1" d="M4.3,14c-0.2,0-0.4-0.2-0.4-0.4v-0.8c0-0.2,0.2-0.4,0.4-0.4s0.4,0.2,0.4,0.4v0.8
			C4.7,13.9,4.5,14,4.3,14z"/>
		<path id="Shape_8_" class="st1" d="M22.1,14c-0.2,0-0.4-0.2-0.4-0.4v-0.8c0-0.2,0.2-0.4,0.4-0.4s0.4,0.2,0.4,0.4v0.8
			C22.5,13.9,22.3,14,22.1,14z"/>
		<path id="Shape_9_" class="st1" d="M7.2,20.2c-0.1,0-0.2,0-0.3-0.1l-0.6-0.6c-0.2-0.2-0.2-0.4,0-0.6s0.4-0.2,0.6,0l0.6,0.6
			c0.1,0.1,0.1,0.3,0.1,0.4C7.5,20.1,7.4,20.2,7.2,20.2z"/>
		<path id="Shape_10_" class="st1" d="M19.7,7.7c-0.1,0-0.2,0-0.3-0.1L18.9,7c-0.2-0.2-0.2-0.4,0-0.6s0.4-0.2,0.6,0L20,7
			c0.1,0.1,0.1,0.3,0.1,0.4C20.1,7.6,19.9,7.7,19.7,7.7L19.7,7.7z"/>
	</g>
	<path id="Shape_11_" class="st4" d="M20.4,20.9c-0.1,0-0.2,0-0.3-0.1l-4.4-4.4c-0.2-0.2-0.2-0.4,0-0.6c0.2-0.2,0.4-0.2,0.6,0
		l4.4,4.4c0.1,0.1,0.1,0.3,0.1,0.4C20.8,20.8,20.6,20.9,20.4,20.9L20.4,20.9z"/>
</g>
</svg>
