<?xml version="1.0" encoding="utf-8"?>
<!-- Generator: Adobe Illustrator 24.0.2, SVG Export Plug-In . SVG Version: 6.00 Build 0)  -->
<svg version="1.1" id="Layer_1" xmlns="http://www.w3.org/2000/svg" xmlns:xlink="http://www.w3.org/1999/xlink" x="0px" y="0px"
	 viewBox="0 0 30 30" style="enable-background:new 0 0 30 30;" xml:space="preserve">
<style type="text/css">
	.st0{fill:#F1F2F2;}
	.st1{fill:#7738EC;}
</style>
<g id="surface1_1_">
	<path class="st0" d="M15.3,9.6c-3.1,0-5.6,2.5-5.6,5.6c0,3.1,2.5,5.6,5.6,5.6c3.1,0,5.6-2.5,5.6-5.6C20.8,12.1,18.3,9.6,15.3,9.6z
		 M18.6,14.1l-4,4c-0.2,0.2-0.4,0.3-0.6,0.3c-0.2,0-0.4-0.1-0.6-0.3l-1.5-1.5c-0.3-0.3-0.3-0.9,0-1.2c0.3-0.3,0.9-0.3,1.2,0l0.9,0.9
		l3.4-3.4c0.3-0.3,0.9-0.3,1.2,0C18.9,13.2,18.9,13.8,18.6,14.1z"/>
	<path class="st1" d="M27.7,8.5L27.7,8.5c0-0.3,0-0.6,0-0.9c0-1.6-1.3-2.9-2.9-3c-3.4-0.2-6-1.3-8.2-3.4l0,0c-0.7-0.7-1.8-0.7-2.5,0
		l0,0c-2.2,2.2-4.8,3.3-8.2,3.4c-1.6,0.1-2.9,1.4-2.9,3c0,0.3,0,0.6,0,0.9l0,0.1C2.8,11.9,2.7,16.2,4.1,20c0.8,2.1,2,4,3.5,5.5
		c1.8,1.7,4.1,3.1,6.9,4.1c0.1,0,0.2,0.1,0.3,0.1c0.1,0,0.3,0,0.4,0s0.3,0,0.4,0c0.1,0,0.2,0,0.3-0.1c2.8-1,5.1-2.4,6.9-4.1
		c1.6-1.5,2.7-3.4,3.5-5.5C27.8,16.2,27.7,11.9,27.7,8.5z M15.3,22.4c-4,0-7.3-3.3-7.3-7.3s3.3-7.3,7.3-7.3c4,0,7.3,3.3,7.3,7.3
		S19.3,22.4,15.3,22.4z"/>
</g>
</svg>
