<?xml version="1.0" encoding="utf-8"?>
<!-- Generator: Adobe Illustrator 24.0.2, SVG Export Plug-In . SVG Version: 6.00 Build 0)  -->
<svg version="1.1" id="Capa_1" xmlns="http://www.w3.org/2000/svg" xmlns:xlink="http://www.w3.org/1999/xlink" x="0px" y="0px"
	 viewBox="0 0 25.9 25.9" style="enable-background:new 0 0 25.9 25.9;" xml:space="preserve">
<style type="text/css">
	.st0{fill:#8341FF;}
</style>
<g>
	<g>
		<path class="st0" d="M1.8,13c0,4.4,2.6,8.2,6.3,10L2.8,8.4C2.2,9.8,1.8,11.4,1.8,13z M20.5,12.4c0-1.4-0.5-2.3-0.9-3.1
			c-0.6-0.9-1.1-1.7-1.1-2.6c0-1,0.8-2,1.9-2c0,0,0.1,0,0.1,0c-2-1.8-4.6-2.9-7.5-2.9c-3.9,0-7.3,2-9.3,5c0.3,0,0.5,0,0.7,0
			c1.2,0,3-0.1,3-0.1c0.6,0,0.7,0.8,0.1,0.9c0,0-0.6,0.1-1.3,0.1l4,12l2.4-7.3l-1.7-4.7c-0.6,0-1.2-0.1-1.2-0.1
			c-0.6,0-0.5-1,0.1-0.9c0,0,1.8,0.1,2.9,0.1c1.2,0,3-0.1,3-0.1c0.6,0,0.7,0.8,0.1,0.9c0,0-0.6,0.1-1.3,0.1l4,12l1.1-3.7
			C20.2,14.6,20.5,13.4,20.5,12.4z M13.2,13.9l-3.3,9.7c1,0.3,2.1,0.5,3.1,0.5c1.3,0,2.5-0.2,3.7-0.6c0,0-0.1-0.1-0.1-0.2L13.2,13.9
			z M22.7,7.6c0,0.4,0.1,0.7,0.1,1.1c0,1.1-0.2,2.4-0.8,4l-3.4,9.8c3.3-1.9,5.5-5.5,5.5-9.6C24.1,11,23.6,9.2,22.7,7.6z"/>
		<g>
			<path class="st0" d="M0,13c0,7.1,5.8,13,13,13c7.1,0,13-5.8,13-13S20.1,0,13,0S0,5.8,0,13z M0.6,13C0.6,6.1,6.1,0.6,13,0.6
				S25.3,6.1,25.3,13S19.8,25.3,13,25.3S0.6,19.8,0.6,13z"/>
		</g>
	</g>
</g>
</svg>
