<?xml version="1.0" encoding="utf-8"?>
<!-- Generator: Adobe Illustrator 24.0.2, SVG Export Plug-In . SVG Version: 6.00 Build 0)  -->
<svg version="1.1" id="Layer_1" xmlns="http://www.w3.org/2000/svg" xmlns:xlink="http://www.w3.org/1999/xlink" x="0px" y="0px"
	 viewBox="0 0 30 30" style="enable-background:new 0 0 30 30;" xml:space="preserve">
<style type="text/css">
	.st0{fill:#D3A06C;}
	.st1{fill:#B27946;}
	.st2{fill:#A385FF;}
	.st3{fill:#F9E0A6;}
	.st4{fill:#EABD8C;}
	.st5{fill:#ECECEC;}
	.st6{fill:#7738EC;}
	.st7{fill:#FFFFFF;}
</style>
<path class="st0" d="M9.1,14.6v-3.4c0-3.2,2.6-5.8,5.8-5.8l0,0c3.2,0,5.8,2.6,5.8,5.8v3.4H9.1z"/>
<path class="st1" d="M14.9,5.4c-0.2,0-0.3,0-0.5,0c3,0.2,5.3,2.7,5.3,5.8v3.4h1v-3.4C20.7,8,18.1,5.4,14.9,5.4z"/>
<path class="st2" d="M13,25.7h10.6L22.7,23c-0.3-1-1.2-1.7-2.2-1.9l-3.6-0.7H13L9.4,21c-1,0.2-1.9,0.9-2.2,1.9l-0.4,1.9v0.8H13z"/>
<g>
	<polygon class="st3" points="13,18.9 13,20.4 14.9,22.3 16.9,20.4 16.9,18.9 	"/>
	<path class="st3" d="M18.8,13.1h0.5c0.8,0,1.5,0.6,1.5,1.5l0,0c0,0.8-0.6,1.5-1.5,1.5h-0.5V13.1z"/>
	<path class="st3" d="M11.1,13.1h-0.5c-0.8,0-1.5,0.6-1.5,1.5l0,0c0,0.8,0.6,1.5,1.5,1.5h0.5V13.1z"/>
	<path class="st3" d="M10.6,12.6v2.9c0,2.4,1.9,4.4,4.4,4.4l0,0c2.4,0,4.4-1.9,4.4-4.4v-2.9l0,0c-1.5,0-3-0.6-4.1-1.7l-0.2-0.2
		l-0.2,0.2C13.6,12,12.1,12.6,10.6,12.6L10.6,12.6z"/>
</g>
<path class="st4" d="M18.3,15.5c0,2.2-1.7,4.1-3.9,4.3c0.2,0,0.3,0,0.5,0c2.4,0,4.4-1.9,4.4-4.4v-2.9c-0.3,0-0.6,0-1-0.1V15.5z"/>
<path class="st5" d="M21.7,0.5h6.8c0.5,0,1,0.4,1,1v3.9c0,0.5-0.4,1-1,1H27l-3.9,2.4l0.4-2.4h-1.9c-0.5,0-1-0.4-1-1V1.5
	C20.7,1,21.2,0.5,21.7,0.5z"/>
<path class="st6" d="M21.5,25.7h2.1L22.7,23c-0.3-1-1.2-1.7-2.2-1.9l-3.6-0.7l3.5,1.9c0.5,0.3,0.9,0.9,1,1.5L21.5,25.7z"/>
<path class="st6" d="M11.1,24l-1.7,1.6c-0.4,0.4-1,0.4-1.4,0l-3.5-3.5c-0.4-0.4-0.4-1,0-1.4l1.6-1.6l-2.9-2.9l-1.8,1.8
	c-1.1,1.1-1.1,3,0,4.1l6.5,6.5c1.1,1.1,3,1.1,4.1,0l2-1.8L11.1,24z"/>
<rect x="22.2" y="2" class="st6" width="5.8" height="1"/>
<rect x="22.2" y="3.9" class="st6" width="3.9" height="1"/>
<rect x="27" y="3.9" class="st6" width="1" height="1"/>
<path class="st7" d="M4.5,12.1L4,11.2L2.7,12c1.4-5.6,6.4-9.6,12.2-9.6c1.3,0,2.5,0.2,3.7,0.6l0.3-0.9c-1.3-0.4-2.6-0.6-4-0.6
	C8.6,1.5,3.2,5.9,1.7,12l-0.9-1.5L0,10.9l1.7,2.8L4.5,12.1z"/>
<path class="st7" d="M25.2,11.9l0.8,0.5l0.8-1.4c0.4,1.3,0.7,2.7,0.7,4.1c0,2.9-1,5.7-2.8,7.9l0.8,0.6c1.9-2.4,3-5.4,3-8.5
	c0-1.5-0.2-2.9-0.7-4.3l1.4,0.9l0.5-0.8l-2.8-1.7L25.2,11.9z"/>
</svg>
