<?xml version="1.0" standalone="no"?>
<!DOCTYPE svg PUBLIC "-//W3C//DTD SVG 1.1//EN" "http://www.w3.org/Graphics/SVG/1.1/DTD/svg11.dtd" >
<svg>
<metadata>
Created by FontForge 20090622 at Thu Nov 15 02:14:12 2018
 By deploy user
Copyright 1990-1998 Bitstream Inc.  All rights reserved.
</metadata>
<defs>
<font id="Square721BT-BoldExtended" horiz-adv-x="1024" >
  <font-face 
    font-family="Square721 BdEx BT"
    font-weight="400"
    font-stretch="expanded"
    units-per-em="2048"
    panose-1="2 11 9 7 3 5 2 6 2 3"
    ascent="1556"
    descent="-492"
    x-height="1053"
    cap-height="1489"
    bbox="-342 -483 3619 1972"
    underline-thickness="250"
    underline-position="-98"
    unicode-range="U+0020-U+F002"
  />
<missing-glyph horiz-adv-x="1229" 
d="M102 -362v1806h1024v-1806h-1024zM217 -248h795v1577h-795v-1577z" />
    <glyph glyph-name=".notdef" horiz-adv-x="1229" 
d="M102 -362v1806h1024v-1806h-1024zM217 -248h795v1577h-795v-1577z" />
    <glyph glyph-name=".null" horiz-adv-x="0" 
 />
    <glyph glyph-name="nonmarkingreturn" horiz-adv-x="999" 
 />
    <glyph glyph-name="space" unicode=" " horiz-adv-x="999" 
 />
    <glyph glyph-name="exclam" unicode="!" horiz-adv-x="999" 
d="M690 604h-387l-14 512v373h422v-373zM711 0h-422v422h422v-422z" />
    <glyph glyph-name="quotedbl" unicode="&#x22;" horiz-adv-x="713" 
d="M416 1438h223v-561h-223v561zM76 1438h219v-561h-219v561z" />
    <glyph glyph-name="numbersign" unicode="#" horiz-adv-x="1575" 
d="M707 842l-82 -232h245l82 232h-245zM684 1466h250l-139 -393h235l141 393h250l-139 -393h270l-86 -231h-268l-80 -230h277l-84 -231h-275l-141 -393h-250l139 393h-235l-141 -393h-250l139 393h-274l86 231h270l82 230h-283l86 231h279z" />
    <glyph glyph-name="dollar" unicode="$" horiz-adv-x="2001" 
d="M117 500l399 -1q-1 -8 -1.5 -17.5t-0.5 -26.5q0 -75 34 -102t140 -27h199v290l-330 31q-254 23 -340 108.5t-86 295.5q0 240 114.5 337t413.5 97h228v168h215v-168h252q233 0 351 -103t118 -309h-393v8q0 54 -37.5 75.5t-139.5 21.5h-151v-269l325 -28
q224 -20 328.5 -122.5t104.5 -301.5q0 -111 -21.5 -186t-66.5 -128q-68 -78 -169.5 -110.5t-328.5 -32.5h-172v-209h-215v209h-176q-223 0 -335 28.5t-171 96.5q-46 51 -67 136.5t-21 217.5v21zM1102 326h217q76 0 112.5 31.5t36.5 97.5q0 61 -39 88.5t-157 38.5l-170 16
v-272zM887 1176h-189q-108 0 -149 -26t-41 -89q0 -50 32 -77.5t99 -33.5l248 -22v248z" />
    <glyph glyph-name="percent" unicode="%" horiz-adv-x="2636" 
d="M696 1284h-151q-87 0 -121.5 -37.5t-34.5 -136.5v-129q0 -92 33 -129t123 -37h151q90 0 125 37t35 129v129q0 97 -34 135.5t-126 38.5zM829 1507q148 0 215.5 -78t67.5 -249v-271q0 -165 -69 -242t-218 -77h-395q-161 0 -229 73.5t-68 245.5v271q0 172 68 249.5t219 77.5
h409zM1167 -18h-192l498 1525h190zM2087 674h-152q-87 0 -121 -37.5t-34 -136.5v-129q0 -92 32.5 -128t122.5 -36h152q90 0 125 36.5t35 127.5v129q0 97 -34.5 135.5t-125.5 38.5zM2220 897q148 0 215.5 -78t67.5 -250v-268q0 -165 -69.5 -242t-217.5 -77h-395
q-161 0 -229 73.5t-68 245.5v268q0 173 68 250.5t218 77.5h410z" />
    <glyph glyph-name="ampersand" unicode="&#x26;" horiz-adv-x="2134" 
d="M1790 131q-66 -81 -166 -114t-326 -33h-516q-353 0 -496 88t-143 299v192q0 140 76 211.5t232 79.5q-76 45 -106 92.5t-30 122.5v166q0 157 85 215.5t399 58.5h428q343 0 454 -68.5t111 -248.5v-184h-381q0 7 1 20t1 19q0 84 -39.5 116.5t-146.5 32.5h-383q-57 0 -88 -23
t-31 -65q0 -29 14.5 -51.5t42.5 -38.5l760 -397q5 19 7.5 43t2.5 71q0 7 1 22t1 23q0 11 -0.5 17t-0.5 10h374v-244q0 -22 -6.5 -57.5t-17.5 -75.5l272 -151l-129 -285zM1432 305l-687 365q-15 8 -33 13t-34 5q-59 0 -93 -36.5t-34 -100.5v-98q0 -85 48 -116.5t183 -31.5
h650z" />
    <glyph glyph-name="quotesingle" unicode="'" horiz-adv-x="371" 
d="M76 1438h219v-561h-219v561z" />
    <glyph glyph-name="parenleft" unicode="(" horiz-adv-x="979" 
d="M864 1507v-368q-29 3 -52.5 4.5t-43.5 1.5q-89 0 -124.5 -35.5t-35.5 -124.5v-502q0 -81 34.5 -111t127.5 -30q18 0 41 1.5t53 4.5v-368h-209q-241 0 -355 110t-114 344v668q0 207 109.5 306t339.5 99h229z" />
    <glyph glyph-name="parenright" unicode=")" horiz-adv-x="979" 
d="M131 1507h227q231 0 340 -99t109 -306v-668q0 -235 -113 -344.5t-354 -109.5h-209l1 368q30 -3 52 -4.5t39 -1.5q93 0 127.5 30t34.5 111v502q0 89 -35 124.5t-123 35.5q-20 0 -43.5 -1.5t-52.5 -4.5v368z" />
    <glyph glyph-name="asterisk" unicode="*" horiz-adv-x="1493" 
d="M412 692l166 250l163 -96l-131 -266zM1079 692l-196 -112l-133 266l165 96zM1079 1395l-164 -250l-165 96l133 266zM412 1395l198 112l131 -266l-163 -96zM274 928v229l299 -18v-193zM1217 1157v-229l-297 18v193z" />
    <glyph glyph-name="plus" unicode="+" horiz-adv-x="1706" 
d="M735 1221h238v-494h479v-231h-479v-496h-238v496h-481v231h481v494z" />
    <glyph glyph-name="comma" unicode="," horiz-adv-x="999" 
d="M395 0h-110v420h432v-469q0 -170 -85.5 -245t-279.5 -75q-30 0 -63.5 1.5t-69.5 5.5v239h33q79 0 111 24t32 83v16z" />
    <glyph glyph-name="hyphen" unicode="-" horiz-adv-x="1010" 
d="M834 725v-381h-674v381h674z" />
    <glyph glyph-name="period" unicode="." horiz-adv-x="999" 
d="M711 0h-422v422h422v-422z" />
    <glyph glyph-name="slash" unicode="/" horiz-adv-x="745" 
d="M850 1507l-791 -1697h-227l791 1697h227z" />
    <glyph glyph-name="zero" unicode="0" horiz-adv-x="2001" 
d="M1229 1507q217 0 319.5 -23.5t165.5 -80.5q69 -62 102 -171.5t33 -279.5v-415q0 -169 -33 -279t-102 -172q-64 -57 -166.5 -80.5t-318.5 -23.5h-457q-218 0 -319 23.5t-166 80.5q-71 61 -104 167t-33 275v406q0 187 31.5 296.5t103.5 172.5q64 57 168.5 80.5t316.5 23.5
h459zM1108 1159h-215q-182 0 -239.5 -63t-57.5 -248v-219q0 -175 60 -237t237 -62h215q178 0 237.5 61.5t59.5 241.5v225q0 180 -58 240.5t-239 60.5z" />
    <glyph glyph-name="one" unicode="1" horiz-adv-x="2001" 
d="M1442 0h-436v1120l-504 -346l-215 311l651 404h504v-1489z" />
    <glyph glyph-name="two" unicode="2" horiz-adv-x="2001" 
d="M1870 0h-1723v524q0 124 98.5 206t264.5 95l700 58q124 10 169.5 34.5t45.5 75.5v76q0 49 -50.5 73.5t-151.5 24.5h-389q-148 0 -206.5 -45t-58.5 -153q0 -3 1 -8t1 -9q0 -3 -0.5 -5t-1.5 -3h-422v105q0 258 125.5 358t466.5 100h604q268 0 390 -85t122 -271v-246
q0 -144 -94 -233t-262 -103l-797 -67q-69 -6 -101 -43.5t-32 -112.5v-8h1301v-338z" />
    <glyph glyph-name="three" unicode="3" horiz-adv-x="2001" 
d="M129 539l420 -1q-1 -8 -1.5 -19.5t-0.5 -31.5q0 -96 41 -129.5t168 -33.5h536q74 0 108 27.5t34 88.5q0 72 -40.5 103.5t-133.5 31.5h-447v340h463q57 0 88 31t31 88q0 72 -41 101.5t-144 29.5h-479q-98 0 -133 -34.5t-35 -126.5v-19h-419q-3 40 -4 60.5t-1 35.5
q0 229 128.5 327.5t428.5 98.5h617q283 0 397.5 -70.5t114.5 -242.5v-174q0 -133 -50 -190t-184 -80q152 -23 212.5 -77.5t60.5 -168.5v-187q0 -172 -120.5 -253.5t-373.5 -81.5h-635q-202 0 -305.5 18.5t-167.5 62.5q-71 49 -104 139.5t-33 235.5q0 32 4 95v6z" />
    <glyph glyph-name="four" unicode="4" horiz-adv-x="2001" 
d="M1657 0h-420v301h-1137v541l1039 647h518v-846h229v-342h-229v-301zM1237 643v485l-772 -485h772z" />
    <glyph glyph-name="five" unicode="5" horiz-adv-x="2001" 
d="M158 461h415v-17q0 -69 52.5 -97t187.5 -28h451q102 0 144 32.5t42 109.5v90q0 61 -52 89t-169 28h-494q-65 0 -96.5 -17.5t-44.5 -58.5h-385v897h1608v-338h-1219v-240q49 51 130 73t233 22h409q265 0 388.5 -88.5t123.5 -276.5v-250q0 -218 -134.5 -313.5t-449.5 -95.5
h-526q-351 0 -483.5 89.5t-132.5 313.5q0 30 0.5 46t1.5 30z" />
    <glyph glyph-name="six" unicode="6" horiz-adv-x="2001" 
d="M160 451v583q0 268 153.5 370.5t577.5 102.5h401q277 0 404 -88.5t127 -279.5q0 -34 -1 -51.5t-3 -32.5h-397q-8 67 -55.5 97t-149.5 30h-396q-125 0 -177 -42t-52 -141v-165q44 59 127 85.5t231 26.5h328q312 0 441.5 -76t129.5 -254v-297q0 -170 -111.5 -253.5
t-340.5 -83.5h-670q-297 0 -432 112t-135 357zM788 322h429q104 0 152 35t48 112q0 76 -45 107.5t-155 31.5h-429q-106 0 -153 -34t-47 -111q0 -78 44.5 -109.5t155.5 -31.5z" />
    <glyph glyph-name="seven" unicode="7" horiz-adv-x="2001" 
d="M905 0h-524l915 1120h-1128v369h1677v-350z" />
    <glyph glyph-name="eight" unicode="8" horiz-adv-x="2001" 
d="M393 758q-128 18 -187 104t-59 256q0 223 101 306t393 83h729q292 0 393 -83t101 -306q0 -171 -58 -256.5t-186 -103.5q137 -28 193.5 -109t56.5 -254q0 -239 -115.5 -326t-468.5 -87h-561q-203 0 -301.5 18.5t-159.5 62.5q-63 46 -92 125t-29 207q0 173 56.5 254
t193.5 109zM1235 610h-459q-107 0 -154 -34.5t-47 -112.5t45 -109.5t156 -31.5h459q105 0 154 35t49 112q0 76 -46 108.5t-157 32.5zM1231 1188h-449q-106 0 -153 -31.5t-47 -101.5q0 -71 45 -101t155 -30h449q105 0 153 32t48 103q0 70 -45 99.5t-156 29.5z" />
    <glyph glyph-name="nine" unicode="9" horiz-adv-x="2001" 
d="M1225 1167h-426q-106 0 -154.5 -35.5t-48.5 -111.5q0 -77 45.5 -109t157.5 -32h426q106 0 153 34.5t47 112.5t-44.5 109.5t-155.5 31.5zM1855 1036v-583q0 -268 -158.5 -369.5t-596.5 -101.5h-412q-286 0 -416.5 89t-130.5 285q0 13 1 29.5t4 48.5h409q8 -68 56.5 -97.5
t152.5 -29.5h428q127 0 178 41t51 139v166q-44 -60 -127 -86t-231 -26h-324q-312 0 -441.5 76.5t-129.5 254.5v295q0 172 112 256t341 84h665q297 0 433 -113t136 -358z" />
    <glyph glyph-name="colon" unicode=":" horiz-adv-x="999" 
d="M717 631h-432v422h432v-422zM717 0h-432v422h432v-422z" />
    <glyph glyph-name="semicolon" unicode=";" horiz-adv-x="999" 
d="M717 631h-432v422h432v-422zM395 0h-110v420h432v-469q0 -170 -85.5 -245t-279.5 -75q-30 0 -63.5 1.5t-69.5 5.5v239h33q79 0 111 24t32 83v16z" />
    <glyph glyph-name="less" unicode="&#x3c;" horiz-adv-x="1706" 
d="M1442 1214v-253l-854 -351l854 -348v-254l-1178 486v233z" />
    <glyph glyph-name="equal" unicode="=" horiz-adv-x="1706" 
d="M254 502h1198v-230h-1198v230zM254 950h1198v-231h-1198v231z" />
    <glyph glyph-name="greater" unicode="&#x3e;" horiz-adv-x="1706" 
d="M264 1214l1178 -487v-233l-1178 -486v254l854 348l-854 351v253z" />
    <glyph glyph-name="question" unicode="?" horiz-adv-x="1651" 
d="M938 508h-381l-3 59t-1 35q0 134 46.5 204t148.5 89l309 57q67 13 96 41.5t29 81.5q0 73 -56 103t-198 30h-226q-137 0 -185 -45t-48 -170v-28h-375q-5 33 -7.5 69t-2.5 76q0 218 135.5 306.5t480.5 88.5h328q287 0 409 -74t122 -247v-223q0 -122 -68.5 -200.5
t-190.5 -96.5l-251 -39q-69 -12 -90 -32.5t-21 -68.5v-16zM954 0h-411v391h411v-391z" />
    <glyph glyph-name="at" unicode="@" horiz-adv-x="2048" 
d="M1161 262q-56 -82 -126.5 -120t-168.5 -38q-163 0 -247 87.5t-84 257.5q0 241 141.5 404t349.5 163q77 0 134 -30.5t95 -92.5l52 92h206l-153 -610q0 -2 -1 -6q-3 -18 -3 -27q0 -30 16 -44.5t47 -14.5q137 0 240.5 143.5t103.5 335.5q0 239 -179.5 390t-467.5 151
q-148 0 -274 -36.5t-230 -109.5q-155 -110 -239 -274.5t-84 -356.5q0 -302 203 -481.5t544 -179.5q164 0 316 47.5t280 138.5l97 -135q-156 -117 -329 -175t-364 -58q-192 0 -354.5 49t-288.5 145q-157 122 -234 281.5t-77 361.5q0 169 53 320.5t156 277.5
q148 183 359.5 278t467.5 95q170 0 320 -46t260 -132q136 -107 203 -243t67 -306q0 -167 -65.5 -307t-190.5 -240q-69 -56 -154 -85.5t-176 -29.5q-106 0 -161 40t-60 120zM1198 696q-9 76 -50 116t-110 40q-103 0 -181.5 -121.5t-78.5 -286.5q0 -83 35 -128.5t98 -45.5
q84 0 148 59t88 158z" />
    <glyph glyph-name="A" unicode="A" horiz-adv-x="2195" 
d="M817 606h572l-289 527zM500 0h-496l813 1489h580l798 -1489h-499l-144 248h-907z" />
    <glyph glyph-name="B" unicode="B" horiz-adv-x="2152" 
d="M1444 338q60 0 92.5 35.5t32.5 101.5q0 60 -34 95.5t-91 35.5h-840v-268h840zM1403 909q57 0 87 31.5t30 91.5q0 55 -32.5 89t-84.5 34h-799v-246h799zM1561 0h-1411v1489h1341q250 0 373 -103t123 -313q0 -119 -53.5 -195.5t-166.5 -119.5q141 -23 206 -108.5t65 -246.5
q0 -211 -113 -307t-364 -96z" />
    <glyph glyph-name="C" unicode="C" horiz-adv-x="2150" 
d="M1575 952v15q0 87 -57.5 127.5t-182.5 40.5h-364q-234 0 -300.5 -56.5t-66.5 -236.5v-207q0 -161 74 -221t293 -60h264q217 0 284.5 43.5t67.5 161.5v16h461q0 -3 1 -11q3 -65 3 -97q0 -143 -36 -236t-113 -149q-73 -54 -194.5 -77t-356.5 -23h-508q-233 0 -343 25
t-188 85q-90 71 -131 174.5t-41 261.5v406q0 320 152 446.5t551 126.5h508q245 0 361 -22t183 -74q71 -54 104.5 -145.5t33.5 -229.5q0 -33 -0.5 -50.5t-2.5 -33.5h-456z" />
    <glyph glyph-name="D" unicode="D" horiz-adv-x="2226" 
d="M1321 1122h-713v-760h770q145 0 212 59t67 185v262q0 131 -81.5 192.5t-254.5 61.5zM1460 1489q341 0 496 -119.5t155 -380.5v-512q0 -248 -124 -362.5t-394 -114.5h-1439v1489h1306z" />
    <glyph glyph-name="E" unicode="E" horiz-adv-x="1905" 
d="M1776 1126h-1172v-225h1104v-313h-1104v-228h1190v-360h-1644v1489h1626v-363z" />
    <glyph glyph-name="F" unicode="F" horiz-adv-x="1800" 
d="M1776 1126h-1172v-266h1104v-360h-1104v-500h-454v1489h1626v-363z" />
    <glyph glyph-name="G" unicode="G" horiz-adv-x="2154" 
d="M1561 952v4q0 103 -62 141t-280 38h-265q-233 0 -298.5 -56t-65.5 -237v-207q0 -161 74 -221t292 -60h263q196 0 270 35.5t74 122.5q0 12 -4 40v5h-535v301h1008v-489q0 -210 -155.5 -298.5t-541.5 -88.5h-506q-233 0 -344 25t-188 85q-90 71 -131 174.5t-41 261.5v406
q0 320 151.5 446.5t550.5 126.5h508q246 0 363 -22t184 -74q70 -54 103.5 -145.5t33.5 -229.5q0 -33 -0.5 -51t-1.5 -33h-456z" />
    <glyph glyph-name="H" unicode="H" horiz-adv-x="2150" 
d="M608 0h-454v1489h454v-547h932v547h457v-1489h-457v582h-932v-582z" />
    <glyph glyph-name="I" unicode="I" horiz-adv-x="795" 
d="M625 0h-455v1489h455v-1489z" />
    <glyph glyph-name="J" unicode="J" horiz-adv-x="1698" 
d="M1544 420q0 -94 -31.5 -178t-87.5 -138q-67 -64 -174.5 -92t-302.5 -28h-317q-338 0 -462.5 99t-127.5 365v197h440v-53q0 -146 43.5 -192t167.5 -46h205q110 0 151.5 42t41.5 169v924h454v-1069z" />
    <glyph glyph-name="K" unicode="K" horiz-adv-x="2101" 
d="M614 936h191l596 553h604l-805 -735l911 -754h-632l-674 563h-191v-563h-454v1489h454v-553z" />
    <glyph glyph-name="L" unicode="L" horiz-adv-x="1655" 
d="M637 360h991v-360h-1446v1489h455v-1129z" />
    <glyph glyph-name="M" unicode="M" horiz-adv-x="2712" 
d="M596 0h-442v1489h671l531 -930l540 930h662v-1489h-440v1061l-615 -1061h-297l-610 1061v-1061z" />
    <glyph glyph-name="N" unicode="N" horiz-adv-x="2310" 
d="M2167 0h-666l-893 1083v-1083h-454v1489h673l887 -1092v1092h453v-1489z" />
    <glyph glyph-name="O" unicode="O" horiz-adv-x="2253" 
d="M860 -18q-261 0 -382 23.5t-197 80.5q-86 64 -124 167.5t-38 274.5v406q0 187 38 296t124 173q75 56 199.5 80t377.5 24h535q254 0 379.5 -24t199.5 -80q83 -63 121.5 -172t38.5 -279v-415q0 -172 -38.5 -279.5t-121.5 -171.5q-75 -57 -198 -80.5t-381 -23.5h-533z
M983 354h289q241 0 320 60.5t79 224.5v211q0 164 -79 224.5t-320 60.5h-291q-246 0 -322.5 -61t-76.5 -232v-207q0 -161 80.5 -221t320.5 -60z" />
    <glyph glyph-name="P" unicode="P" horiz-adv-x="1997" 
d="M1282 1118h-670v-377h670q91 0 127.5 44.5t36.5 158.5q0 91 -39 132.5t-125 41.5zM1298 1489q152 0 242.5 -14.5t153.5 -47.5q113 -59 164 -175.5t51 -321.5q0 -306 -102 -432.5t-345 -126.5h-850v-371h-456v1489h1142z" />
    <glyph glyph-name="Q" unicode="Q" horiz-adv-x="2253" 
d="M1583 379q-29 9 -114 60l-17 10l-338 200l162 256l293 -172q36 -21 69.5 -43.5t63.5 -46.5q0 35 -1 79.5t-1 53.5v72q0 163 -78 222.5t-322 59.5h-311q-244 0 -321.5 -61t-77.5 -231v-207q0 -143 71 -211t220 -68h452q109 0 164 6.5t86 20.5zM127 524v406q0 186 38 294
t124 173q75 56 200 80t377 24h535q253 0 378.5 -24t200.5 -80q84 -62 122 -168t38 -281v-330q0 -82 -4 -128.5t-14 -81.5l176 -107l-156 -293l-162 103q-61 -72 -177.5 -100.5t-401.5 -28.5h-533q-256 0 -379.5 24t-199.5 80q-86 63 -124 164.5t-38 273.5z" />
    <glyph glyph-name="R" unicode="R" horiz-adv-x="2103" 
d="M1339 1118h-723v-364h723q91 0 127.5 42.5t36.5 153.5q0 88 -39 128t-125 40zM1356 1489q354 0 482 -105t128 -383q0 -193 -57 -287t-191 -126q118 -28 177 -99t59 -184v-305h-455v227q0 88 -41.5 121t-163.5 33h-678v-381h-456v1489h1196z" />
    <glyph glyph-name="S" unicode="S" horiz-adv-x="2097" 
d="M133 495l449 1v-27q0 -84 41 -113.5t172 -29.5h571q84 0 120 28.5t36 94.5q0 67 -41.5 96t-178.5 39l-714 16q-268 8 -362.5 102t-94.5 342q0 128 25 211t80 138q65 62 170 88t342 26h694q258 0 371.5 -94t113.5 -305q0 -14 -0.5 -30t-3.5 -52h-438v6q0 74 -37.5 111
t-112.5 37h-524q-131 0 -173 -26t-42 -91q0 -64 38 -92.5t140 -36.5l748 -12q256 -7 360.5 -115t104.5 -369q0 -155 -38.5 -240t-129.5 -145q-60 -38 -163 -54.5t-298 -16.5h-606q-373 0 -499 83.5t-126 311.5q0 13 1.5 43.5t4.5 74.5z" />
    <glyph glyph-name="T" unicode="T" horiz-adv-x="1798" 
d="M1126 0h-454v1124h-623v365h1700v-365h-623v-1124z" />
    <glyph glyph-name="U" unicode="U" horiz-adv-x="2150" 
d="M150 1489h454v-883q0 -151 68.5 -202.5t298.5 -51.5h258q191 0 256 54.5t65 199.5v883h455v-1024q0 -263 -141.5 -373t-489.5 -110h-508q-409 0 -562.5 105t-153.5 378v1024z" />
    <glyph glyph-name="V" unicode="V" horiz-adv-x="2144" 
d="M1075 420l594 1069h483l-794 -1489h-551l-787 1489h496z" />
    <glyph glyph-name="W" unicode="W" horiz-adv-x="2681" 
d="M1014 0h-520l-476 1489h453l307 -1059l381 1059h418l360 -1059l328 1059h453l-498 -1489h-512l-344 1026z" />
    <glyph glyph-name="X" unicode="X" horiz-adv-x="2171" 
d="M8 0l733 756l-678 733h568l463 -522l467 522h548l-657 -733l715 -756h-586l-487 522l-494 -522h-592z" />
    <glyph glyph-name="Y" unicode="Y" horiz-adv-x="2103" 
d="M1270 0h-455v535l-821 954h559l489 -592l512 592h539l-823 -954v-535z" />
    <glyph glyph-name="Z" unicode="Z" horiz-adv-x="1901" 
d="M1829 0h-1751v365l1061 763h-1022v361h1687v-361l-1054 -763h1079v-365z" />
    <glyph glyph-name="bracketleft" unicode="[" horiz-adv-x="958" 
d="M840 1487v-348h-240v-789h240v-350h-652v1487h652z" />
    <glyph glyph-name="backslash" unicode="\" horiz-adv-x="745" 
d="M-106 1507h227l790 -1697h-227z" />
    <glyph glyph-name="bracketright" unicode="]" horiz-adv-x="958" 
d="M162 1487h651v-1487h-651v350h239v789h-239v348z" />
    <glyph glyph-name="asciicircum" unicode="^" horiz-adv-x="2048" 
d="M879 1462h288l465 -563h-264l-344 342l-346 -342h-264z" />
    <glyph glyph-name="underscore" unicode="_" 
d="M0 -244h1024v-239h-1024v239z" />
    <glyph glyph-name="grave" unicode="`" 
d="M729 1176h-192l-474 284h398z" />
    <glyph glyph-name="a" unicode="a" horiz-adv-x="1548" 
d="M872 455h-231q-104 0 -146 -25t-42 -84q0 -56 38.5 -78t149.5 -22h231q104 0 146.5 24.5t42.5 83.5q0 57 -38.5 79t-150.5 22zM1444 0h-379v127q-58 -73 -177.5 -107t-314.5 -34q-289 0 -397 76.5t-108 275.5q0 196 111.5 271t420.5 75q176 0 287.5 -22t177.5 -68v113
q0 55 -38 84.5t-109 29.5h-310q-57 0 -83.5 -19t-26.5 -61h-381v13q0 166 123.5 239.5t410.5 73.5h371q215 0 318.5 -85.5t103.5 -262.5v-719z" />
    <glyph glyph-name="b" unicode="b" horiz-adv-x="1659" 
d="M760 272h172q132 0 185.5 41t53.5 138v131q0 96 -55.5 138t-183.5 42h-172q-136 0 -188 -40.5t-52 -146.5v-126q0 -96 54.5 -136.5t185.5 -40.5zM526 858q31 107 135 151t340 44q300 0 424.5 -84t124.5 -287v-348q0 -192 -124.5 -272t-430.5 -80q-246 0 -351.5 47.5
t-117.5 158.5v-188h-379v1489h379v-631z" />
    <glyph glyph-name="c" unicode="c" horiz-adv-x="1597" 
d="M612 -14q-268 0 -385.5 90.5t-117.5 296.5v286q0 228 111.5 318t391.5 90h359q262 0 384 -87t122 -273q0 -20 -1.5 -41.5t-5.5 -44.5h-358v6q0 82 -48.5 118.5t-160.5 36.5h-186q-130 0 -179 -41t-49 -151v-135q0 -100 52.5 -142.5t175.5 -42.5h166q142 0 186.5 36
t44.5 136h377q1 -12 1.5 -25.5t0.5 -39.5q0 -212 -117.5 -301.5t-398.5 -89.5h-365z" />
    <glyph glyph-name="d" unicode="d" horiz-adv-x="1659" 
d="M899 272q131 0 185.5 40.5t54.5 136.5v126q0 106 -52 146.5t-188 40.5h-172q-129 0 -184.5 -42t-55.5 -138v-131q0 -97 53.5 -138t186.5 -41h172zM1133 858v631h378v-1489h-378v188q-12 -111 -117.5 -158.5t-351.5 -47.5q-306 0 -430.5 80t-124.5 272v348
q0 203 124.5 287t423.5 84q237 0 341 -44t135 -151z" />
    <glyph glyph-name="e" unicode="e" horiz-adv-x="1548" 
d="M1079 350h357v-16q0 -185 -113 -266.5t-373 -81.5h-352q-238 0 -363.5 99.5t-125.5 287.5v286q0 198 125.5 303t361.5 105h354q238 0 363 -104.5t125 -303.5v-225h-951q0 -5 -1 -15t-1 -13q0 -91 52.5 -130.5t173.5 -39.5h159q123 0 160 24t49 90zM487 666h584v4
q0 75 -47.5 106t-165.5 31h-156q-118 0 -166.5 -31.5t-48.5 -105.5v-4z" />
    <glyph glyph-name="f" unicode="f" horiz-adv-x="948" 
d="M600 0h-381v766h-184v287h184v34q0 222 104 312t363 90h242v-262h-11q-63 4 -90 4q-124 0 -176.5 -33t-52.5 -111q0 -13 0.5 -20.5t1.5 -13.5h348v-287h-348v-766z" />
    <glyph glyph-name="g" unicode="g" horiz-adv-x="1653" 
d="M734 342h167q127 0 180.5 39.5t53.5 132.5v121q0 89 -54 127.5t-180 38.5h-168q-133 0 -183 -37.5t-50 -134.5v-117q0 -89 52 -127t182 -43zM1135 178q-32 -53 -119.5 -75.5t-278.5 -22.5q-360 0 -485 73.5t-125 264.5v289q0 190 127 275t412 85q202 0 314.5 -42
t154.5 -132v160h378v-1049q0 -173 -132.5 -266.5t-379.5 -93.5h-350q-321 0 -423.5 66.5t-102.5 244.5v16h379q4 -46 44.5 -64t153.5 -18h216q116 0 168.5 52.5t52.5 171.5q0 17 -4 55v10z" />
    <glyph glyph-name="h" unicode="h" horiz-adv-x="1653" 
d="M526 0h-379v1489h379v-604q65 97 166.5 137.5t306.5 40.5q257 0 385.5 -96t128.5 -287v-680h-378v530q0 140 -63 184t-241 44q-161 0 -233 -56.5t-72 -183.5v-518z" />
    <glyph glyph-name="i" unicode="i" horiz-adv-x="696" 
d="M539 1180h-379v309h379v-309zM539 0h-379v1053h379v-1053z" />
    <glyph glyph-name="j" unicode="j" horiz-adv-x="700" 
d="M551 1180h-379v309h379v-309zM551 -59q0 -169 -78.5 -233t-290.5 -64q-32 0 -70.5 2.5t-84.5 7.5v266q4 0 23.5 -3t29.5 -3q48 0 70 27t22 88v1024h379v-1112z" />
    <glyph glyph-name="k" unicode="k" horiz-adv-x="1526" 
d="M537 713h90l327 340h498l-504 -492l574 -561h-480l-415 420h-90v-420h-381v1489h381v-776z" />
    <glyph glyph-name="l" unicode="l" horiz-adv-x="696" 
d="M539 0h-379v1489h379v-1489z" />
    <glyph glyph-name="m" unicode="m" horiz-adv-x="2492" 
d="M526 0h-379v1047h379v-162q59 97 151 137.5t263 40.5q203 0 314 -58t147 -182q54 126 156.5 183t277.5 57q264 0 392 -94.5t128 -288.5v-680h-379v530q0 140 -55.5 184t-208.5 44q-141 0 -202.5 -56t-61.5 -184v-518h-379v530q0 140 -56.5 184t-213.5 44
q-144 0 -208.5 -56.5t-64.5 -183.5v-518z" />
    <glyph glyph-name="n" unicode="n" horiz-adv-x="1651" 
d="M526 0h-379v1047h379v-162q65 97 166.5 137.5t306.5 40.5q257 0 385.5 -96t128.5 -287v-680h-378v530q0 140 -63 184t-241 44q-165 0 -235 -57.5t-70 -192.5v-508z" />
    <glyph glyph-name="o" unicode="o" horiz-adv-x="1647" 
d="M735 270h178q136 0 191 42.5t55 144.5v139q0 101 -56 143.5t-190 42.5h-178q-141 0 -194.5 -42t-53.5 -150v-135q0 -100 56.5 -142.5t191.5 -42.5zM635 -14q-284 0 -405 90t-121 297v286q0 225 118 316.5t406 91.5h381q279 0 401.5 -92.5t122.5 -302.5v-293
q0 -213 -119 -303t-405 -90h-379z" />
    <glyph glyph-name="p" unicode="p" horiz-adv-x="1659" 
d="M526 190v-546h-379v1409h379v-193q12 112 117.5 159.5t351.5 47.5q306 0 430.5 -80t124.5 -272v-348q0 -192 -130 -278.5t-419 -86.5q-242 0 -343.5 42t-131.5 146zM760 776q-131 0 -185.5 -40t-54.5 -136v-127q0 -105 51.5 -144.5t188.5 -39.5h172q129 0 184 41t55 137
v131q0 97 -53.5 137.5t-185.5 40.5h-172z" />
    <glyph glyph-name="q" unicode="q" horiz-adv-x="1659" 
d="M1133 190q-31 -104 -132 -146t-344 -42q-288 0 -418 86.5t-130 278.5v348q0 192 124.5 272t430.5 80q246 0 351.5 -47.5t117.5 -159.5v193h378v-1409h-378v546zM899 776h-172q-133 0 -186.5 -40.5t-53.5 -137.5v-131q0 -96 55.5 -137t184.5 -41h172q137 0 188.5 39.5
t51.5 144.5v127q0 96 -54.5 136t-185.5 40z" />
    <glyph glyph-name="r" unicode="r" horiz-adv-x="1343" 
d="M539 856q56 113 146 163t239 50q219 0 311 -93t92 -312q0 -32 -4 -99v-6h-334v16q0 93 -51.5 137t-159.5 44q-112 0 -175.5 -51.5t-63.5 -143.5v-561h-379v1053h379v-197z" />
    <glyph glyph-name="s" unicode="s" horiz-adv-x="1593" 
d="M92 333l402 1v-4q0 -49 49 -71.5t157 -22.5h277q83 0 117 18.5t34 62.5q0 40 -36.5 60.5t-118.5 25.5l-375 7q-284 1 -393 73t-109 244q0 182 118 261t396 79h430q206 0 305 -76t101 -235h-379q-14 30 -61 45.5t-127 15.5h-265q-76 0 -106.5 -15.5t-30.5 -51.5
q0 -37 32 -53t146 -23h463q203 -3 297 -83.5t94 -250.5q0 -194 -104.5 -274t-368.5 -80h-385q-326 0 -441 76t-118 271z" />
    <glyph glyph-name="t" unicode="t" horiz-adv-x="1346" 
d="M256 778h-213v275h213v252h379v-252h592v-275h-592v-358q0 -83 33.5 -116.5t113.5 -33.5q91 0 127.5 34t36.5 118q0 17 -3 55q-1 4 -1 6h336q2 -17 3 -36.5t1 -55.5q0 -215 -125 -310t-409 -95q-272 0 -382 81.5t-110 282.5v428z" />
    <glyph glyph-name="u" unicode="u" horiz-adv-x="1651" 
d="M1124 1053h379v-1053h-379v162q-63 -97 -164 -136.5t-309 -39.5q-265 0 -390.5 95.5t-125.5 297.5v674h379v-537q0 -136 61 -180.5t226 -44.5q184 0 253.5 54.5t69.5 193.5v514z" />
    <glyph glyph-name="v" unicode="v" horiz-adv-x="1499" 
d="M995 0h-477l-506 1053h426l316 -738l327 738h420z" />
    <glyph glyph-name="w" unicode="w" horiz-adv-x="2245" 
d="M416 0l-400 1053h418l248 -746l274 746h340l265 -746l266 746h403l-409 -1053h-492l-207 584l-219 -584h-487z" />
    <glyph glyph-name="x" unicode="x" horiz-adv-x="1497" 
d="M502 0h-479l426 553l-412 500h502l202 -275l201 275h488l-390 -488l459 -565h-493l-258 348z" />
    <glyph glyph-name="y" unicode="y" horiz-adv-x="1452" 
d="M625 51h-142l-460 1002h417l293 -684l303 684h414l-526 -1135q-41 -88 -82.5 -143t-91.5 -84q-43 -25 -102.5 -36t-143.5 -11q-44 0 -87 2t-85 6v249q23 -2 43 -3.5t39 -1.5q91 0 141.5 37t69.5 118z" />
    <glyph glyph-name="z" unicode="z" horiz-adv-x="1296" 
d="M1245 0h-1190v266l637 498h-600v289h1133v-291l-602 -475h622v-287z" />
    <glyph glyph-name="braceleft" unicode="{" 
d="M893 1477v-242q-7 0 -21 1t-20 1q-98 0 -132 -35.5t-34 -146.5v-240q0 -140 -46 -200t-165 -85q120 -24 165.5 -82.5t45.5 -199.5v-242q0 -110 33.5 -145t130.5 -35q7 0 21.5 1t21.5 1v-242q-15 0 -42 -1t-40 -1q-108 0 -179.5 12t-119.5 37q-59 32 -82.5 88.5
t-23.5 192.5v256q0 133 -49.5 187.5t-168.5 54.5q-4 0 -17 -1t-19 -1v241q6 0 18 -1t18 -1q118 0 168 55.5t50 188.5v254q0 136 24 193.5t82 89.5q48 25 120.5 37t180.5 12q12 0 38.5 -1t41.5 -1z" />
    <glyph glyph-name="bar" unicode="|" 
d="M393 1565h240v-2048h-240v2048z" />
    <glyph glyph-name="braceright" unicode="}" 
d="M133 1477q15 0 41.5 1t38.5 1q108 0 180 -12t121 -37q58 -32 82.5 -89.5t24.5 -193.5v-254q0 -134 49 -189t168 -55q6 0 18 1t18 1v-241q-6 0 -18 1t-18 1q-119 0 -168 -55t-49 -187v-256q0 -137 -24.5 -194.5t-82.5 -88.5q-45 -24 -113.5 -35.5t-177.5 -11.5
q-14 0 -44 1t-46 1v242q9 0 23 -1t20 -1q97 0 130.5 34.5t33.5 145.5v242q0 140 46 199t165 83q-120 25 -165.5 84t-45.5 201v240q0 111 -33.5 146.5t-126.5 35.5q-7 0 -22.5 -1t-24.5 -1v242z" />
    <glyph glyph-name="asciitilde" unicode="~" horiz-adv-x="1706" 
d="M1530 819v-254q-101 -69 -194 -103t-183 -34q-45 0 -89 7.5t-83 21.5q-13 4 -38 13q-255 89 -382 89q-84 0 -175.5 -37.5t-207.5 -120.5v254q112 73 207.5 108.5t179.5 35.5q63 0 126.5 -12t169.5 -46q16 -5 51 -17q159 -56 247 -56q84 0 173.5 36t197.5 115z" />
    <glyph glyph-name="Adieresis" unicode="&#xc4;" horiz-adv-x="2195" 
d="M817 606h572l-289 527zM500 0h-496l813 1489h580l798 -1489h-499l-144 248h-907zM1174 1626v262h327v-262h-327zM695 1626v262h327v-262h-327z" />
    <glyph glyph-name="Aring" unicode="&#xc5;" horiz-adv-x="2195" 
d="M1247 1761q0 57 -34 84t-105 27t-105 -27t-34 -84q0 -55 35 -82.5t104 -27.5q70 0 104.5 27.5t34.5 82.5zM1456 1761q0 -102 -89.5 -156.5t-258.5 -54.5q-166 0 -257 55.5t-91 155.5q0 101 90.5 156t257.5 55q169 0 258.5 -54t89.5 -157zM817 606h572l-289 551zM500 0
h-496l813 1481h580l798 -1481h-499l-144 248h-907z" />
    <glyph glyph-name="Ccedilla" unicode="&#xc7;" horiz-adv-x="2150" 
d="M1575 952v15q0 87 -57.5 127.5t-182.5 40.5h-364q-234 0 -300.5 -56.5t-66.5 -236.5v-207q0 -161 74 -221t293 -60h264q217 0 284.5 43.5t67.5 161.5v16h461q0 -3 1 -11q3 -65 3 -97q0 -143 -36 -236t-113 -149q-73 -54 -194.5 -77t-356.5 -23h-508q-233 0 -343 25
t-188 85q-90 71 -131 174.5t-41 261.5v406q0 320 152 446.5t551 126.5h508q245 0 361 -22t183 -74q71 -54 104.5 -145.5t33.5 -229.5q0 -33 -0.5 -50.5t-2.5 -33.5h-456zM958 0h129v-109h168q65 0 92 -33t27 -116v-53q0 -84 -27 -117t-94 -33h-436v137h333q19 0 29 11t10 30
q0 23 -9.5 32t-33.5 9h-135q-29 0 -41 16t-12 60v166z" />
    <glyph glyph-name="Eacute" unicode="&#xc9;" horiz-adv-x="1905" 
d="M1776 1126h-1172v-225h1104v-313h-1104v-228h1190v-360h-1644v1489h1626v-363zM748 1616l268 284h398l-474 -284h-192z" />
    <glyph glyph-name="Ntilde" unicode="&#xd1;" horiz-adv-x="2310" 
d="M2167 0h-666l-893 1083v-1083h-454v1489h673l887 -1092v1092h453v-1489zM928 1626h-137q32 117 101 175t175 58q21 0 44.5 -2.5t49.5 -7.5l173 -33q17 -3 35 -4.5t36 -1.5q45 0 74.5 18.5t42.5 53.5h137q-26 -111 -101 -172.5t-186 -61.5q-22 0 -42 2t-39 7l-184 36
q-11 3 -21.5 3.5t-32.5 0.5q-49 0 -81 -18t-44 -53z" />
    <glyph glyph-name="Odieresis" unicode="&#xd6;" horiz-adv-x="2253" 
d="M860 -18q-261 0 -382 23.5t-197 80.5q-86 64 -124 167.5t-38 274.5v406q0 187 38 296t124 173q75 56 199.5 80t377.5 24h535q254 0 379.5 -24t199.5 -80q83 -63 121.5 -172t38.5 -279v-415q0 -172 -38.5 -279.5t-121.5 -171.5q-75 -57 -198 -80.5t-381 -23.5h-533z
M983 354h289q241 0 320 60.5t79 224.5v211q0 164 -79 224.5t-320 60.5h-291q-246 0 -322.5 -61t-76.5 -232v-207q0 -161 80.5 -221t320.5 -60zM1202 1626v262h327v-262h-327zM723 1626v262h327v-262h-327z" />
    <glyph glyph-name="Udieresis" unicode="&#xdc;" horiz-adv-x="2150" 
d="M150 1489h454v-883q0 -151 68.5 -202.5t298.5 -51.5h258q191 0 256 54.5t65 199.5v883h455v-1024q0 -263 -141.5 -373t-489.5 -110h-508q-409 0 -562.5 105t-153.5 378v1024zM1151 1626v262h327v-262h-327zM672 1626v262h327v-262h-327z" />
    <glyph glyph-name="aacute" unicode="&#xe1;" horiz-adv-x="1548" 
d="M872 455h-231q-104 0 -146 -25t-42 -84q0 -56 38.5 -78t149.5 -22h231q104 0 146.5 24.5t42.5 83.5q0 57 -38.5 79t-150.5 22zM1444 0h-379v127q-58 -73 -177.5 -107t-314.5 -34q-289 0 -397 76.5t-108 275.5q0 196 111.5 271t420.5 75q176 0 287.5 -22t177.5 -68v113
q0 55 -38 84.5t-109 29.5h-310q-57 0 -83.5 -19t-26.5 -61h-381v13q0 166 123.5 239.5t410.5 73.5h371q215 0 318.5 -85.5t103.5 -262.5v-719zM557 1176l268 284h398l-474 -284h-192z" />
    <glyph glyph-name="agrave" unicode="&#xe0;" horiz-adv-x="1548" 
d="M872 455h-231q-104 0 -146 -25t-42 -84q0 -56 38.5 -78t149.5 -22h231q104 0 146.5 24.5t42.5 83.5q0 57 -38.5 79t-150.5 22zM1444 0h-379v127q-58 -73 -177.5 -107t-314.5 -34q-289 0 -397 76.5t-108 275.5q0 196 111.5 271t420.5 75q176 0 287.5 -22t177.5 -68v113
q0 55 -38 84.5t-109 29.5h-310q-57 0 -83.5 -19t-26.5 -61h-381v13q0 166 123.5 239.5t410.5 73.5h371q215 0 318.5 -85.5t103.5 -262.5v-719zM991 1176h-192l-474 284h398z" />
    <glyph glyph-name="acircumflex" unicode="&#xe2;" horiz-adv-x="1548" 
d="M872 455h-231q-104 0 -146 -25t-42 -84q0 -56 38.5 -78t149.5 -22h231q104 0 146.5 24.5t42.5 83.5q0 57 -38.5 79t-150.5 22zM1444 0h-379v127q-58 -73 -177.5 -107t-314.5 -34q-289 0 -397 76.5t-108 275.5q0 196 111.5 271t420.5 75q176 0 287.5 -22t177.5 -68v113
q0 55 -38 84.5t-109 29.5h-310q-57 0 -83.5 -19t-26.5 -61h-381v13q0 166 123.5 239.5t410.5 73.5h371q215 0 318.5 -85.5t103.5 -262.5v-719zM346 1176l268 284h320l268 -284h-192l-236 149l-236 -149h-192z" />
    <glyph glyph-name="adieresis" unicode="&#xe4;" horiz-adv-x="1548" 
d="M872 455h-231q-104 0 -146 -25t-42 -84q0 -56 38.5 -78t149.5 -22h231q104 0 146.5 24.5t42.5 83.5q0 57 -38.5 79t-150.5 22zM1444 0h-379v127q-58 -73 -177.5 -107t-314.5 -34q-289 0 -397 76.5t-108 275.5q0 196 111.5 271t420.5 75q176 0 287.5 -22t177.5 -68v113
q0 55 -38 84.5t-109 29.5h-310q-57 0 -83.5 -19t-26.5 -61h-381v13q0 166 123.5 239.5t410.5 73.5h371q215 0 318.5 -85.5t103.5 -262.5v-719zM850 1186v262h327v-262h-327zM371 1186v262h327v-262h-327z" />
    <glyph glyph-name="atilde" unicode="&#xe3;" horiz-adv-x="1548" 
d="M872 455h-231q-104 0 -146 -25t-42 -84q0 -56 38.5 -78t149.5 -22h231q104 0 146.5 24.5t42.5 83.5q0 57 -38.5 79t-150.5 22zM1444 0h-379v127q-58 -73 -177.5 -107t-314.5 -34q-289 0 -397 76.5t-108 275.5q0 196 111.5 271t420.5 75q176 0 287.5 -22t177.5 -68v113
q0 55 -38 84.5t-109 29.5h-310q-57 0 -83.5 -19t-26.5 -61h-381v13q0 166 123.5 239.5t410.5 73.5h371q215 0 318.5 -85.5t103.5 -262.5v-719zM477 1186h-137q32 117 101 175t175 58q21 0 44.5 -2.5t49.5 -7.5l173 -33q17 -3 35 -4.5t36 -1.5q45 0 74.5 18.5t42.5 53.5h137
q-26 -111 -101 -172.5t-186 -61.5q-22 0 -42 2t-39 7l-184 36q-11 3 -21.5 3.5t-32.5 0.5q-49 0 -81 -18t-44 -53z" />
    <glyph glyph-name="aring" unicode="&#xe5;" horiz-adv-x="1548" 
d="M1122 1341q0 -96 -83.5 -147t-241.5 -51q-157 0 -241.5 51.5t-84.5 146.5q0 96 84.5 147.5t241.5 51.5q158 0 241.5 -51t83.5 -148zM930 1341q0 55 -32.5 81t-100.5 26q-69 0 -101 -26t-32 -81q0 -54 32.5 -80t100.5 -26q67 0 100 26t33 80zM872 455h-231
q-104 0 -146 -25t-42 -84q0 -56 38.5 -78t149.5 -22h231q104 0 146.5 24.5t42.5 83.5q0 57 -38.5 79t-150.5 22zM1444 0h-379v127q-58 -73 -177.5 -107t-314.5 -34q-289 0 -397 76.5t-108 275.5q0 196 111.5 271t420.5 75q176 0 287.5 -22t177.5 -68v113q0 55 -38 84.5
t-109 29.5h-310q-57 0 -83.5 -19t-26.5 -61h-381v13q0 166 123.5 239.5t410.5 73.5h371q215 0 318.5 -85.5t103.5 -262.5v-719z" />
    <glyph glyph-name="ccedilla" unicode="&#xe7;" horiz-adv-x="1597" 
d="M612 -14q-268 0 -385.5 90.5t-117.5 296.5v286q0 228 111.5 318t391.5 90h359q262 0 384 -87t122 -273q0 -20 -1.5 -41.5t-5.5 -44.5h-358v6q0 82 -48.5 118.5t-160.5 36.5h-186q-130 0 -179 -41t-49 -151v-135q0 -100 52.5 -142.5t175.5 -42.5h166q142 0 186.5 36
t44.5 136h377q1 -12 1.5 -25.5t0.5 -39.5q0 -212 -117.5 -301.5t-398.5 -89.5h-365zM670 0h129v-109h168q65 0 92 -33t27 -116v-53q0 -84 -27 -117t-94 -33h-436v137h333q19 0 29 11t10 30q0 23 -9.5 32t-33.5 9h-135q-29 0 -41 16t-12 60v166z" />
    <glyph glyph-name="eacute" unicode="&#xe9;" horiz-adv-x="1548" 
d="M1079 350h357v-16q0 -185 -113 -266.5t-373 -81.5h-352q-238 0 -363.5 99.5t-125.5 287.5v286q0 198 125.5 303t361.5 105h354q238 0 363 -104.5t125 -303.5v-225h-951q0 -5 -1 -15t-1 -13q0 -91 52.5 -130.5t173.5 -39.5h159q123 0 160 24t49 90zM487 666h584v4
q0 75 -47.5 106t-165.5 31h-156q-118 0 -166.5 -31.5t-48.5 -105.5v-4zM563 1176l268 284h398l-474 -284h-192z" />
    <glyph glyph-name="egrave" unicode="&#xe8;" horiz-adv-x="1548" 
d="M1079 350h357v-16q0 -185 -113 -266.5t-373 -81.5h-352q-238 0 -363.5 99.5t-125.5 287.5v286q0 198 125.5 303t361.5 105h354q238 0 363 -104.5t125 -303.5v-225h-951q0 -5 -1 -15t-1 -13q0 -91 52.5 -130.5t173.5 -39.5h159q123 0 160 24t49 90zM487 666h584v4
q0 75 -47.5 106t-165.5 31h-156q-118 0 -166.5 -31.5t-48.5 -105.5v-4zM997 1176h-192l-474 284h398z" />
    <glyph glyph-name="ecircumflex" unicode="&#xea;" horiz-adv-x="1548" 
d="M1079 350h357v-16q0 -185 -113 -266.5t-373 -81.5h-352q-238 0 -363.5 99.5t-125.5 287.5v286q0 198 125.5 303t361.5 105h354q238 0 363 -104.5t125 -303.5v-225h-951q0 -5 -1 -15t-1 -13q0 -91 52.5 -130.5t173.5 -39.5h159q123 0 160 24t49 90zM487 666h584v4
q0 75 -47.5 106t-165.5 31h-156q-118 0 -166.5 -31.5t-48.5 -105.5v-4zM352 1176l268 284h320l268 -284h-192l-236 149l-236 -149h-192z" />
    <glyph glyph-name="edieresis" unicode="&#xeb;" horiz-adv-x="1548" 
d="M1079 350h357v-16q0 -185 -113 -266.5t-373 -81.5h-352q-238 0 -363.5 99.5t-125.5 287.5v286q0 198 125.5 303t361.5 105h354q238 0 363 -104.5t125 -303.5v-225h-951q0 -5 -1 -15t-1 -13q0 -91 52.5 -130.5t173.5 -39.5h159q123 0 160 24t49 90zM487 666h584v4
q0 75 -47.5 106t-165.5 31h-156q-118 0 -166.5 -31.5t-48.5 -105.5v-4zM856 1186v262h327v-262h-327zM377 1186v262h327v-262h-327z" />
    <glyph glyph-name="iacute" unicode="&#xed;" horiz-adv-x="696" 
d="M539 0h-379v1053h379v-1053zM131 1176l268 284h398l-474 -284h-192z" />
    <glyph glyph-name="igrave" unicode="&#xec;" horiz-adv-x="696" 
d="M539 0h-379v1053h379v-1053zM565 1176h-192l-474 284h398z" />
    <glyph glyph-name="icircumflex" unicode="&#xee;" horiz-adv-x="696" 
d="M539 0h-379v1053h379v-1053zM-80 1176l268 284h320l268 -284h-192l-236 149l-236 -149h-192z" />
    <glyph glyph-name="idieresis" unicode="&#xef;" horiz-adv-x="696" 
d="M539 0h-379v1053h379v-1053zM424 1186v262h327v-262h-327zM-55 1186v262h327v-262h-327z" />
    <glyph glyph-name="ntilde" unicode="&#xf1;" horiz-adv-x="1651" 
d="M526 0h-379v1047h379v-162q65 97 166.5 137.5t306.5 40.5q257 0 385.5 -96t128.5 -287v-680h-378v530q0 140 -63 184t-241 44q-165 0 -235 -57.5t-70 -192.5v-508zM549 1186h-137q32 117 101 175t175 58q21 0 44.5 -2.5t49.5 -7.5l173 -33q17 -3 35 -4.5t36 -1.5
q45 0 74.5 18.5t42.5 53.5h137q-26 -111 -101 -172.5t-186 -61.5q-22 0 -42 2t-39 7l-184 36q-11 3 -21.5 3.5t-32.5 0.5q-49 0 -81 -18t-44 -53z" />
    <glyph glyph-name="oacute" unicode="&#xf3;" horiz-adv-x="1647" 
d="M735 270h178q136 0 191 42.5t55 144.5v139q0 101 -56 143.5t-190 42.5h-178q-141 0 -194.5 -42t-53.5 -150v-135q0 -100 56.5 -142.5t191.5 -42.5zM635 -14q-284 0 -405 90t-121 297v286q0 225 118 316.5t406 91.5h381q279 0 401.5 -92.5t122.5 -302.5v-293
q0 -213 -119 -303t-405 -90h-379zM606 1176l268 284h398l-474 -284h-192z" />
    <glyph glyph-name="ograve" unicode="&#xf2;" horiz-adv-x="1647" 
d="M735 270h178q136 0 191 42.5t55 144.5v139q0 101 -56 143.5t-190 42.5h-178q-141 0 -194.5 -42t-53.5 -150v-135q0 -100 56.5 -142.5t191.5 -42.5zM635 -14q-284 0 -405 90t-121 297v286q0 225 118 316.5t406 91.5h381q279 0 401.5 -92.5t122.5 -302.5v-293
q0 -213 -119 -303t-405 -90h-379zM1040 1176h-192l-474 284h398z" />
    <glyph glyph-name="ocircumflex" unicode="&#xf4;" horiz-adv-x="1647" 
d="M735 270h178q136 0 191 42.5t55 144.5v139q0 101 -56 143.5t-190 42.5h-178q-141 0 -194.5 -42t-53.5 -150v-135q0 -100 56.5 -142.5t191.5 -42.5zM635 -14q-284 0 -405 90t-121 297v286q0 225 118 316.5t406 91.5h381q279 0 401.5 -92.5t122.5 -302.5v-293
q0 -213 -119 -303t-405 -90h-379zM395 1176l268 284h320l268 -284h-192l-236 149l-236 -149h-192z" />
    <glyph glyph-name="odieresis" unicode="&#xf6;" horiz-adv-x="1647" 
d="M735 270h178q136 0 191 42.5t55 144.5v139q0 101 -56 143.5t-190 42.5h-178q-141 0 -194.5 -42t-53.5 -150v-135q0 -100 56.5 -142.5t191.5 -42.5zM635 -14q-284 0 -405 90t-121 297v286q0 225 118 316.5t406 91.5h381q279 0 401.5 -92.5t122.5 -302.5v-293
q0 -213 -119 -303t-405 -90h-379zM899 1186v262h327v-262h-327zM420 1186v262h327v-262h-327z" />
    <glyph glyph-name="otilde" unicode="&#xf5;" horiz-adv-x="1647" 
d="M735 270h178q136 0 191 42.5t55 144.5v139q0 101 -56 143.5t-190 42.5h-178q-141 0 -194.5 -42t-53.5 -150v-135q0 -100 56.5 -142.5t191.5 -42.5zM635 -14q-284 0 -405 90t-121 297v286q0 225 118 316.5t406 91.5h381q279 0 401.5 -92.5t122.5 -302.5v-293
q0 -213 -119 -303t-405 -90h-379zM526 1186h-137q32 117 101 175t175 58q21 0 44.5 -2.5t49.5 -7.5l173 -33q17 -3 35 -4.5t36 -1.5q45 0 74.5 18.5t42.5 53.5h137q-26 -111 -101 -172.5t-186 -61.5q-22 0 -42 2t-39 7l-184 36q-11 3 -21.5 3.5t-32.5 0.5q-49 0 -81 -18
t-44 -53z" />
    <glyph glyph-name="uacute" unicode="&#xfa;" horiz-adv-x="1651" 
d="M1124 1053h379v-1053h-379v162q-63 -97 -164 -136.5t-309 -39.5q-265 0 -390.5 95.5t-125.5 297.5v674h379v-537q0 -136 61 -180.5t226 -44.5q184 0 253.5 54.5t69.5 193.5v514zM598 1176l268 284h398l-474 -284h-192z" />
    <glyph glyph-name="ugrave" unicode="&#xf9;" horiz-adv-x="1651" 
d="M1124 1053h379v-1053h-379v162q-63 -97 -164 -136.5t-309 -39.5q-265 0 -390.5 95.5t-125.5 297.5v674h379v-537q0 -136 61 -180.5t226 -44.5q184 0 253.5 54.5t69.5 193.5v514zM1032 1176h-192l-474 284h398z" />
    <glyph glyph-name="ucircumflex" unicode="&#xfb;" horiz-adv-x="1651" 
d="M1124 1053h379v-1053h-379v162q-63 -97 -164 -136.5t-309 -39.5q-265 0 -390.5 95.5t-125.5 297.5v674h379v-537q0 -136 61 -180.5t226 -44.5q184 0 253.5 54.5t69.5 193.5v514zM387 1176l268 284h320l268 -284h-192l-236 149l-236 -149h-192z" />
    <glyph glyph-name="udieresis" unicode="&#xfc;" horiz-adv-x="1651" 
d="M1124 1053h379v-1053h-379v162q-63 -97 -164 -136.5t-309 -39.5q-265 0 -390.5 95.5t-125.5 297.5v674h379v-537q0 -136 61 -180.5t226 -44.5q184 0 253.5 54.5t69.5 193.5v514zM891 1186v262h327v-262h-327zM412 1186v262h327v-262h-327z" />
    <glyph glyph-name="dagger" unicode="&#x2020;" horiz-adv-x="1493" 
d="M915 0h-333v823h-447v299h447v367h333v-367h443v-299h-443v-823z" />
    <glyph glyph-name="degree" unicode="&#xb0;" horiz-adv-x="674" 
d="M338 1321q-69 0 -117.5 -48t-48.5 -116q0 -70 48 -118t118 -48q68 0 116 49t48 117t-48 116t-116 48zM338 1466q129 0 220 -91t91 -220q0 -128 -91.5 -219.5t-221.5 -91.5q-129 0 -219 90.5t-90 220.5q0 131 90.5 221t220.5 90z" />
    <glyph glyph-name="cent" unicode="&#xa2;" horiz-adv-x="2001" 
d="M997 776h-41q-132 0 -180.5 -41t-48.5 -151v-135q0 -82 31.5 -124t97.5 -49zM1219 768l-138 -502h39q141 0 185.5 35.5t44.5 134.5h378q2 -12 2.5 -25t0.5 -38q0 -212 -117.5 -301.5t-399.5 -89.5h-215l-69 -265h-232l74 267q-244 29 -335 124.5t-91 331.5v178
q0 236 118 339.5t386 103.5h227l62 215h223l-64 -221q217 -11 316.5 -95.5t99.5 -257.5q0 -20 -1.5 -41.5t-4.5 -43.5l-358 -1q0 71 -32.5 108.5t-98.5 43.5z" />
    <glyph glyph-name="sterling" unicode="&#xa3;" horiz-adv-x="2001" 
d="M1907 0h-1792v344q65 0 101 26t36 72v138h-164v280h164v213q0 212 136 323t394 111h545q286 0 420.5 -117t134.5 -364v-6h-407v12q0 74 -36.5 104.5t-125.5 30.5h-486q-79 0 -111 -28t-32 -97v-182h641v-280l-641 -1q-2 -77 -25 -134.5t-71 -104.5h1319v-340z" />
    <glyph glyph-name="section" unicode="&#xa7;" horiz-adv-x="1655" 
d="M526 336v-21q0 -53 26 -75.5t87 -22.5h381q44 0 67 18t23 54q0 33 -23 50t-86 28l-489 82q-200 33 -275 96.5t-75 189.5q0 99 54.5 160.5t156.5 77.5q-73 44 -109.5 108.5t-36.5 147.5q0 149 101.5 213.5t349.5 64.5h385q180 0 255 -60t75 -202v-31h-306q-8 42 -35 60
t-79 18h-299q-70 0 -97.5 -14.5t-27.5 -50.5q0 -53 158 -75l4 -1l434 -64q178 -26 263 -96.5t85 -191.5q0 -102 -52 -159.5t-155 -70.5q80 -53 120 -122.5t40 -153.5q0 -169 -101 -240t-352 -71h-440q-182 0 -259 65t-77 217q0 12 1 27l3 44zM1171 618q30 22 44 44.5
t14 48.5q0 47 -39 73.5t-137 44.5l-574 103q-23 -22 -34 -44t-11 -48q0 -54 36 -82.5t126 -42.5z" />
    <glyph glyph-name="bullet" unicode="&#x2022;" horiz-adv-x="1208" 
d="M307 762q0 123 87 209t210 86q122 0 208.5 -86.5t86.5 -208.5t-87.5 -209.5t-209.5 -87.5q-123 0 -209 87t-86 210z" />
    <glyph glyph-name="paragraph" unicode="&#xb6;" 
d="M997 1479v-123h-106v-1356h-176v1356h-150v-1356h-174v784q-164 6 -263 101t-99 245q0 158 106 253.5t283 95.5h579z" />
    <glyph glyph-name="germandbls" unicode="&#xdf;" horiz-adv-x="1651" 
d="M528 0h-381v1055q0 240 122 343t413 103h326q244 0 352 -91.5t108 -297.5q0 -103 -37.5 -165t-123.5 -103q120 -32 181.5 -103.5t61.5 -179.5v-190q0 -208 -112 -297.5t-381 -89.5q-74 0 -153 4t-165 12l1 297q56 -9 105 -13.5t91 -4.5q109 0 172 39t63 106v135
q0 59 -57 90t-166 31h-207v258h187q84 0 123 32.5t39 102.5q0 74 -36 109t-112 35h-186q-146 0 -187 -44t-41 -178v-995z" />
    <glyph glyph-name="registered" unicode="&#xae;" horiz-adv-x="1706" 
d="M762 1022v-219h80q74 0 110.5 26.5t36.5 79.5q0 59 -38 86t-122 27h-67zM537 1163h329q174 0 264.5 -60t90.5 -177q0 -81 -46 -139t-128 -82l182 -361h-248l-154 326h-65v-326h-225v819zM854 1350q-124 0 -232 -44t-194 -128q-90 -90 -137 -203t-47 -238q0 -121 44 -229
t130 -195q87 -90 199 -138t235 -48q121 0 232.5 45.5t199.5 130.5t134 196.5t46 237.5q0 124 -44 233.5t-128 194.5q-89 91 -200.5 138t-237.5 47zM852 1485q156 0 294 -57.5t245 -167.5q101 -104 154.5 -238t53.5 -285q0 -155 -56.5 -291t-164.5 -239q-109 -105 -245 -161
t-281 -56q-151 0 -287 58t-243 169q-105 108 -160.5 241.5t-55.5 278.5q0 151 59 290t169 247q105 104 237 157.5t281 53.5z" />
    <glyph glyph-name="copyright" unicode="&#xa9;" horiz-adv-x="1706" 
d="M1221 891h-213q-7 67 -47.5 104t-108.5 37q-83 0 -129.5 -77t-46.5 -216q0 -140 47.5 -212t138.5 -72q67 0 106.5 40.5t45.5 114.5h215q-6 -143 -107.5 -230t-263.5 -87q-190 0 -301 117.5t-111 320.5q0 207 111 329t299 122q157 0 257 -80t108 -211zM854 1350
q-126 0 -235 -45.5t-195 -133.5q-88 -89 -135 -201t-47 -233q0 -119 47 -230.5t135 -199.5q87 -87 198 -133.5t232 -46.5t234 47t202 135q86 84 130 193t44 235q0 125 -45 235.5t-131 196.5q-88 89 -198.5 135t-235.5 46zM852 1485q154 0 289.5 -56t242.5 -163
q106 -106 160.5 -240.5t54.5 -288.5q0 -153 -54 -287t-159 -237q-109 -108 -247 -165.5t-287 -57.5q-148 0 -283.5 57t-242.5 164t-163.5 241.5t-56.5 284.5q0 148 57.5 285t164.5 246q105 106 238 161.5t286 55.5z" />
    <glyph glyph-name="trademark" unicode="&#x2122;" horiz-adv-x="1706" 
d="M797 1464h223l113 -303l114 303h221v-551h-155v390l-146 -390h-65l-150 390v-390h-155v551zM188 1464h502v-127h-164v-424h-174v424h-164v127z" />
    <glyph glyph-name="acute" unicode="&#xb4;" 
d="M295 1176l268 284h398l-474 -284h-192z" />
    <glyph glyph-name="dieresis" unicode="&#xa8;" 
d="M588 1186v262h327v-262h-327zM109 1186v262h327v-262h-327z" />
    <glyph glyph-name="notequal" unicode="&#x2260;" horiz-adv-x="1706" 
d="M1194 1251l168 -137l-135 -168h225v-221h-377l-180 -227h557v-222h-704l-246 -307l-170 137l135 170h-213v222h360l183 227h-543v221h694z" />
    <glyph glyph-name="AE" unicode="&#xc6;" horiz-adv-x="2697" 
d="M438 0h-504l965 1489h1655v-363h-854v-225h827v-309h-827v-232h854v-360h-1294v289h-629zM1260 588v581h-68l-361 -581h429z" />
    <glyph glyph-name="Oslash" unicode="&#xd8;" horiz-adv-x="2253" 
d="M868 -18q-202 0 -323 16t-189 51l-184 -145l-125 180l143 113q-31 78 -47 161t-16 170v404q0 187 38 296t124 173q75 57 199.5 81.5t377.5 24.5h535q148 0 260.5 -10t185.5 -31l187 150l125 -168l-125 -96q55 -66 81.5 -164.5t26.5 -237.5v-413q0 -170 -38.5 -278
t-123.5 -173q-75 -57 -198 -80.5t-381 -23.5h-533zM752 360q30 -8 72 -12t114 -4h47h297q249 0 329.5 62t80.5 231v217q0 73 -12 121.5t-35 75.5zM1421 1141q-19 2 -44.5 3t-88.5 1h-297q-252 0 -332.5 -64t-80.5 -239v-213q0 -40 3 -70t9 -55z" />
    <glyph glyph-name="infinity" unicode="&#x221e;" horiz-adv-x="1706" 
d="M956 561q43 -67 102 -101t132 -34q90 0 146.5 50.5t56.5 129.5q0 77 -51.5 127.5t-127.5 50.5q-72 0 -131.5 -50.5t-126.5 -172.5zM752 657q-43 67 -101 100.5t-133 33.5q-90 0 -146.5 -50t-56.5 -129q0 -77 51 -127.5t128 -50.5q71 0 132 52.5t126 170.5zM856 442
q-68 -130 -147.5 -193t-176.5 -63q-139 0 -238 121.5t-99 300.5q0 188 87.5 305t227.5 117q90 0 166.5 -56.5t175.5 -199.5q71 132 150 195t174 63q140 0 238.5 -121t98.5 -301q0 -189 -87.5 -306.5t-227.5 -117.5q-91 0 -166 55t-176 201z" />
    <glyph glyph-name="plusminus" unicode="&#xb1;" horiz-adv-x="1706" 
d="M254 213h1198v-231h-1198v231zM735 1241h238v-319h479v-232h-479v-319h-238v319h-481v232h481v319z" />
    <glyph glyph-name="lessequal" unicode="&#x2264;" horiz-adv-x="1706" 
d="M256 213h1196v-229h-1196v229zM1450 1257v-239l-776 -240l776 -239v-240l-1194 379v201z" />
    <glyph glyph-name="greaterequal" unicode="&#x2265;" horiz-adv-x="1706" 
d="M256 213h1196v-229h-1196v229zM258 1257l1192 -378v-201l-1192 -379v240l776 239l-776 240v239z" />
    <glyph glyph-name="yen" unicode="&#xa5;" horiz-adv-x="2030" 
d="M1227 0h-426v535l-35 38h-746v162h607l-150 176h-457v162h316l-359 416h496l545 -660l561 660h469l-358 -416h321v-162h-461l-153 -176h614v-162h-754l-30 -38v-535z" />
    <glyph glyph-name="mu" unicode="&#xb5;" horiz-adv-x="1315" 
d="M193 1090h358l-80 -529q-6 -41 -9 -77.5t-3 -65.5q0 -85 35.5 -127.5t107.5 -42.5q88 0 138.5 68.5t74.5 220.5l88 553h357l-175 -1090h-321l18 125q-40 -75 -89.5 -108t-119.5 -33q-59 0 -106.5 31t-77.5 89l-82 -532h-352z" />
    <glyph glyph-name="partialdiff" unicode="&#x2202;" horiz-adv-x="1114" 
d="M766 684q21 113 32 206t11 150q0 87 -29.5 148t-68.5 61q-35 0 -132 -93t-180 -93q-48 0 -80 33.5t-32 83.5q0 69 93 125.5t220 56.5q210 0 332.5 -161t122.5 -441q0 -344 -162.5 -564.5t-417.5 -220.5q-182 0 -299 116.5t-117 299.5q0 203 119.5 336t298.5 133
q101 0 170.5 -42.5t118.5 -133.5zM698 532q0 114 -36.5 176t-104.5 62q-96 0 -160.5 -136.5t-64.5 -346.5q0 -116 36.5 -176t106.5 -60q97 0 160 135.5t63 345.5z" />
    <glyph glyph-name="summation" unicode="&#x2211;" horiz-adv-x="1520" 
d="M72 1473h1335v-302h-838l596 -608l-587 -651h895v-305h-1424v184l684 756l-661 665v261z" />
    <glyph glyph-name="product" unicode="&#x220f;" horiz-adv-x="1645" 
d="M145 1473h1348v-1866h-399v1532h-549v-1532h-400v1866z" />
    <glyph glyph-name="pi" unicode="&#x3c0;" horiz-adv-x="1530" 
d="M1538 1090l-39 -232h-178l-135 -858h-357l134 858h-232l-135 -858h-354l133 858h-27q-42 0 -70.5 -35.5t-36.5 -97.5h-235q33 209 124.5 287t311.5 78h1096z" />
    <glyph glyph-name="integral" unicode="&#x222b;" horiz-adv-x="1249" 
d="M362 -248q99 0 119 667q3 101 4 154q17 523 130.5 753t349.5 230q105 0 170 -53t65 -137q0 -64 -41 -103.5t-106 -39.5q-64 0 -96.5 38.5t-32.5 112.5q0 38 -7.5 49t-25.5 11q-101 0 -124 -667l-3 -91q-11 -329 -30.5 -472.5t-57.5 -244.5q-62 -166 -159.5 -249
t-229.5 -83q-107 0 -171.5 52t-64.5 139q0 65 42 104t112 39q60 0 92.5 -36t32.5 -103q0 -12 -2 -24v-3q0 -24 8 -33.5t26 -9.5z" />
    <glyph glyph-name="ordfeminine" unicode="&#xaa;" horiz-adv-x="1161" 
d="M655 1069h-174q-78 0 -109.5 -17.5t-31.5 -58.5q0 -39 29.5 -54t111.5 -15h174q79 0 110.5 17t31.5 58q0 40 -28.5 55t-113.5 15zM1083 752h-284v88q-43 -51 -132.5 -75t-236.5 -24q-216 0 -297.5 54t-81.5 194q0 137 84 189.5t316 52.5q129 0 213 -15.5t135 -48.5v80
q0 39 -28.5 59.5t-82.5 20.5h-231q-43 0 -63.5 -14t-20.5 -43h-285v10q0 117 93 168t308 51h277q162 0 239.5 -60t77.5 -184v-503z" />
    <glyph glyph-name="ordmasculine" unicode="&#xba;" horiz-adv-x="1235" 
d="M551 940h135q101 0 142.5 30t41.5 101v98q0 70 -42 99.5t-142 29.5h-135q-105 0 -144.5 -28.5t-39.5 -104.5v-96q0 -69 42.5 -99t141.5 -30zM477 741q-213 0 -304 63t-91 208v200q0 159 89 223t304 64h285q210 0 301.5 -64.5t91.5 -211.5v-205q0 -150 -89 -213.5
t-304 -63.5h-283z" />
    <glyph glyph-name="Omega" unicode="&#x3a9;" horiz-adv-x="1645" 
d="M1266 307h333v-307h-636v352q92 82 142 196.5t50 246.5q0 182 -90 288.5t-244 106.5q-153 0 -243.5 -107.5t-90.5 -289.5q0 -132 50 -246.5t143 -194.5v-352h-635v307h332q-132 95 -200 229.5t-68 299.5q0 303 195.5 489t516.5 186q323 0 518 -185t195 -490
q0 -165 -68 -299.5t-200 -229.5z" />
    <glyph glyph-name="ae" unicode="&#xe6;" horiz-adv-x="2449" 
d="M893 455h-231q-103 0 -146 -25.5t-43 -85.5q0 -56 38.5 -78t150.5 -22h231q103 0 145.5 25.5t42.5 84.5q0 57 -38.5 79t-149.5 22zM1249 125q-54 -80 -162.5 -111.5t-429.5 -31.5q-151 0 -245 9t-158 29q-82 27 -124 107t-42 211q0 194 107.5 268t408.5 74
q174 0 284 -21.5t183 -68.5v117q0 54 -40 84t-111 30h-308q-54 0 -80 -19t-28 -60l-369 -1v13q0 167 120 240t398 73h258q125 0 214.5 -41.5t131.5 -118.5q36 82 120.5 120t234.5 40h321q217 0 331 -104.5t114 -303.5v-225h-942q0 -5 -1 -15t-1 -13q0 -93 51 -133t170 -40
h157q116 0 154.5 25t50.5 92h361v-12q0 -187 -103 -270t-341 -86h-320q-133 0 -224 35.5t-141 107.5zM1436 668h583v4q0 74 -48 105.5t-167 31.5h-153q-119 0 -167 -31.5t-48 -105.5v-4z" />
    <glyph glyph-name="oslash" unicode="&#xf8;" horiz-adv-x="1647" 
d="M590 281q26 -9 64.5 -14t82.5 -5h185q141 0 198.5 44t57.5 149v145q0 17 -3 36.5t-8 39.5zM485 434l512 350q-10 1 -27 2q-33 2 -42 2h-187q-145 0 -200.5 -43.5t-55.5 -156.5v-154zM641 -14q-135 0 -227 17t-152 52l-153 -106l-107 153l139 99q-13 48 -19.5 89t-6.5 81
v288q0 224 118.5 315t407.5 91h379q112 0 191.5 -11.5t129.5 -35.5l158 106l103 -151l-109 -74q27 -36 40 -91.5t13 -135.5v-293q0 -212 -119.5 -302.5t-406.5 -90.5h-379z" />
    <glyph glyph-name="questiondown" unicode="&#xbf;" horiz-adv-x="1651" 
d="M696 1485h412v-391h-412v391zM713 975h380q3 -40 4 -60t1 -34q0 -134 -46.5 -203t-148.5 -88l-307 -58q-67 -12 -96 -40.5t-29 -81.5q0 -74 55 -104t197 -30h225q137 0 185.5 45.5t48.5 170.5v28h374q6 -34 8.5 -69.5t2.5 -75.5q0 -219 -136 -308.5t-481 -89.5h-327
q-286 0 -408.5 75t-122.5 249v223q0 121 68 199t190 96l252 39q66 10 88.5 30.5t22.5 69.5v17z" />
    <glyph glyph-name="exclamdown" unicode="&#xa1;" horiz-adv-x="999" 
d="M311 883h387l13 -512v-371h-422v371zM289 1489h422v-422h-422v422z" />
    <glyph glyph-name="logicalnot" unicode="&#xac;" horiz-adv-x="1706" 
d="M254 866h1198v-501h-229v274h-969v227z" />
    <glyph glyph-name="radical" unicode="&#x221a;" horiz-adv-x="1366" 
d="M1155 1714h215v-149h-96l-590 -1606h-119l-307 846l-145 -55l-37 129l360 127l223 -635z" />
    <glyph glyph-name="florin" unicode="&#x192;" horiz-adv-x="2001" 
d="M158 -326v344q78 -21 144 -32t120 -11q131 0 197.5 49t95.5 171l88 362h-418v309h494l59 248q51 210 186 302.5t394 92.5q71 0 160 -8t198 -24v-338q-102 20 -178.5 29.5t-132.5 9.5q-107 0 -169 -46t-83 -141l-29 -125h485v-309h-552l-95 -430q-49 -232 -221 -359.5
t-434 -127.5q-55 0 -132 8.5t-177 25.5z" />
    <glyph glyph-name="approxequal" unicode="&#x2248;" horiz-adv-x="1706" 
d="M1530 602v-254q-105 -71 -196 -104t-181 -33t-283 65.5t-309 65.5q-82 0 -172.5 -37t-210.5 -121v254q111 74 209 109t195 35q115 0 304.5 -65.5t272.5 -65.5t170 35t201 116zM1530 1036v-254q-107 -70 -197 -102.5t-178 -32.5q-91 0 -284 64.5t-310 64.5q-84 0 -172 -36
t-211 -122v256q112 74 209 108t195 34q115 0 304.5 -65.5t272.5 -65.5t170.5 35.5t200.5 115.5z" />
    <glyph glyph-name="Delta" unicode="&#x2206;" horiz-adv-x="1468" 
d="M733 1059l-262 -774h526zM537 1473h395l541 -1473h-1475z" />
    <glyph glyph-name="guillemotleft" unicode="&#xab;" horiz-adv-x="1190" 
d="M1108 852l-234 -322l234 -313h-311l-234 313l234 322h311zM627 852l-236 -322l236 -313h-312l-235 313l235 322h312z" />
    <glyph glyph-name="guillemotright" unicode="&#xbb;" horiz-adv-x="1190" 
d="M80 852h311l236 -322l-236 -313h-311l235 313zM563 852h311l234 -322l-234 -313h-311l234 313z" />
    <glyph glyph-name="ellipsis" unicode="&#x2026;" horiz-adv-x="2048" 
d="M553 0h-422v422h422v-422zM1235 0h-422v422h422v-422zM1919 0h-422v422h422v-422z" />
    <glyph glyph-name="nonbreakingspace" unicode="&#xa0;" horiz-adv-x="2001" 
 />
    <glyph glyph-name="Agrave" unicode="&#xc0;" horiz-adv-x="2195" 
d="M817 606h572l-289 527zM500 0h-496l813 1489h580l798 -1489h-499l-144 248h-907zM1315 1616h-192l-474 284h398z" />
    <glyph glyph-name="Atilde" unicode="&#xc3;" horiz-adv-x="2195" 
d="M817 606h572l-289 527zM500 0h-496l813 1489h580l798 -1489h-499l-144 248h-907zM801 1626h-137q32 117 101 175t175 58q21 0 44.5 -2.5t49.5 -7.5l173 -33q17 -3 35 -4.5t36 -1.5q45 0 74.5 18.5t42.5 53.5h137q-26 -111 -101 -172.5t-186 -61.5q-22 0 -42 2t-39 7
l-184 36q-11 3 -21.5 3.5t-32.5 0.5q-49 0 -81 -18t-44 -53z" />
    <glyph glyph-name="Otilde" unicode="&#xd5;" horiz-adv-x="2253" 
d="M860 -18q-261 0 -382 23.5t-197 80.5q-86 64 -124 167.5t-38 274.5v406q0 187 38 296t124 173q75 56 199.5 80t377.5 24h535q254 0 379.5 -24t199.5 -80q83 -63 121.5 -172t38.5 -279v-415q0 -172 -38.5 -279.5t-121.5 -171.5q-75 -57 -198 -80.5t-381 -23.5h-533z
M983 354h289q241 0 320 60.5t79 224.5v211q0 164 -79 224.5t-320 60.5h-291q-246 0 -322.5 -61t-76.5 -232v-207q0 -161 80.5 -221t320.5 -60zM829 1626h-137q32 117 101 175t175 58q21 0 44.5 -2.5t49.5 -7.5l173 -33q17 -3 35 -4.5t36 -1.5q45 0 74.5 18.5t42.5 53.5h137
q-26 -111 -101 -172.5t-186 -61.5q-22 0 -42 2t-39 7l-184 36q-11 3 -21.5 3.5t-32.5 0.5q-49 0 -81 -18t-44 -53z" />
    <glyph glyph-name="OE" unicode="&#x152;" horiz-adv-x="2693" 
d="M1059 1130h-242q-193 0 -255 -60t-62 -232v-207q0 -160 64 -219.5t253 -59.5h242q182 0 243.5 53t61.5 195v37v211q0 168 -59.5 225t-245.5 57zM1415 166q-60 -102 -137 -143t-223 -41h-289q-240 0 -355 23.5t-188 80.5q-81 62 -117 165t-36 273v406q0 186 35.5 295
t115.5 172q72 56 189.5 80t353.5 24h291q144 0 226.5 -45.5t133.5 -152.5v184h1217v-361h-828v-225h801v-313h-801v-228h828v-360h-1217v166z" />
    <glyph glyph-name="oe" unicode="&#x153;" horiz-adv-x="2550" 
d="M1333 150q-48 -91 -135 -127.5t-280 -36.5h-343q-256 0 -364.5 89t-108.5 296v286q0 224 106.5 315t367.5 93h342q182 0 273.5 -29t141.5 -98q59 66 145.5 96.5t217.5 30.5h329q223 0 338 -103.5t115 -302.5v-225h-946q0 -5 -1 -15t-1 -13q0 -92 52 -132.5t171 -40.5h158
q115 0 154 25t51 92h360v-16q0 -185 -105 -266.5t-346 -81.5h-327q-171 0 -254.5 38t-110.5 126zM1526 674h583v4q0 75 -47.5 106t-165.5 31h-155q-118 0 -166.5 -31.5t-48.5 -105.5v-4zM727 295h178q137 0 191.5 39.5t54.5 134.5v131q0 94 -56.5 134t-189.5 40h-178
q-142 0 -195 -39t-53 -141v-129q0 -93 55.5 -131.5t192.5 -38.5z" />
    <glyph glyph-name="endash" unicode="&#x2013;" 
d="M1024 410h-1024v249h1024v-249z" />
    <glyph glyph-name="emdash" unicode="&#x2014;" horiz-adv-x="2048" 
d="M0 410v249h2048v-249h-2048z" />
    <glyph glyph-name="quotedblleft" unicode="&#x201c;" horiz-adv-x="1606" 
d="M715 1085v-395h-430v496q0 170 84.5 244.5t277.5 74.5q32 0 65.5 -1.5t67.5 -4.5v-229h-30q-76 0 -111 -22.5t-35 -69.5v-93h111zM1319 1085v-395h-430v496q0 170 85 244.5t277 74.5q32 0 65.5 -1.5t67.5 -4.5v-229h-30q-76 0 -111 -22.5t-35 -69.5v-93h111z" />
    <glyph glyph-name="quotedblright" unicode="&#x201d;" horiz-adv-x="1606" 
d="M889 1094v395h430v-498q0 -170 -85 -244.5t-278 -74.5q-31 0 -64.5 1.5t-67.5 4.5l-1 229h31q75 0 109 22t34 70v95h-108zM285 1094v395h430v-498q0 -170 -85 -244.5t-278 -74.5q-31 0 -64.5 1.5t-68.5 4.5v229h31q76 0 110.5 22.5t34.5 69.5v95h-110z" />
    <glyph glyph-name="quoteleft" unicode="&#x2018;" horiz-adv-x="999" 
d="M717 1085v-395h-432v498q0 169 84 243t276 74q31 0 65 -1.5t70 -4.5v-227h-28q-76 0 -111 -22.5t-35 -71.5v-93h111z" />
    <glyph glyph-name="quoteright" unicode="&#x2019;" horiz-adv-x="999" 
d="M285 1094v395h432v-498q0 -170 -85.5 -244.5t-279.5 -74.5q-31 0 -64.5 1.5t-68.5 4.5v229h31q76 0 110.5 22.5t34.5 69.5v95h-110z" />
    <glyph glyph-name="divide" unicode="&#xf7;" horiz-adv-x="1706" 
d="M854 371q68 0 116 -48.5t48 -117.5q0 -68 -47.5 -116t-116.5 -48t-117.5 48t-48.5 116t49 117t117 49zM254 727h1198v-231h-1198v231zM854 1182q67 0 115.5 -49t48.5 -117t-48.5 -116t-117.5 -48t-116.5 48t-47.5 116t49 117t117 49z" />
    <glyph glyph-name="lozenge" unicode="&#x25ca;" horiz-adv-x="1012" 
d="M506 1409l-385 -817l385 -825l385 825zM506 1653l500 -1061l-500 -1069l-500 1069z" />
    <glyph glyph-name="ydieresis" unicode="&#xff;" horiz-adv-x="1452" 
d="M625 51h-142l-460 1002h417l293 -684l303 684h414l-526 -1135q-41 -88 -82.5 -143t-91.5 -84q-43 -25 -102.5 -36t-143.5 -11q-44 0 -87 2t-85 6v249q23 -2 43 -3.5t39 -1.5q91 0 141.5 37t69.5 118zM803 1186v262h327v-262h-327zM324 1186v262h327v-262h-327z" />
    <glyph glyph-name="Ydieresis" unicode="&#x178;" horiz-adv-x="2103" 
d="M1270 0h-455v535l-821 954h559l489 -592l512 592h539l-823 -954v-535zM1129 1626v262h327v-262h-327zM650 1626v262h327v-262h-327z" />
    <glyph glyph-name="fraction" unicode="&#x2215;" horiz-adv-x="342" 
d="M487 1507h195l-829 -1525h-195z" />
    <glyph glyph-name="currency" unicode="&#xa4;" horiz-adv-x="2001" 
d="M1845 442q0 -138 -33.5 -229.5t-103.5 -144.5q-61 -48 -164 -67t-381 -19h-252q-218 0 -318.5 23.5t-166.5 80.5q-71 60 -104 165t-33 269h-223l47 146h176v157h-223l47 146h176q3 168 35.5 271t99.5 163q64 57 168.5 80.5t316.5 23.5h242q278 0 381 -19.5t164 -66.5
q70 -53 103.5 -145t33.5 -229v-37h-442q0 87 -57.5 127.5t-182.5 40.5h-119q-158 0 -218 -45t-75 -164h596l-47 -146h-553v-157h500l-47 -146h-449q13 -118 75 -163.5t218 -45.5h131q125 0 182.5 40.5t57.5 127.5v15h442v-52z" />
    <glyph glyph-name="guilsinglleft" unicode="&#x2039;" horiz-adv-x="709" 
d="M627 852l-236 -322l236 -313h-312l-233 313l233 322h312z" />
    <glyph glyph-name="guilsinglright" unicode="&#x203a;" horiz-adv-x="709" 
d="M80 852h311l236 -322l-236 -313h-311l235 313z" />
    <glyph glyph-name="fi" unicode="&#xf001;" horiz-adv-x="1565" 
d="M600 0h-381v766h-184v287h184v34q0 219 104 308.5t363 89.5h236v-262h-11q-59 4 -84 4q-122 0 -175.5 -34t-53.5 -110q0 -12 0.5 -18.5t1.5 -11.5h322v-287h-322v-766zM1049 1180v309h378v-309h-378zM1427 0h-378v1053h378v-1053z" />
    <glyph glyph-name="fl" unicode="&#xf002;" horiz-adv-x="1565" 
d="M600 0h-381v766h-184v287h184v34q0 219 104 308.5t363 89.5h236v-262h-11q-59 4 -84 4q-122 0 -175.5 -34t-53.5 -110q0 -12 0.5 -18.5t1.5 -11.5h322v-287h-322v-766zM1427 0h-378v1489h378v-1489z" />
    <glyph glyph-name="daggerdbl" unicode="&#x2021;" horiz-adv-x="1493" 
d="M915 0h-333v276h-394v299h394v359h-394v301h394v254h333v-254h390v-301h-390v-359h390v-299h-390v-276z" />
    <glyph glyph-name="periodcentered" unicode="&#xb7;" horiz-adv-x="999" 
d="M270 750q0 94 67 160.5t163 66.5q95 0 162 -67t67 -160q0 -97 -67 -164.5t-162 -67.5q-96 0 -163 67.5t-67 164.5z" />
    <glyph glyph-name="quotesinglbase" unicode="&#x201a;" horiz-adv-x="999" 
d="M285 25v395h432v-498q0 -170 -85.5 -244.5t-279.5 -74.5q-31 0 -64.5 1.5t-68.5 4.5v229h31q75 0 110 23t35 71v93h-110z" />
    <glyph glyph-name="quotedblbase" unicode="&#x201e;" horiz-adv-x="1606" 
d="M889 25v395h430v-498q0 -170 -85 -244.5t-278 -74.5q-31 0 -64.5 1.5t-67.5 4.5l-1 229h29q76 0 110.5 22.5t34.5 71.5v93h-108zM285 25v395h430v-498q0 -170 -85 -244.5t-278 -74.5q-31 0 -64.5 1.5t-68.5 4.5v229h31q75 0 110 23t35 71v93h-110z" />
    <glyph glyph-name="perthousand" unicode="&#x2030;" horiz-adv-x="3752" 
d="M696 1284h-151q-87 0 -121.5 -37.5t-34.5 -136.5v-129q0 -92 33 -129t123 -37h151q90 0 125 37t35 129v129q0 97 -34 135.5t-126 38.5zM829 1507q148 0 215.5 -78t67.5 -249v-271q0 -165 -69 -242t-218 -77h-395q-161 0 -229 73.5t-68 245.5v271q0 172 68 249.5t219 77.5
h409zM3205 674h-153q-88 0 -122 -37.5t-34 -136.5v-129q0 -92 32.5 -128t123.5 -36h153q90 0 124 36t34 128v129q0 97 -33.5 135.5t-124.5 38.5zM3338 897q148 0 214.5 -77.5t66.5 -250.5v-268q0 -165 -69.5 -242t-217.5 -77h-395q-161 0 -229 73.5t-68 245.5v268
q0 173 68 250.5t219 77.5h411zM1167 -18h-192l498 1525h190zM2087 674h-152q-87 0 -121 -37.5t-34 -136.5v-129q0 -92 32.5 -128t122.5 -36h152q90 0 125 36.5t35 127.5v129q0 97 -34.5 135.5t-125.5 38.5zM2220 897q148 0 215.5 -78t67.5 -250v-268q0 -165 -69.5 -242
t-217.5 -77h-395q-161 0 -229 73.5t-68 245.5v268q0 173 68 250.5t218 77.5h410z" />
    <glyph glyph-name="Acircumflex" unicode="&#xc2;" horiz-adv-x="2195" 
d="M817 606h572l-289 527zM500 0h-496l813 1489h580l798 -1489h-499l-144 248h-907zM670 1616l268 284h320l268 -284h-192l-236 149l-236 -149h-192z" />
    <glyph glyph-name="Ecircumflex" unicode="&#xca;" horiz-adv-x="1905" 
d="M1776 1126h-1172v-225h1104v-313h-1104v-228h1190v-360h-1644v1489h1626v-363zM537 1616l268 284h320l268 -284h-192l-236 149l-236 -149h-192z" />
    <glyph glyph-name="Aacute" unicode="&#xc1;" horiz-adv-x="2195" 
d="M817 606h572l-289 527zM500 0h-496l813 1489h580l798 -1489h-499l-144 248h-907zM881 1616l268 284h398l-474 -284h-192z" />
    <glyph glyph-name="Edieresis" unicode="&#xcb;" horiz-adv-x="1905" 
d="M1776 1126h-1172v-225h1104v-313h-1104v-228h1190v-360h-1644v1489h1626v-363zM1041 1626v262h327v-262h-327zM562 1626v262h327v-262h-327z" />
    <glyph glyph-name="Egrave" unicode="&#xc8;" horiz-adv-x="1905" 
d="M1776 1126h-1172v-225h1104v-313h-1104v-228h1190v-360h-1644v1489h1626v-363zM1182 1616h-192l-474 284h398z" />
    <glyph glyph-name="Iacute" unicode="&#xcd;" horiz-adv-x="795" 
d="M625 0h-455v1489h455v-1489zM180 1616l268 284h398l-474 -284h-192z" />
    <glyph glyph-name="Icircumflex" unicode="&#xce;" horiz-adv-x="795" 
d="M625 0h-455v1489h455v-1489zM-31 1616l268 284h320l268 -284h-192l-236 149l-236 -149h-192z" />
    <glyph glyph-name="Idieresis" unicode="&#xcf;" horiz-adv-x="795" 
d="M625 0h-455v1489h455v-1489zM473 1626v262h327v-262h-327zM-6 1626v262h327v-262h-327z" />
    <glyph glyph-name="Igrave" unicode="&#xcc;" horiz-adv-x="795" 
d="M625 0h-455v1489h455v-1489zM614 1616h-192l-474 284h398z" />
    <glyph glyph-name="Oacute" unicode="&#xd3;" horiz-adv-x="2253" 
d="M860 -18q-261 0 -382 23.5t-197 80.5q-86 64 -124 167.5t-38 274.5v406q0 187 38 296t124 173q75 56 199.5 80t377.5 24h535q254 0 379.5 -24t199.5 -80q83 -63 121.5 -172t38.5 -279v-415q0 -172 -38.5 -279.5t-121.5 -171.5q-75 -57 -198 -80.5t-381 -23.5h-533z
M983 354h289q241 0 320 60.5t79 224.5v211q0 164 -79 224.5t-320 60.5h-291q-246 0 -322.5 -61t-76.5 -232v-207q0 -161 80.5 -221t320.5 -60zM909 1616l268 284h398l-474 -284h-192z" />
    <glyph glyph-name="Ocircumflex" unicode="&#xd4;" horiz-adv-x="2253" 
d="M860 -18q-261 0 -382 23.5t-197 80.5q-86 64 -124 167.5t-38 274.5v406q0 187 38 296t124 173q75 56 199.5 80t377.5 24h535q254 0 379.5 -24t199.5 -80q83 -63 121.5 -172t38.5 -279v-415q0 -172 -38.5 -279.5t-121.5 -171.5q-75 -57 -198 -80.5t-381 -23.5h-533z
M983 354h289q241 0 320 60.5t79 224.5v211q0 164 -79 224.5t-320 60.5h-291q-246 0 -322.5 -61t-76.5 -232v-207q0 -161 80.5 -221t320.5 -60zM698 1616l268 284h320l268 -284h-192l-236 149l-236 -149h-192z" />
    <glyph glyph-name="apple" unicode="&#xf000;" horiz-adv-x="1618" 
d="M836 1216q-1 6 -1.5 14t-0.5 23q0 124 95 229.5t236 131.5q1 -10 1.5 -23t0.5 -39q0 -131 -103.5 -234.5t-203.5 -103.5h-8q-3 0 -7.5 1t-8.5 1zM1505 403q-114 -247 -205 -342.5t-204 -95.5q-50 0 -131.5 33t-122.5 33q-45 0 -131 -33t-127 -33q-64 0 -128.5 44
t-129.5 132q-102 140 -157.5 295.5t-55.5 300.5q0 219 125 356.5t323 137.5q68 0 155 -34t124 -34q34 0 121.5 35t152.5 35q110 0 198 -40t161 -124q-102 -65 -151.5 -145.5t-49.5 -182.5q0 -113 60 -200t173 -138z" />
    <glyph glyph-name="Ograve" unicode="&#xd2;" horiz-adv-x="2253" 
d="M860 -18q-261 0 -382 23.5t-197 80.5q-86 64 -124 167.5t-38 274.5v406q0 187 38 296t124 173q75 56 199.5 80t377.5 24h535q254 0 379.5 -24t199.5 -80q83 -63 121.5 -172t38.5 -279v-415q0 -172 -38.5 -279.5t-121.5 -171.5q-75 -57 -198 -80.5t-381 -23.5h-533z
M983 354h289q241 0 320 60.5t79 224.5v211q0 164 -79 224.5t-320 60.5h-291q-246 0 -322.5 -61t-76.5 -232v-207q0 -161 80.5 -221t320.5 -60zM1343 1616h-192l-474 284h398z" />
    <glyph glyph-name="Uacute" unicode="&#xda;" horiz-adv-x="2150" 
d="M150 1489h454v-883q0 -151 68.5 -202.5t298.5 -51.5h258q191 0 256 54.5t65 199.5v883h455v-1024q0 -263 -141.5 -373t-489.5 -110h-508q-409 0 -562.5 105t-153.5 378v1024zM858 1616l268 284h398l-474 -284h-192z" />
    <glyph glyph-name="Ucircumflex" unicode="&#xdb;" horiz-adv-x="2150" 
d="M150 1489h454v-883q0 -151 68.5 -202.5t298.5 -51.5h258q191 0 256 54.5t65 199.5v883h455v-1024q0 -263 -141.5 -373t-489.5 -110h-508q-409 0 -562.5 105t-153.5 378v1024zM647 1616l268 284h320l268 -284h-192l-236 149l-236 -149h-192z" />
    <glyph glyph-name="Ugrave" unicode="&#xd9;" horiz-adv-x="2150" 
d="M150 1489h454v-883q0 -151 68.5 -202.5t298.5 -51.5h258q191 0 256 54.5t65 199.5v883h455v-1024q0 -263 -141.5 -373t-489.5 -110h-508q-409 0 -562.5 105t-153.5 378v1024zM1292 1616h-192l-474 284h398z" />
    <glyph glyph-name="dotlessi" unicode="&#x131;" horiz-adv-x="696" 
d="M539 0h-379v1053h379v-1053z" />
    <glyph glyph-name="circumflex" unicode="&#x2c6;" 
d="M84 1176l268 284h320l268 -284h-192l-236 149l-236 -149h-192z" />
    <glyph glyph-name="tilde" unicode="&#x2dc;" 
d="M215 1186h-137q32 117 101 175t175 58q21 0 44.5 -2.5t49.5 -7.5l173 -33q17 -3 35 -4.5t36 -1.5q45 0 74.5 18.5t42.5 53.5h137q-26 -111 -101 -172.5t-186 -61.5q-22 0 -42 2t-39 7l-184 36q-11 3 -21.5 3.5t-32.5 0.5q-49 0 -81 -18t-44 -53z" />
    <glyph glyph-name="macron" unicode="&#xaf;" 
d="M109 1235v164h806v-164h-806z" />
    <glyph glyph-name="breve" unicode="&#x2d8;" 
d="M86 1460h178q15 -63 75 -93t173 -30q114 0 174.5 30.5t71.5 92.5h178q-21 -147 -123 -215.5t-301 -68.5q-198 0 -301.5 69t-124.5 215z" />
    <glyph glyph-name="dotaccent" unicode="&#x2d9;" 
d="M342 1180v272h340v-272h-340z" />
    <glyph glyph-name="ring" unicode="&#x2da;" 
d="M653 1372q0 57 -35 85t-106 28q-70 0 -104.5 -28t-34.5 -85q0 -54 34.5 -81t104.5 -27q71 0 106 26.5t35 81.5zM860 1372q0 -102 -89.5 -156.5t-258.5 -54.5q-165 0 -255.5 55.5t-90.5 155.5q0 102 90 156.5t256 54.5q169 0 258.5 -54.5t89.5 -156.5z" />
    <glyph glyph-name="cedilla" unicode="&#xb8;" 
d="M383 0h129v-109h168q65 0 92 -33t27 -116v-53q0 -84 -27 -117t-94 -33h-436v137h333q19 0 29 11t10 30q0 23 -9.5 32t-33.5 9h-135q-29 0 -41 16t-12 60v166z" />
    <glyph glyph-name="hungarumlaut" unicode="&#x2dd;" 
d="M553 1174l219 282h356l-428 -282h-147zM143 1174l176 282h338l-383 -282h-131z" />
    <glyph glyph-name="ogonek" unicode="&#x2db;" 
d="M684 0l-203 -186q-13 -12 -19.5 -25t-6.5 -27q0 -17 9.5 -24.5t31.5 -7.5h309v-176h-465q-55 0 -82 28.5t-27 85.5v43q0 45 17 76.5t55 58.5l219 154h162z" />
    <glyph glyph-name="caron" unicode="&#x2c7;" 
d="M84 1458h192l236 -147l236 147h192l-268 -282h-320z" />
    <glyph glyph-name="Lslash" unicode="&#x141;" horiz-adv-x="1669" 
d="M651 991l518 312v-273l-518 -313v-357h991v-360h-1445v530l-197 -118v272l197 119v686h454v-498z" />
    <glyph glyph-name="lslash" unicode="&#x142;" horiz-adv-x="717" 
d="M168 0v580l-191 -119v213l191 119v696h379v-545l198 123v-213l-198 -123v-731h-379z" />
    <glyph glyph-name="Scaron" unicode="&#x160;" horiz-adv-x="2097" 
d="M133 495l449 1v-27q0 -84 41 -113.5t172 -29.5h571q84 0 120 28.5t36 94.5q0 67 -41.5 96t-178.5 39l-714 16q-268 8 -362.5 102t-94.5 342q0 128 25 211t80 138q65 62 170 88t342 26h694q258 0 371.5 -94t113.5 -305q0 -14 -0.5 -30t-3.5 -52h-438v6q0 74 -37.5 111
t-112.5 37h-524q-131 0 -173 -26t-42 -91q0 -64 38 -92.5t140 -36.5l748 -12q256 -7 360.5 -115t104.5 -369q0 -155 -38.5 -240t-129.5 -145q-60 -38 -163 -54.5t-298 -16.5h-606q-373 0 -499 83.5t-126 311.5q0 13 1.5 43.5t4.5 74.5zM621 1898h192l236 -147l236 147h192
l-268 -282h-320z" />
    <glyph glyph-name="scaron" unicode="&#x161;" horiz-adv-x="1593" 
d="M92 333l402 1v-4q0 -49 49 -71.5t157 -22.5h277q83 0 117 18.5t34 62.5q0 40 -36.5 60.5t-118.5 25.5l-375 7q-284 1 -393 73t-109 244q0 182 118 261t396 79h430q206 0 305 -76t101 -235h-379q-14 30 -61 45.5t-127 15.5h-265q-76 0 -106.5 -15.5t-30.5 -51.5
q0 -37 32 -53t146 -23h463q203 -3 297 -83.5t94 -250.5q0 -194 -104.5 -274t-368.5 -80h-385q-326 0 -441 76t-118 271zM369 1458h192l236 -147l236 147h192l-268 -282h-320z" />
    <glyph glyph-name="Zcaron" unicode="&#x17d;" horiz-adv-x="1901" 
d="M1829 0h-1751v365l1061 763h-1022v361h1687v-361l-1054 -763h1079v-365zM522 1898h192l236 -147l236 147h192l-268 -282h-320z" />
    <glyph glyph-name="zcaron" unicode="&#x17e;" horiz-adv-x="1296" 
d="M1245 0h-1190v266l637 498h-600v289h1133v-291l-602 -475h622v-287zM221 1458h192l236 -147l236 147h192l-268 -282h-320z" />
    <glyph glyph-name="brokenbar" unicode="&#xa6;" 
d="M393 408h240v-758h-240v758zM393 1432h240v-758h-240v758z" />
    <glyph glyph-name="Eth" unicode="&#xd0;" horiz-adv-x="2267" 
d="M1497 1489q341 0 496 -119.5t155 -380.5v-512q0 -248 -124 -362.5t-394 -114.5h-1440v627h-190v237h190v625h1307zM1356 1122h-711v-258h492v-237h-492v-265h770q144 0 210.5 58.5t66.5 185.5v262q0 131 -81.5 192.5t-254.5 61.5z" />
    <glyph glyph-name="eth" unicode="&#xf0;" horiz-adv-x="1647" 
d="M735 272h178q136 0 191 39t55 131v127q0 93 -56.5 132.5t-189.5 39.5h-178q-141 0 -194.5 -38t-53.5 -138v-125q0 -91 56 -129.5t192 -38.5zM635 -14q-285 0 -405.5 86t-120.5 284v277q0 216 118 303.5t406 87.5h164q77 0 143.5 -21.5t126.5 -66.5l-248 256l-463 -66
l-24 177l338 45l-138 143h410l88 -90l369 53l26 -180l-235 -33l162 -156q108 -103 147 -202t39 -262v-256q0 -206 -118.5 -292.5t-405.5 -86.5h-379z" />
    <glyph glyph-name="Yacute" unicode="&#xdd;" horiz-adv-x="2103" 
d="M1270 0h-455v535l-821 954h559l489 -592l512 592h539l-823 -954v-535zM836 1616l268 284h398l-474 -284h-192z" />
    <glyph glyph-name="yacute" unicode="&#xfd;" horiz-adv-x="1452" 
d="M625 51h-142l-460 1002h417l293 -684l303 684h414l-526 -1135q-41 -88 -82.5 -143t-91.5 -84q-43 -25 -102.5 -36t-143.5 -11q-44 0 -87 2t-85 6v249q23 -2 43 -3.5t39 -1.5q91 0 141.5 37t69.5 118zM510 1176l268 284h398l-474 -284h-192z" />
    <glyph glyph-name="Thorn" unicode="&#xde;" horiz-adv-x="1997" 
d="M1282 942h-670v-377h670q90 0 127 43.5t37 149.5q0 99 -38.5 141.5t-125.5 42.5zM1298 1313q152 0 242.5 -14.5t153.5 -47.5q113 -59 164 -175.5t51 -321.5q0 -306 -102 -432.5t-345 -126.5h-850v-195h-456v1489h456v-176h686z" />
    <glyph glyph-name="thorn" unicode="&#xfe;" horiz-adv-x="1659" 
d="M932 776h-172q-131 0 -185.5 -40t-54.5 -136v-127q0 -105 51.5 -144.5t188.5 -39.5h172q129 0 184 41t55 137v131q0 96 -54 137t-185 41zM147 1489h379v-629q12 112 117.5 159.5t351.5 47.5q306 0 430.5 -80t124.5 -272v-348q0 -192 -130 -278.5t-419 -86.5
q-242 0 -343.5 42t-131.5 146v-546h-379v1845z" />
    <glyph glyph-name="minus" unicode="&#x2212;" horiz-adv-x="1706" 
d="M254 729h1198v-235h-1198v235z" />
    <glyph glyph-name="multiply" unicode="&#xd7;" horiz-adv-x="1706" 
d="M430 1214l440 -440l441 440l162 -161l-441 -443l441 -440l-162 -162l-441 441l-440 -441l-162 162l441 440l-441 443z" />
    <glyph glyph-name="onesuperior" unicode="&#xb9;" horiz-adv-x="1321" 
d="M952 596h-288v672l-332 -207l-142 186l431 242h331v-893z" />
    <glyph glyph-name="twosuperior" unicode="&#xb2;" horiz-adv-x="1321" 
d="M1235 596h-1137v315q0 73 65 122.5t173 58.5l462 34q81 6 111.5 20.5t30.5 45.5v45q0 30 -33.5 44.5t-99.5 14.5h-256q-98 0 -137 -26.5t-39 -91.5q0 -2 1 -5.5t1 -5.5t-0.5 -3t-1.5 -1h-277v62q0 156 83 216t306 60h400q176 0 257 -51.5t81 -163.5v-147q0 -87 -62 -140
t-174 -61l-526 -41q-45 -3 -66.5 -26t-21.5 -68v-4h860v-203z" />
    <glyph glyph-name="threesuperior" unicode="&#xb3;" horiz-adv-x="1321" 
d="M86 919h276q-1 -6 -1.5 -12.5t-0.5 -17.5q0 -57 27.5 -77.5t112.5 -20.5h352q49 0 71.5 16.5t22.5 52.5q0 44 -26.5 63t-88.5 19h-294v203h305q38 0 58 18t20 54q0 42 -27 59.5t-94 17.5h-316q-65 0 -87.5 -20t-22.5 -76v-10h-279q0 9 -1 28.5t-1 28.5q0 138 84.5 197
t282.5 59h407q186 0 262 -42.5t76 -145.5v-105q0 -80 -32.5 -114t-120.5 -47q100 -15 140 -48t40 -100v-113q0 -102 -79.5 -151t-246.5 -49h-420q-137 0 -204 11t-109 38q-46 28 -68 82.5t-22 140.5q0 11 1 24t3 37z" />
    <glyph glyph-name="onequarter" unicode="&#xbc;" horiz-adv-x="2863" 
d="M2646 0h-264v168h-717v303l653 363h328v-474h143v-192h-143v-168zM2382 360v273l-488 -273h488zM1747 1507h195l-830 -1525h-194zM909 655h-274v627l-318 -192l-137 174l412 225h317v-834z" />
    <glyph glyph-name="onehalf" unicode="&#xbd;" horiz-adv-x="2863" 
d="M2779 0h-1085v293q0 69 62 115.5t168 54.5l440 31q79 7 107 20.5t28 42.5v41q0 28 -31.5 41.5t-95.5 13.5h-246q-92 0 -129 -25t-37 -85q0 -2 1 -5t1 -6q0 -2 -2 -4h-266v60q0 144 79 200t293 56h381q169 0 246.5 -47.5t77.5 -151.5v-137q0 -81 -60 -131t-166 -58
l-501 -38q-45 -4 -64.5 -24t-19.5 -62v-7h819v-188zM1747 1507h195l-830 -1525h-194zM909 655h-274v627l-318 -192l-137 174l412 225h317v-834z" />
    <glyph glyph-name="threequarters" unicode="&#xbe;" horiz-adv-x="2863" 
d="M2648 0h-264v168h-717v303l653 363h328v-474h143v-192h-143v-168zM2384 360v273l-488 -273h488zM1749 1507h195l-830 -1525h-194zM82 956h264q-1 -5 -1.5 -11t-0.5 -17q0 -54 26.5 -73t104.5 -19h340q46 0 67 15.5t21 49.5q0 41 -25.5 58.5t-84.5 17.5h-281v190h291
q36 0 56 17.5t20 50.5q0 40 -26.5 57t-90.5 17h-301q-63 0 -85 -19.5t-22 -72.5v-11l-264 1q-1 9 -1.5 20.5t-0.5 34.5q0 127 81 182t269 55h389q178 0 250 -39.5t72 -136.5v-96q0 -75 -31 -106.5t-114 -45.5q94 -12 132 -43t38 -94v-104q0 -97 -76.5 -143t-235.5 -46h-399
q-129 0 -193 10.5t-104 34.5q-46 28 -67 78.5t-21 132.5q0 10 0.5 21t3.5 34z" />
    <glyph glyph-name="franc" unicode="&#x20a3;" horiz-adv-x="3144" 
d="M1776 1126h-1172v-266h1104v-360h-1104v-500h-454v1489h1626v-363zM2339 856q56 113 146 163t239 50q219 0 311 -93t92 -312q0 -32 -4 -99v-6h-334v16q0 93 -51.5 137t-159.5 44q-112 0 -175.5 -51.5t-63.5 -143.5v-561h-379v1053h379v-197z" />
    <glyph glyph-name="Gbreve" unicode="&#x11e;" horiz-adv-x="2154" 
d="M1561 952v4q0 103 -62 141t-280 38h-265q-233 0 -298.5 -56t-65.5 -237v-207q0 -161 74 -221t292 -60h263q196 0 270 35.5t74 122.5q0 12 -4 40v5h-535v301h1008v-489q0 -210 -155.5 -298.5t-541.5 -88.5h-506q-233 0 -344 25t-188 85q-90 71 -131 174.5t-41 261.5v406
q0 320 151.5 446.5t550.5 126.5h508q246 0 363 -22t184 -74q70 -54 103.5 -145.5t33.5 -229.5q0 -33 -0.5 -51t-1.5 -33h-456zM651 1900h178q15 -63 75 -93t173 -30q114 0 174.5 30.5t71.5 92.5h178q-21 -147 -123 -215.5t-301 -68.5q-198 0 -301.5 69t-124.5 215z" />
    <glyph glyph-name="gbreve" unicode="&#x11f;" horiz-adv-x="1653" 
d="M734 342h167q127 0 180.5 39.5t53.5 132.5v121q0 89 -54 127.5t-180 38.5h-168q-133 0 -183 -37.5t-50 -134.5v-117q0 -89 52 -127t182 -43zM1135 178q-32 -53 -119.5 -75.5t-278.5 -22.5q-360 0 -485 73.5t-125 264.5v289q0 190 127 275t412 85q202 0 314.5 -42
t154.5 -132v160h378v-1049q0 -173 -132.5 -266.5t-379.5 -93.5h-350q-321 0 -423.5 66.5t-102.5 244.5v16h379q4 -46 44.5 -64t153.5 -18h216q116 0 168.5 52.5t52.5 171.5q0 17 -4 55v10zM401 1460h178q15 -63 75 -93t173 -30q114 0 174.5 30.5t71.5 92.5h178
q-21 -147 -123 -215.5t-301 -68.5q-198 0 -301.5 69t-124.5 215z" />
    <glyph glyph-name="Idotaccent" unicode="&#x130;" horiz-adv-x="795" 
d="M625 0h-455v1489h455v-1489zM227 1620v272h340v-272h-340z" />
    <glyph glyph-name="Scedilla" unicode="&#x15e;" horiz-adv-x="2097" 
d="M133 495l449 1v-27q0 -84 41 -113.5t172 -29.5h571q84 0 120 28.5t36 94.5q0 67 -41.5 96t-178.5 39l-714 16q-268 8 -362.5 102t-94.5 342q0 128 25 211t80 138q65 62 170 88t342 26h694q258 0 371.5 -94t113.5 -305q0 -14 -0.5 -30t-3.5 -52h-438v6q0 74 -37.5 111
t-112.5 37h-524q-131 0 -173 -26t-42 -91q0 -64 38 -92.5t140 -36.5l748 -12q256 -7 360.5 -115t104.5 -369q0 -155 -38.5 -240t-129.5 -145q-60 -38 -163 -54.5t-298 -16.5h-606q-373 0 -499 83.5t-126 311.5q0 13 1.5 43.5t4.5 74.5zM920 0h129v-109h168q65 0 92 -33
t27 -116v-53q0 -84 -27 -117t-94 -33h-436v137h333q19 0 29 11t10 30q0 23 -9.5 32t-33.5 9h-135q-29 0 -41 16t-12 60v166z" />
    <glyph glyph-name="scedilla" unicode="&#x15f;" horiz-adv-x="1593" 
d="M92 333l402 1v-4q0 -49 49 -71.5t157 -22.5h277q83 0 117 18.5t34 62.5q0 40 -36.5 60.5t-118.5 25.5l-375 7q-284 1 -393 73t-109 244q0 182 118 261t396 79h430q206 0 305 -76t101 -235h-379q-14 30 -61 45.5t-127 15.5h-265q-76 0 -106.5 -15.5t-30.5 -51.5
q0 -37 32 -53t146 -23h463q203 -3 297 -83.5t94 -250.5q0 -194 -104.5 -274t-368.5 -80h-385q-326 0 -441 76t-118 271zM668 0h129v-109h168q65 0 92 -33t27 -116v-53q0 -84 -27 -117t-94 -33h-436v137h333q19 0 29 11t10 30q0 23 -9.5 32t-33.5 9h-135q-29 0 -41 16t-12 60
v166z" />
    <glyph glyph-name="Cacute" unicode="&#x106;" horiz-adv-x="2150" 
d="M1575 952v15q0 87 -57.5 127.5t-182.5 40.5h-364q-234 0 -300.5 -56.5t-66.5 -236.5v-207q0 -161 74 -221t293 -60h264q217 0 284.5 43.5t67.5 161.5v16h461q0 -3 1 -11q3 -65 3 -97q0 -143 -36 -236t-113 -149q-73 -54 -194.5 -77t-356.5 -23h-508q-233 0 -343 25
t-188 85q-90 71 -131 174.5t-41 261.5v406q0 320 152 446.5t551 126.5h508q245 0 361 -22t183 -74q71 -54 104.5 -145.5t33.5 -229.5q0 -33 -0.5 -50.5t-2.5 -33.5h-456zM873 1616l268 284h398l-474 -284h-192z" />
    <glyph glyph-name="cacute" unicode="&#x107;" horiz-adv-x="1597" 
d="M612 -14q-268 0 -385.5 90.5t-117.5 296.5v286q0 228 111.5 318t391.5 90h359q262 0 384 -87t122 -273q0 -20 -1.5 -41.5t-5.5 -44.5h-358v6q0 82 -48.5 118.5t-160.5 36.5h-186q-130 0 -179 -41t-49 -151v-135q0 -100 52.5 -142.5t175.5 -42.5h166q142 0 186.5 36
t44.5 136h377q1 -12 1.5 -25.5t0.5 -39.5q0 -212 -117.5 -301.5t-398.5 -89.5h-365zM590 1176l268 284h398l-474 -284h-192z" />
    <glyph glyph-name="Ccaron" unicode="&#x10c;" horiz-adv-x="2150" 
d="M1575 952v15q0 87 -57.5 127.5t-182.5 40.5h-364q-234 0 -300.5 -56.5t-66.5 -236.5v-207q0 -161 74 -221t293 -60h264q217 0 284.5 43.5t67.5 161.5v16h461q0 -3 1 -11q3 -65 3 -97q0 -143 -36 -236t-113 -149q-73 -54 -194.5 -77t-356.5 -23h-508q-233 0 -343 25
t-188 85q-90 71 -131 174.5t-41 261.5v406q0 320 152 446.5t551 126.5h508q245 0 361 -22t183 -74q71 -54 104.5 -145.5t33.5 -229.5q0 -33 -0.5 -50.5t-2.5 -33.5h-456zM662 1898h192l236 -147l236 147h192l-268 -282h-320z" />
    <glyph glyph-name="ccaron" unicode="&#x10d;" horiz-adv-x="1597" 
d="M612 -14q-268 0 -385.5 90.5t-117.5 296.5v286q0 228 111.5 318t391.5 90h359q262 0 384 -87t122 -273q0 -20 -1.5 -41.5t-5.5 -44.5h-358v6q0 82 -48.5 118.5t-160.5 36.5h-186q-130 0 -179 -41t-49 -151v-135q0 -100 52.5 -142.5t175.5 -42.5h166q142 0 186.5 36
t44.5 136h377q1 -12 1.5 -25.5t0.5 -39.5q0 -212 -117.5 -301.5t-398.5 -89.5h-365zM379 1458h192l236 -147l236 147h192l-268 -282h-320z" />
    <glyph glyph-name="dcroat" unicode="&#x111;" horiz-adv-x="1663" 
d="M899 272q131 0 185.5 40.5t54.5 136.5v104q0 105 -52 144.5t-188 39.5h-172q-129 0 -184.5 -41t-55.5 -137v-108q0 -97 53.5 -138t186.5 -41h172zM1133 1337v152h378v-152h209v-180h-209v-1157h-378v188q-13 -112 -117 -159t-350 -47q-305 0 -431 80t-126 272v325
q0 193 129 279t419 86q245 0 344.5 -42t131.5 -146v321h-478v180h478z" />
    <glyph glyph-name="sfthyphen" unicode="&#xad;" horiz-adv-x="1010" 
d="M834 725v-381h-674v381h674z" />
    <glyph glyph-name="periodcentered" unicode="&#x2219;" horiz-adv-x="999" 
d="M270 750q0 94 67 160.5t163 66.5q95 0 162 -67t67 -160q0 -97 -67 -164.5t-162 -67.5q-96 0 -163 67.5t-67 164.5z" />
    <glyph glyph-name="euro" horiz-adv-x="2001" 
d="M1845 442q0 -138 -33.5 -229.5t-103.5 -144.5q-61 -48 -164 -67t-381 -19h-252q-218 0 -318.5 23.5t-166.5 80.5q-71 60 -104 165t-33 269h-223l47 146h176v157h-223l47 146h176q3 168 35.5 271t99.5 163q64 57 168.5 80.5t316.5 23.5h242q278 0 381 -19.5t164 -66.5
q70 -53 103.5 -145t33.5 -229v-37h-442q0 87 -57.5 127.5t-182.5 40.5h-119q-158 0 -218 -45t-75 -164h596l-47 -146h-553v-157h500l-47 -146h-449q13 -118 75 -163.5t218 -45.5h131q125 0 182.5 40.5t57.5 127.5v15h442v-52z" />
    <glyph glyph-name="euro" unicode="&#x20ac;" horiz-adv-x="2001" 
d="M1845 442q0 -138 -33.5 -229.5t-103.5 -144.5q-61 -48 -164 -67t-381 -19h-252q-218 0 -318.5 23.5t-166.5 80.5q-71 60 -104 165t-33 269h-223l47 146h176v157h-223l47 146h176q3 168 35.5 271t99.5 163q64 57 168.5 80.5t316.5 23.5h242q278 0 381 -19.5t164 -66.5
q70 -53 103.5 -145t33.5 -229v-37h-442q0 87 -57.5 127.5t-182.5 40.5h-119q-158 0 -218 -45t-75 -164h596l-47 -146h-553v-157h500l-47 -146h-449q13 -118 75 -163.5t218 -45.5h131q125 0 182.5 40.5t57.5 127.5v15h442v-52z" />
    </font>
</defs>
</svg>
