<?xml version="1.0" encoding="utf-8"?>
<!-- Generator: Adobe Illustrator 24.0.2, SVG Export Plug-In . SVG Version: 6.00 Build 0)  -->
<svg version="1.1" id="Capa_1" xmlns="http://www.w3.org/2000/svg" xmlns:xlink="http://www.w3.org/1999/xlink" x="0px" y="0px"
	 viewBox="0 0 97 97" style="enable-background:new 0 0 97 97;" xml:space="preserve">
<style type="text/css">
	.st0{fill:#EA45AF;}
</style>
<g>
	<g>
		<g>
			<path class="st0" d="M49.2,51.8L37.7,85.2c3.4,1,7,1.6,10.8,1.6c4.4,0,8.7-0.8,12.7-2.2c-0.1-0.2-0.2-0.3-0.3-0.5L49.2,51.8z"/>
			<path class="st0" d="M10.3,48.5c0,15.1,8.8,28.2,21.5,34.4L13.6,32.9C11.5,37.7,10.3,42.9,10.3,48.5z"/>
			<path class="st0" d="M74.3,46.6c0-4.7-1.7-8-3.1-10.5c-1.9-3.1-3.8-5.8-3.8-9c0-3.5,2.7-6.8,6.4-6.8c0.2,0,0.3,0,0.5,0
				c-6.8-6.2-15.9-10-25.8-10c-13.4,0-25.1,6.9-31.9,17.2c0.9,0,1.7,0,2.5,0c4,0,10.2-0.5,10.2-0.5c2.1-0.1,2.3,2.9,0.2,3.1
				c0,0-2.1,0.2-4.4,0.4L39,72l8.4-25.1l-6-16.3c-2.1-0.1-4-0.4-4-0.4c-2.1-0.1-1.8-3.3,0.2-3.1c0,0,6.3,0.5,10.1,0.5
				c4,0,10.2-0.5,10.2-0.5c2.1-0.1,2.3,2.9,0.2,3.1c0,0-2.1,0.2-4.4,0.4l13.8,41.1l3.8-12.7C73,53.6,74.3,49.8,74.3,46.6z"/>
			<path class="st0" d="M82,30.2c0.2,1.2,0.3,2.5,0.3,3.9c0,3.9-0.7,8.2-2.9,13.7L67.7,81.5c11.4-6.6,19-18.9,19-33
				C86.7,41.8,85,35.6,82,30.2z"/>
			<path class="st0" d="M48.5,0C21.7,0,0,21.7,0,48.5S21.7,97,48.5,97S97,75.3,97,48.5S75.3,0,48.5,0z M48.5,91
				C25.1,91,6,71.9,6,48.5C6,25.1,25.1,6,48.5,6C71.9,6,91,25.1,91,48.5C91,71.9,71.9,91,48.5,91z"/>
		</g>
	</g>
</g>
</svg>
